<svg xmlns="http://www.w3.org/2000/svg" viewBox="0 0 940.37 553.25"><defs><style>.cls-1{fill:none;stroke:#2b215f;stroke-linecap:round;stroke-linejoin:round;}</style></defs><g id="Layer_2" data-name="Layer 2"><g id="Layer_1-2" data-name="Layer 1"><path class="cls-1" d="M660.46,41.79c-.26.11-.52.24-.77.37m170.46-6.11H830q-15.62,2-31,5.29h-.15m.67,43.76a37.82,37.82,0,0,1-12.84-2.42l-.5-.19M771,144.17h0l.51.3"/><path class="cls-1" d="M855.79,153.75a7.52,7.52,0,0,1-4.38,7.8L833,171.72l-69.3-40,.2-.18,61.71,35.39,25.67-14.22c3.28-1.84,6.66-4.53,2.26-18.6s.71-17.44-1.09-24-13.9-13.61-8.36-26.25c3.87-8.84,18.19-19.23,18.3-29.54l.55,8c0,10.35-14.22,21.13-18.29,30.35a7.1,7.1,0,0,0-.84,2.26c2,6.57,7.93,11.06,9.21,15.46a10.62,10.62,0,0,1,0,3v8.82a51.91,51.91,0,0,1-.71,5.95,48,48,0,0,0,1.42,6.37,36.54,36.54,0,0,1,2.12,10.94Z"/><path class="cls-1" d="M834.27,68c0,.13-.11.25-.18.38M786.75,83l-.5-.17m-.7-38.29-.57.14m14-3.28h-.14m63.45,11.3a8.94,8.94,0,0,1,.11,1.71M672.78,39.76a22.9,22.9,0,0,0-6.56.26,3.5,3.5,0,0,0-.63.12"/><path class="cls-1" d="M844,84c-5.54,12.63,6.56,19.69,8.35,26.26s-3.28,9.92,1.1,24,1,16.74-2.27,18.6L825.55,167l-61.71-35.39,4.17-4,22.12-20.13a5.64,5.64,0,0,0,2.19-4.26V96.5c.7-1.7.75-4.24-2-7.55A23,23,0,0,1,786.81,83a37.16,37.16,0,0,0,12.71,2.12,37.92,37.92,0,0,0,10.8-1.45,53,53,0,0,0,14.22-5.24,25.39,25.39,0,0,0,5.91-5v-.06a17.88,17.88,0,0,0,3.67-5h.41l-.25-.38c2.07-4.81.58-9.51-4.85-12.67a24.68,24.68,0,0,0-4.82-2,49.57,49.57,0,0,0-31.37,3.28,22,22,0,0,0,4.38-7.15,20.84,20.84,0,0,0,1-3.37h0a22.39,22.39,0,0,0,.45-4.76q15.45-3.28,31.17-5.32h2.41a42.63,42.63,0,0,1,20.28,5.4c6.07,3.66,8.75,7.43,9.39,11.21h0a10.39,10.39,0,0,1,.09,1.37v.35h0C862.22,64.76,847.9,75.14,844,84Z"/><path class="cls-1" d="M937.47,232.35h0a4.09,4.09,0,0,0-.28-.33c-.23-.2-.47-.38-.71-.56L833,171.73l-69.3-40-2.62,2.48a1.75,1.75,0,0,0-.64.6,15,15,0,0,0,1.63,2.39l9.39,7.37,19,14.8.35.32a23.68,23.68,0,0,1,10.57,16.7v8.5a19.73,19.73,0,0,1-4.53,11.78l-235-135.52V52.87l-1.09-.65a50.57,50.57,0,0,1,22.77-5.41h1.33a36.79,36.79,0,0,1,15.6,3.28c17,7.66,22,10.07,32.47,14.22.37.14.74.27,1.09.37a16,16,0,0,0,4.75.72,16.69,16.69,0,0,0,7-1.57L634,57.08l.14-.08L537.75,1.35a7.24,7.24,0,0,0-6.8,0L4,305.48a8,8,0,0,0-1.09.85c-.63,1.09.26,2.18,1.09,3.13L402.76,539.57a7.51,7.51,0,0,0,2.69.82V540a7.3,7.3,0,0,0,3.55-.85L935.76,235C937.81,234.62,938.24,233.41,937.47,232.35ZM256.9,382.74l-137.72-79.4,5-2.83,137.68,79.4Zm165.29,95.43-137.68-79.4,5-3,137.68,79.55Zm113.57-49.35-4.67,2.7a9.34,9.34,0,0,1-9.08,0L202,247.19a2.7,2.7,0,0,1,0-5.25l4.6-2.7a10.27,10.27,0,0,1,9.08,0l320.1,184.34C538.32,425.13,538.32,427.41,535.76,428.82Zm27.8-16-4.72,2.7a10.19,10.19,0,0,1-9.07,0l-320-184.33c-2.56-1.57-2.56-3.83,0-5.25l4.53-2.69a9.61,9.61,0,0,1,9.22,0l320,184.32a2.7,2.7,0,0,1,2,3.27A2.66,2.66,0,0,1,563.56,412.8Zm27.5-15.45-4.54,2.71a10.49,10.49,0,0,1-9.21,0L257.71,215c-2.55-1.55-2.55-3.83,0-5.24l4.68-2.7a10.2,10.2,0,0,1,8.64.71l320,184.33a2.69,2.69,0,0,1,0,5.25Zm62.11-36.3-4.69,2.69a10.17,10.17,0,0,1-9.06,0l-320-184.33a2.69,2.69,0,0,1,0-5.25l4.54-2.69a10.25,10.25,0,0,1,9.07,0L653.17,355.8a2.7,2.7,0,0,1,0,5.25ZM681,345l-4.67,2.7a10.21,10.21,0,0,1-9.08,0l-320-184.34c-2.55-1.55-2.55-3.82,0-5.38l4.54-2.55a9.67,9.67,0,0,1,9.22,0L681,339.78a2.69,2.69,0,0,1,0,5.24Zm27.94-16.16-4.55,2.69a10.42,10.42,0,0,1-9.21,0l-320-184.32c-2.56-1.57-2.56-3.83,0-5.25l4.67-2.7a9.9,9.9,0,0,1,9.08,0l320,184.33a2.7,2.7,0,0,1,0,5.25Zm61.83-35.59L766,296a10.21,10.21,0,0,1-9.08,0L436.8,111.64a3,3,0,0,1-1.56-1.55,2.84,2.84,0,0,1,1.55-3.7h0l4.53-2.69a10.19,10.19,0,0,1,9.22,0L770.72,288a2.71,2.71,0,0,1,0,5.26Zm27.64-15.74-4.68,2.69a10.12,10.12,0,0,1-9.07,0l-320-184.29c-2.55-1.42-2.55-3.69,0-5.25l4.54-2.55a9.59,9.59,0,0,1,8.93,0L798.36,272.28a2.72,2.72,0,0,1,2,2,2.69,2.69,0,0,1-2,3.24Zm27.93-16.41-4.67,2.7a10.21,10.21,0,0,1-9.08,0l-320-184.37c-2.55-1.56-2.55-3.83,0-5.25l4.69-2.69a9.39,9.39,0,0,1,9.08,0l320,184.33a2.69,2.69,0,0,1,0,5.24Z"/><path class="cls-1" d="M937.18,232a7.92,7.92,0,0,1,2.69,5.39v4.38a7.64,7.64,0,0,1-3.4,5.95L409.71,551.86a7.54,7.54,0,0,1-3.55.86"/><path class="cls-1" d="M3.51,321.35c.17.15.35.29.53.42l148.25,85.55"/><polygon class="cls-1" points="261.82 379.91 256.86 382.74 119.18 303.34 124.14 300.51 261.82 379.91"/><polygon class="cls-1" points="427.15 475.33 422.19 478.17 284.51 398.77 289.47 395.78 427.15 475.33"/><path class="cls-1" d="M406.16,552.29v.46h-.37a7.47,7.47,0,0,1-3-.84L172.5,419l-20.21-11.68L3.9,321.63c-.13-.09-.27-.18-.39-.28a7.84,7.84,0,0,1-2.87-5.53v-4.37A7.68,7.68,0,0,1,3,306.33c-.63,1.09.27,2.18,1.1,3.13L402.76,539.57a7.51,7.51,0,0,0,2.69.82v11.93Z"/><path class="cls-1" d="M3.51,321.35a7.35,7.35,0,0,1-3-5.53v-4.37a7.84,7.84,0,0,1,2.69-5.4,2.83,2.83,0,0,0-.2.28,7.68,7.68,0,0,0-2.35,5.12v4.37A7.84,7.84,0,0,0,3.51,321.35Z"/><path class="cls-1" d="M402.76,551.9a7.63,7.63,0,0,0,3,.84,7.17,7.17,0,0,1-3.17-.84L172.5,419Z"/><path class="cls-1" d="M406.16,540.42v11.87h-.71v-11.9C405.68,540.41,405.92,540.42,406.16,540.42Z"/><path class="cls-1" d="M939,236.12a2.08,2.08,0,0,1,0,.86v4.37a7.7,7.7,0,0,1-3.41,6L408.86,551.44a7.12,7.12,0,0,1-2.7.82V540.42h-.71V540a7.31,7.31,0,0,0,3.55-.86L935.76,235c2-.38,2.48-1.58,1.71-2.65l.56.66a13.15,13.15,0,0,1,1,1.85A4.16,4.16,0,0,1,939,236.12Z"/><path class="cls-1" d="M406.16,540.42v11.87h-.71v-11.9C405.68,540.41,405.92,540.42,406.16,540.42Z"/><path class="cls-1" d="M826.29,261.12l-4.67,2.7a10.21,10.21,0,0,1-9.08,0l-320-184.37c-2.55-1.56-2.55-3.83,0-5.25l4.69-2.69a9.39,9.39,0,0,1,9.08,0l320,184.33a2.69,2.69,0,0,1,0,5.24Z"/><path class="cls-1" d="M798.36,277.53l-4.68,2.69a10.12,10.12,0,0,1-9.07,0l-320-184.29c-2.55-1.42-2.55-3.69,0-5.25l4.54-2.55a9.59,9.59,0,0,1,8.93,0L798.36,272.28a2.72,2.72,0,0,1,2,2,2.69,2.69,0,0,1-2,3.24Z"/><path class="cls-1" d="M770.72,293.28,766,296a10.21,10.21,0,0,1-9.08,0L436.8,111.64a3,3,0,0,1-1.56-1.55,2.84,2.84,0,0,1,1.55-3.7h0l4.53-2.69a10.19,10.19,0,0,1,9.22,0L770.72,288a2.71,2.71,0,0,1,0,5.26Z"/><path class="cls-1" d="M708.89,328.86l-4.55,2.69a10.42,10.42,0,0,1-9.21,0l-320-184.32c-2.56-1.57-2.56-3.83,0-5.25l4.67-2.7a9.9,9.9,0,0,1,9.08,0l320,184.33a2.7,2.7,0,0,1,0,5.25Z"/><path class="cls-1" d="M681,345l-4.67,2.7a10.21,10.21,0,0,1-9.08,0l-320-184.34c-2.55-1.55-2.55-3.82,0-5.38l4.54-2.55a9.67,9.67,0,0,1,9.22,0L681,339.78a2.69,2.69,0,0,1,0,5.24Z"/><path class="cls-1" d="M653.17,361.05l-4.69,2.69a10.17,10.17,0,0,1-9.06,0l-320-184.33a2.69,2.69,0,0,1,0-5.25l4.54-2.69a10.25,10.25,0,0,1,9.07,0L653.17,355.8a2.7,2.7,0,0,1,0,5.25Z"/><path class="cls-1" d="M591.06,397.35l-4.54,2.71a10.49,10.49,0,0,1-9.21,0L257.71,215c-2.55-1.55-2.55-3.83,0-5.24l4.68-2.7a10.2,10.2,0,0,1,8.64.71l320,184.33a2.69,2.69,0,0,1,0,5.25Z"/><path class="cls-1" d="M563.56,412.8l-4.72,2.7a10.19,10.19,0,0,1-9.07,0l-320-184.33c-2.56-1.57-2.56-3.83,0-5.25l4.53-2.69a9.61,9.61,0,0,1,9.22,0l320,184.32a2.7,2.7,0,0,1,2,3.27,2.66,2.66,0,0,1-2,2Z"/><path class="cls-1" d="M535.76,428.82l-4.67,2.7a9.34,9.34,0,0,1-9.08,0L202,247.19a2.7,2.7,0,0,1,0-5.25l4.6-2.7a10.27,10.27,0,0,1,9.08,0l320.1,184.34C538.32,425.13,538.32,427.41,535.76,428.82Z"/><path class="cls-1" d="M785.3,45.44c-.11-.26-.23-.52-.36-.76h0a16.43,16.43,0,0,0-7.88-7.6l-3.28-1.55A32.43,32.43,0,0,0,743,40.91a18.06,18.06,0,0,0-2.33,2.7h0a17.93,17.93,0,0,0-2.07,3.67l-.11.26a16.17,16.17,0,0,0,1,2v.06a16.07,16.07,0,0,0,7.21,6.56,32.33,32.33,0,0,0,24.68,1.43,26.5,26.5,0,0,0,9.5-5.4,17.14,17.14,0,0,0,3.68-4.7h0a15,15,0,0,0,.84-1.77A2.45,2.45,0,0,0,785.3,45.44Z"/><path class="cls-1" d="M784.33,20.75a23.25,23.25,0,0,1,14.48,20.62h0a23.42,23.42,0,0,1-.31,4.73,21.16,21.16,0,0,0,.45-4.76h0A22.36,22.36,0,0,0,784.33,20.75ZM790.28,89A22.76,22.76,0,0,1,786.75,83a1.48,1.48,0,0,1-.12-.29,23.11,23.11,0,0,1-1.44-5.59A6.74,6.74,0,0,1,785,78a21.91,21.91,0,0,0,1.09,4.52,1.15,1.15,0,0,0,.11.31A22.15,22.15,0,0,0,789.7,89a9.71,9.71,0,0,1,2.56,5.67V96.5C793,94.84,793,92.26,790.28,89Zm-5-43.51a13.31,13.31,0,0,1-.71,2,16.91,16.91,0,0,0,.83-1.78Zm-46.7,1.84-.11.26a16.17,16.17,0,0,0,1,2,13.09,13.09,0,0,1-.82-2.27Z"/><path class="cls-1" d="M790.77,159.73l-.35-.32-19-14.87-9.39-7.38a15.42,15.42,0,0,1-1.63-2.38,8.93,8.93,0,0,1-1.26-5.66v-.26a6.17,6.17,0,0,1,2-3.28l7-6.38,22.12-20.14a6.06,6.06,0,0,0,2-2.52V94.62A9.59,9.59,0,0,0,789.65,89a22.38,22.38,0,0,1-3.45-6.09c0-.1-.08-.2-.11-.31A21.93,21.93,0,0,1,785,78a4.53,4.53,0,0,1,.16-.88h0a23.94,23.94,0,0,1,.16-7,23.33,23.33,0,0,1,4.92-10.71,22.17,22.17,0,0,0,3-2.77,21.87,21.87,0,0,0,4.37-7.16,20.56,20.56,0,0,0,1-3.37h0a23.32,23.32,0,0,0,.31-4.72h0a23.25,23.25,0,0,0-14.48-20.62,48.85,48.85,0,0,0-21.7-5.25h-1A49.32,49.32,0,0,0,728.88,27a40.43,40.43,0,0,1-21.12,8.08,65.5,65.5,0,0,1-19.57,0,17.83,17.83,0,0,0-4.38,0,11.43,11.43,0,0,0-8.94,2.84l-2,1.83-17,15.89L648.77,62a16.7,16.7,0,0,1-2.87,1.73l-.11.06a16.53,16.53,0,0,1-7,1.56,15.63,15.63,0,0,1-4.75-.71,10.71,10.71,0,0,1-1.09-.37c-10.49-4.11-15.46-6.56-32.47-14.22a36.79,36.79,0,0,0-15.6-3.28h-1.33a50.44,50.44,0,0,0-22.77,5.41l1.09.65,233.82,135C802,179.49,802.8,170.65,790.77,159.73ZM741.54,52.65a14.18,14.18,0,0,1-2-3v-.06a14.87,14.87,0,0,1-1-2l.11-.26a13.8,13.8,0,0,1-.52-4.29h0a14.1,14.1,0,0,1,4.93-10.3V32.4a32.48,32.48,0,0,1,30.78-5.1l3.28,1.41a14.23,14.23,0,0,1,8.39,15.8h0a9.24,9.24,0,0,1-.21.91,1.23,1.23,0,0,1,.12.26,13,13,0,0,1-.83,1.77h0a14,14,0,0,1-3.68,5,26.33,26.33,0,0,1-9.5,5.39,32.32,32.32,0,0,1-24.68-1.42A14.1,14.1,0,0,1,741.54,52.65Z"/><path class="cls-1" d="M834.27,68a12.92,12.92,0,0,0-4.38-4.16,24.63,24.63,0,0,0-4.81-2,49.91,49.91,0,0,0-32.19,3.71c-1,.47-2,1-3,1.54a27,27,0,0,0-4.5,3.06,23.28,23.28,0,0,1,4.92-10.71,22.17,22.17,0,0,0,3-2.77,49.47,49.47,0,0,1,31.36-3.28,23.51,23.51,0,0,1,4.82,2C834.85,58.5,836.33,63.2,834.27,68Z"/><path class="cls-1" d="M785.56,44.51l-.59.15a16.45,16.45,0,0,0-7.88-7.59l-3.28-1.55A32.43,32.43,0,0,0,743,40.9a19.3,19.3,0,0,0-2.33,2.7h0a17.93,17.93,0,0,0-2.07,3.67,13.83,13.83,0,0,1-.51-4.29h0a14.14,14.14,0,0,1,4.93-10.31v-.28a32.47,32.47,0,0,1,30.77-5.1l3.29,1.41A14.22,14.22,0,0,1,785.56,44.51Z"/><path class="cls-1" d="M672.89,39.74l-17,15.89L648.77,62a16.7,16.7,0,0,1-2.87,1.73l-.11.06L634,57.06l.14-.08,25.53-14.81.77-.37c.27-.12.52-.24.78-.34l.58-.23a14.78,14.78,0,0,1,1.7-.59l.67-.2.58-.14c.26-.07.53-.13.79-.18l.63-.12a23.73,23.73,0,0,1,6.41-.25Z"/><path class="cls-1" d="M792.27,96.5v6.77a5.71,5.71,0,0,1-2.19,4.26L768,127.66l-4.13,3.88-.2.18-2.61,2.5a1.75,1.75,0,0,0-.64.6,8.91,8.91,0,0,1-1.26-5.66v-.26a6.25,6.25,0,0,1,2-3.28l7-6.38L790.22,99.1A6.08,6.08,0,0,0,792.27,96.5Z"/><path class="cls-1" d="M801.34,176.44v8.5a19.7,19.7,0,0,1-4.53,11.77l-235-135.55V52.87l233.82,135c6.31-8.29,7.08-17.13-4.9-28A23.7,23.7,0,0,1,801.34,176.44Z"/></g></g></svg>