<svg xmlns="http://www.w3.org/2000/svg" viewBox="0 0 648.13 929"><defs><style>.cls-1{fill:none;stroke:#2b215f;stroke-linecap:round;stroke-linejoin:round;}</style></defs><g id="Layer_2" data-name="Layer 2"><g id="Layer_1-2" data-name="Layer 1"><path class="cls-1" d="M417.53,245.58h-.15a12,12,0,0,1-13.08-10.82v-.49l-4.7-65.92v-.56l-5.05-70.67c-2.47-35.07-14.56-60-33.24-68.58-14.74-6.69-33.46-2.65-52.8,11.67-50.33,37.1-96.35,133.2-102.86,214.27l-2,26.48v.6L194,407.07a12.25,12.25,0,0,1-11.91,11h-.94a12.2,12.2,0,0,1-11.33-13v-.15l8.3-108.67v-.6l3.3-43.32c6.7-88.7,56.15-190.72,112.46-232.19C320.83.34,348.33-4.72,371.58,6,398.66,18.52,416,51.09,419.05,95.24l4.15,58.83v.56l5.49,77.76a12.17,12.17,0,0,1-11.05,13.18Z"/><line class="cls-1" x1="399.53" y1="167.81" x2="203.55" y2="280.98"/><line class="cls-1" x1="178.1" y1="295.68" x2="30.26" y2="381.06"/><path class="cls-1" d="M642.89,610.23,96,926.38a11.82,11.82,0,0,0,2.66-9.19L71.91,432.05,84.6,659.35a32.59,32.59,0,0,0,48.86,26.39l100.21-57.82,9.52,161.29a6.16,6.16,0,0,0,6.07,5.82h.36a6.25,6.25,0,0,0,5.82-6.51L245.53,621,333,570.5l1.23,16.66,65.23-37.7-1.27-16.57L482.94,484l9.7,164.15a6.08,6.08,0,0,0,6.16,5.75h.47a6.05,6.05,0,0,0,5.73-6.38v0L494.94,477.21l93.7-54.1a89.87,89.87,0,0,0,44.93-75.23l14,252.09A10.52,10.52,0,0,1,642.89,610.23Z"/><path class="cls-1" d="M423.15,154.16,577.42,65.08a11.51,11.51,0,0,1,5.15-1.25,11.21,11.21,0,0,1,6.69,2.23l13.39,7.72a37.59,37.59,0,0,1,15.41,19.83"/><path class="cls-1" d="M98.68,917.19A11.82,11.82,0,0,1,96,926.38h0c-2.7,2.72-7.16,2.93-12.2,0L15.94,887.21A33.21,33.21,0,0,1,.5,859.61l23-467.24a10.4,10.4,0,0,1,6.82-11.29,7.67,7.67,0,0,1,1.77-.45L29.72,382a11.71,11.71,0,0,1,11,1.45l13.38,7.72a38.22,38.22,0,0,1,17.14,27.53L72,432.05Z"/><path class="cls-1" d="M71.17,418.56v.18A38.21,38.21,0,0,0,54,391.21l-13.38-7.72a11.69,11.69,0,0,0-11-1.45l2.39-1.41h0a10.39,10.39,0,0,1,8.52,2.48L54,390.92A38.17,38.17,0,0,1,71.17,418.56Z"/><path class="cls-1" d="M255.46,788.61a6.25,6.25,0,0,1-5.82,6.51h-.36a6.16,6.16,0,0,1-6.07-5.82L233.69,628,231.3,587.7a6.16,6.16,0,0,1,12.25-.69l2,34.13Z"/><path class="cls-1" d="M505,647.44a6.07,6.07,0,0,1-5.61,6.49h-.48a6.08,6.08,0,0,1-6.15-5.75L483.05,484l-2.23-37.45a6.16,6.16,0,0,1,12.25-.76l1.85,31.36Z"/><path class="cls-1" d="M618.77,95.33a38.06,38.06,0,0,1,1.34,6.43L633.5,340.23a61.51,61.51,0,0,1,0,7.56"/><path class="cls-1" d="M633.48,347.79h0A89.87,89.87,0,0,1,588.55,423l-93.7,54.1L493,445.75a6.16,6.16,0,0,0-12.25.76L483,484l-84.77,48.93-1.47-19.43L331.6,551,333,570.5,245.58,621l-2-34.13a6.16,6.16,0,0,0-12.25.69l2.39,40.31L133.5,685.65a32.58,32.58,0,0,1-48.85-26.39L72,432l-.75-13.38v0A38.19,38.19,0,0,0,54.06,391l-13.38-7.81a10.38,10.38,0,0,0-8.61-2.52l146-84.32L169.78,405v.16a12.2,12.2,0,0,0,11.33,13h.94a12.28,12.28,0,0,0,11.91-11l9.59-125.5L399.6,168.39l4.7,65.92v.49a12,12,0,0,0,13.08,10.82h.15a12.16,12.16,0,0,0,11.16-13.08h0l-5.49-77.77L577.5,65.64a11,11,0,0,1,11.83.85l13.54,7.72a38.49,38.49,0,0,1,15.24,19.4c.2.58.4,1.16.58,1.77a46.73,46.73,0,0,1,1.16,6Z"/><line class="cls-1" x1="32.04" y1="380.61" x2="32.02" y2="380.63"/><polygon class="cls-1" points="399.46 549.55 334.23 587.25 333 570.59 331.58 551.09 396.72 513.54 398.19 532.98 399.46 549.55"/></g></g></svg>