<?xml version="1.0" encoding="utf-8"?>
<!-- Generator: Adobe Illustrator 24.3.0, SVG Export Plug-In . SVG Version: 6.00 Build 0)  -->
<svg version="1.1" id="Layer_1" xmlns="http://www.w3.org/2000/svg" xmlns:xlink="http://www.w3.org/1999/xlink" x="0px" y="0px"
	 viewBox="0 0 1228.4 1559" style="enable-background:new 0 0 1228.4 1559;" xml:space="preserve">
<style type="text/css">
	.st0{fill:none;stroke:#000000;stroke-width:2;stroke-linecap:round;stroke-linejoin:round;}
</style>
<g>
	<path class="st0" d="M926.5,742c-0.5,2.4,0.5,4.6,1.1,6.7c2.9,11.3-3.1,21.4-3.7,32.7c4.1,1.4,7.9-1.1,11.8-2.1
		c26.1-6.4,52.1-13.5,78.3-19.4c14.7-3.3,29.6-6.1,44.6-8c9.9-1.2,19.8-2.5,29.8-3.9c9.5-1.3,19-2.2,28.4-4.6c0.2,0,0.9,0.4,1.4,0.4
		c0.4,3.5-2.1,5.9-3.4,8.6c-4.9,10-10.2,19.8-15.2,29.8c-1.6,3.2-3.6,4.1-7.2,4.5c-11.8,1.1-23.7,1.5-35.6,2.5
		c-7.7,0.7-15.4,1.4-23,2.2c-8.1,0.9-16,2.6-24,4.2c-23.1,4.8-45.6,11.8-68.2,18.7c-2.7,0.8-4.3,1.7-5.4,4.8
		c-7.8,22.5-14.8,45.3-22.7,67.8c-1.1,3-2.4,4.3-5,5.2c-13.2,5.1-26.9,8.9-40.8,11.5c-10.8,1.9-21.6,3.9-32.6,3.9
		c-3.7,0-7.1,1.7-10.5,2.9c-13.3,4.5-26.8,8-40.8,9.5c-8,0.8-14.3,5.1-21.2,8.6c-21.2,11.1-41.5,23.8-62.4,35.6
		c-27.1,15.3-55.5,27.7-84.4,39c-39.6,15.5-79.6,29.9-120,43.1c-17,5.6-34.2,10.1-51.4,14.7c-6.5,1.7-13.5,1.8-20.1,3.1
		c-9.1,1.6-18.2,2.8-27.4,3.6c-5.7,0.5-11.5,1.6-17.2,1.2c-2.7-7.4-3.9-15.2-6.7-22.6c-1.4-3.6,2.5-4,4.2-4.1
		c7.8-0.3,15.3-2.3,23-3.2c8.7-1.1,17.4-2.7,25.9-4.8c20.3-4.9,40.6-9.9,60.5-16c23.7-7.3,47.3-14.8,70.5-23.6
		c30.7-11.6,61.2-23.5,90.8-37.8c19.6-9.5,38.4-20.2,57.1-31.3c18.9-11.2,39.3-19.8,60.5-25.6c21.3-6,42.9-10,64.4-15
		c19.1-4.4,38.4-8.1,57.6-14.2c0-9,0.6-18.2-0.6-27.2c-1.3-9.8-0.8-19.7,1.6-29.3c0.5-2.1,1.7-3,4.2-3.6c6.9-1.6,14,0.5,20.7-1.7"/>
	<path class="st0" d="M210.3,569.7c0.9-1.7,1.5-3.5,3.4-5.3c2.7,2.6,5.4,5.5,9.3,7c3.5-4.9,8-8.7,12.2-13.1
		c4.5,3.6,6.6,8.6,10.4,12.6c35-18.4,69.8-37.3,103-60.3c4.9,9.6,7.7,19.7,12.5,29.4c18.5-9,37.9-15.7,58-20.2
		c3.4,13,6.9,26.2,10.1,39.3c5.5,22.7,10.6,45.5,16.4,68.1c6.2,24,13.6,47.7,21.9,71.1c5.8,16.5,12.2,32.8,18.8,48.9
		c12.5,30.6,23.9,61.7,34,93.2c9.7,29.9,19.1,59.9,29,89.7c1.2,3.7,0.2,4.4-2.6,5.4c-7.7,2.7-15.4,5.6-23.6,8.6
		c-3.2-4.2-3.9-9.8-5.7-14.9c-13.2-38.5-24.2-77.6-37.1-116.1c-7.7-23-16.2-45.7-25.2-68.3c-8.1-20.4-15.5-41-22.3-61.9
		c-10.1-31-18.9-62.4-26.9-94.1c-2.6-10.3-5.9-20.5-9.1-31.3c-9.1,2.2-17.6,6.2-26.9,8.9c1.9,8.6,4.9,16.6,7.1,24.7
		c4.8,16.7,8.8,33.7,13.6,50.4c10.6,36.8,22,73.4,35,109.5c11.5,32.2,23.1,64.4,33.6,97c8.4,25.8,16.6,51.5,25,77.3
		c3,9.3,6.4,18.6,9.8,28.4l-27.5,8.5c-1.3-1.9-2.3-4-3-6.2c-10.8-28.4-20.1-57.3-30-86c-11.2-32.2-22.8-64.2-33.4-96.5
		c-9.3-28.1-17.6-56.5-25.8-85c-8.1-28.3-14.5-57-21.9-85.5c-1-3.8-1.9-2.7-4.5-2c-5.5,1.4-10.8,3.9-16.3,4.7
		c-4.4,0.7-3.5,3.2-3.2,5.5c0.7,5.5,1.9,10.9,3,16.3c3.5,18,6.8,36,11.2,53.8c4.7,18.9,9.5,37.8,14.4,56.6c7,26.7,15.2,53,24.1,79.2
		c7.8,23.1,16.6,45.8,25.1,68.6c7.4,20,14.9,40,22.1,60c2.9,8,5.8,16,8.9,24.3c-9,2.9-18,4.8-27.5,7.3c-3-4.9-4.2-11-6.5-16.6
		c-6.5-15.9-12.6-32.1-19-48.1c-12.7-31.7-26.5-63-37-95.5c-7.9-24.5-14.9-49.3-20.9-74.3c-4.4-18-8.3-36.2-12.3-54.3
		c-4.1-18.6-6.5-37.6-7.4-56.6c-0.3-6.1-0.1-12.3-1.8-18.4c-6.3,0.6-12.2,2.6-18.2,4.1c-2.6,0.7-2.5,3.8-2.4,6.1
		c0.2,4.9-1.7,9.5-0.8,15.1c-7.1-1.1-13.4,1.6-20.6,0.5c1.1-4.4,2.1-8.5,3.1-12.6c1.8-7.2,2-14.7,1.9-22.1c-0.1-2.7,1-3.9,3.4-4.3
		c14-2.3,27.4-6.9,40.8-11.6c11-3.8,21.9-8,33.1-12.1c-3.5-8.1-5.3-16.4-9.2-24.2c-11.5,5-22.3,10.5-33.4,15.4
		c-15.8,7-32,13-48.5,18.1c-0.6,0.1-1.3,0.1-1.9,0"/>
	<path class="st0" d="M955.7,896.5c0.4,6.8,2.3,13.4,3.5,20.1c0.5,2.5,4,2.9,6.2,4.2c6.2,3.9,6,3.6,5.3,10.7
		c-1.8,16.5-5.1,32.9-6.8,49.4c-0.2,2.2-1.7,4.4-0.5,6.4c12,0.1,23.7-2.4,36-3.2c-0.4,5.7-1.1,11.3-2.1,16.9c-2,12-3.6,23.9-3.7,36
		c0,5.8-0.6,11.5-0.3,17.3c0.2,3.6-2.2,4.2-4.4,4.7c-16.1,3.7-32.3,7-48.5,10.7c-13.6,3.1-27.2,6.5-40.8,9.7
		c-12.9,3-26,5.6-38.9,8.6c-12.6,2.9-25.1,6.3-37.5,9.9c-23.7,7-46.5,16.4-70,23.7c-24.9,7.8-50.1,14.6-75.4,21.2
		c-17.5,4.6-35,9.1-52.4,14c-16.9,4.7-33.7,9.7-49.8,16.7c-17.4,7.6-33,18.9-45.7,33c-8.5,9.3-16.1,19.4-25.3,28.6
		c9.8,12.3,17.9,25.6,22.5,40.9c5-1.7,8.2-5.2,11.9-8c13.1-9.9,25.8-20.2,39.8-28.8c15.3-9.4,32-16.3,49.5-20.5
		c13-3.2,26.1-5.7,39.3-7.9c12.9-2.1,25.9-4,38.9-5.7c11.8-1.6,23.7-2.9,35.5-4.8c15.6-2.6,31.1-5.2,46.6-8.3
		c15.7-3.2,31.4-6.5,47-9.9c17.6-3.8,35-8.2,52.3-12.8c20.6-5.5,40.9-11.8,60.9-18.8c17-6,33.7-12.5,50.3-18.6
		c-1.4-12.5-2.7-24.5-4.1-37c-4.4-0.1-8.3,1.8-12,3.1c-22.7,7.7-45.8,14.2-68.8,20.8c-22,6.3-44.5,10.9-66.7,16.6
		c-18.1,4.6-36.2,9.3-54.2,14.4c-20.8,5.9-41.7,11-62.9,15.4c-16.8,3.6-33.6,6.8-50.5,10.3c-21.9,4.5-43.8,9.3-65.3,15.5
		c-28.6,8.2-53,23.4-74,44.2c-3.9,3.9-8,7.7-12,11.5"/>
	<path class="st0" d="M103.7,399.3c3.5-5.6,3.1-12.1,3.8-18.2c1.5-12,7.8-21.5,15.5-30.2c3.4-3.9,7-7.8,10.4-11.7
		c10.9-12.2,25-18.8,40.4-22.9c10.5-2.9,21.3-4,32.1-5.1c9.2-0.9,18.3-0.8,27.4-0.9c12.3-0.1,24.7-0.4,37,0.3
		c14.4,0.8,28.8,1,43.2,2c25.4,1.7,50.9,2,76.3,1.6c8.9-0.3,17.7-1.1,26.4-2.5c6.3-0.9,12.8-1.6,19.2-2.3c6.1-0.7,12.2-1.7,18.3-2.5
		c5.9-0.8,11.8-1.5,17.7-2.2c8.8-1.1,17.6-2.3,26.4-3.5c6.3-0.9,12.8-1.5,19.2-2.1c7.8-0.9,15.7-1.5,23.5-2.8
		c3.6-0.5,7.3-0.8,11-0.9c11.7-0.7,23.3-2.4,35-3.2c11.2-0.8,22.4-1.9,33.6-2.8c10.1-0.9,20.2-1.2,30.2-2c20-1.6,40-1.8,60-1.7
		c15.4,0,30.7-1.3,46.1-1.1c6.4,0.1,12.7-1.9,19.2-1.7c1.6,0,1.9-1.4,2.9-2c-0.5-1.1-0.7-2.4-1.1-3.3c-1.9-4-5.8-7.9-5.3-12
		c0.6-4.7,5.3-8.1,8.3-12c19-23.9,36.8-48.8,54.5-73.6c21.9-30.6,44.3-61,64.9-92.6c5.5-8.4,10.6-16.9,15.9-25.4
		c2-3.2,1.4-5-2.4-6.7c-10.8-4.9-21.8-9.6-32.6-14.4c-4.6-2-9.2-4-13.9-6c-9.7,22.7-22.7,43.3-34.6,64.6
		c-9.4,16.7-19.1,33.1-28.3,49.9c-8.9,16.2-17.4,32.6-25.8,49c-7.2,14-13.9,28.3-19.2,43.2c-2.2,6.3-3.2,13.1-4.9,20.2
		c-8.6-0.4-17.1-1.5-25.5-3.3c1.8-7.8,1.6-15.1,2.8-22.3c2.7-14.8,6.4-29.4,11.1-43.7c7.5-23.6,16.4-46.6,25.7-69.5
		c4.3-10.7,9.3-21.2,14.1-31.8c10.1-22,21.7-43.3,29.8-66.2c1.9-5.5,1.3-6.2-4.3-7.2c-9.1-1.7-18.2-3.5-27.4-5.2
		c-6.1-1.2-12.2-2.3-18.6-3.5c-3.2,13.4-7.9,26.3-13,39.1c-5.2,13-10.1,26.1-14.4,39.4c-5.2,15.9-10.3,31.8-14.6,47.9
		c-4.7,17.7-9.2,35.4-12.8,53.3s-6.9,35.9-7.3,54.2c-0.1,4.3-0.8,8.7-1.2,13c-9,0-17.8-0.1-26.6,0.1c-3.7,0.1-4.9-1.2-4.9-4.9
		c0.1-16.1,1.4-32,2.8-48c1.4-16.2,3.6-32.4,6-48.4c2-13.7,4.8-27.3,7.4-40.8c3.8-19.2,8.5-38.2,13.7-57.1
		c3.6-13.3,7.8-26.4,11-39.9c1-4.2,2.1-8.5,1.1-13.2c-16.1-2-32.5-1.5-48.9-2.8c-1.5,24.9-7.9,48.7-11.8,72.8
		c-2.3,14.5-4.2,29.1-6,43.6c-1.7,13.6-3,27.2-4.5,40.8c-1.1,9.8-1.6,19.8-2.1,29.7c-1.3,22.2-2.3,44.5-1.9,66.7c0,0.2-0.3,0.3-1,1
		c-4.6-0.3-9.7,0.7-14.8,0.8c-14.8,0.2-29.5,1.8-44.2,2.8c-8.8,0.6-17.6,1.5-26.4,2.3c-10.4,0.9-20.9,1.9-31.2,3.5
		c-5.8,0.9-11.8,1.3-17.7,2.1c-8.4,1.1-16.7,2.5-25,3.6c-7.2,1-14.4,2.1-21.6,3.1c-7.7,1.2-15.4,2.5-23.1,3.6
		c-8,1.1-15.9,2.6-24,3.2c-6.9,0.5-13.8,1.5-20.6,2.4c-0.6,0.1-1.3,0.3-1.9,0.4c-22.5,1.3-45.1,1.3-67.7,0.8
		c-7.3-0.2-14.8-0.2-22.1-0.8c-14.9-1.3-29.8-0.9-44.6-2.1c-12.9-1.1-25.6,0.4-38.4,0.6c-14.3,0.2-28.6,2.4-41.7,8.5
		c-6.9,3.3-13.8,7.1-18.8,13.3c-1.7,2.1-3.3,4.1-5.6,5.3c-1.8-0.4-2.4-1.9-3-3c-1.3-2.1-2.9-1.8-4.4-0.9c-4.8,3.2-9.5,6.4-10.2,12.9
		c0,0.4-0.6,0.6-0.9,1"/>
	<path class="st0" d="M281.3,659.4c0.8,12.9,2.4,25.7,4.9,38.4c2.3,13,5,25.9,7.6,38.9c4.1,20.5,8.9,40.8,14.5,60.9
		c5.6,20.7,12.3,41.1,20.1,61c5.1,12.8,10.6,25.4,16.3,37.9c8.3,18.4,16.3,37,24,55.7c7.6,18.5,14.6,37.2,21.1,56.2
		c0.9,2.5,2,2.9,5.3,2.2c19.2-4,38.1-8.9,57-13.8c14.7-3.8,29.2-7.9,43.7-12.5c39.8-12.6,78.9-27.4,117.1-44.2
		c23.7-10.5,46.1-23.5,68.3-36.8c13.2-7.9,26.3-16.1,41.2-20.9c10.6-3.4,21.5-5.2,32.2-7.4c10.2-2.1,20.4-4.3,30.7-6
		c11.8-2,23.4-5,35.1-7.5c13.1-2.9,26.2-5.9,39.4-8.5c3.2-0.6,3.2-2.2,2.8-4.4c-2.2-12.2-3-24.6-2.3-37c0.5-7.2,2.7-14.2,4.7-21.1"
		/>
	<path class="st0" d="M632.2,464.5l-10.7,2c-1.5-23.5-4.9-46.8-8.1-70.3c10.9-1.4,21.4-2.5,31.7-4.2s20.5-3,30.8-4.5
		c6.5-1,13.1-1.6,19.6-2.3c7.2-0.8,14.5-1.3,21.6-2.6c4.7-0.9,9.6-0.6,14.4-0.8c6.9-0.3,13.7-1.3,20.6-1.3c20.8-0.1,41.6-1,62.4-1.1
		c8.6,0,17.3-2.2,25.9-3.1c13.6-1.4,25-8.8,37.4-13.6c11.2-4.3,21-11.5,31.2-17.8c37.2-23.2,72.8-48.8,106.7-76.6
		c18.8-15.6,37.6-31.1,55.1-48.1c4.4-4.3,8.8-8.6,12.1-14.1l-33-44.1c-7.4,9.6-15.5,18.6-24.2,27.1c-31.1,30.4-63.8,59.1-97.9,85.9
		c-20.5,16-41.5,31.3-63.9,44.5c-11.4,6.7-23.3,13.4-36.4,16.4c-11.6,2.6-23,5.7-35,6.6c-12.8,1-25.7,2-38.4,3.4
		c-5.5,0.6-11.2,0.7-16.8,1.1c-12,0.8-24,1.4-36,2.7c-4.6,0.5-9.3,0.8-13.9,1.1c-8.7,0.6-17.3,1.5-25.9,2.7c-3.9,0.6-8,0.7-12,1.1
		c-7.7,0.7-15.4,1.9-23.1,2.7c-6.6,0.7-13.1,1.4-19.7,2.2c-6.6,0.8-13.2,1.7-19.7,2.5c-6.2,0.8-12.4,1.6-18.7,2.2
		c-8.3,0.8-16.7,1.7-25,2.7c-3.8,0.5-7.7,0.8-11.5,1.1c-8.7,0.7-17.3,1.4-25.9,2.8c-3.6,0.6-7.3,0.5-11,0.9
		c-11.8,1.4-23.6,2.7-35.5,3.8c-8.1,0.7-16.3,1.6-24.4,2.4c-8.8,0.8-17.7,1.2-26.4,2.5c-5.6,0.8-11.5,0.1-17.3,0.1H374
		c-1.8,11-3.6,21.6-5.2,32.2c-0.4,2.6,0,4.5,3.8,3.9c8.4-1.3,17-0.3,25.4-0.6c3.2-0.1,4.3,1.2,4.4,4.3c0.3,10.1,0.7,20.2,1,30.2
		c0.2,5.1,1.8,10.2,2.7,15.4c1.2,6.6,2.5,13.1,3.9,20.6c-10.6,4.1-22.1,6.3-33.3,9.7c-5.1-12.4-10.3-24.8-15.9-38.4
		c-35.7,34.7-75.6,62.8-115.4,91.1"/>
	<path class="st0" d="M500.7,335.4c8.5-0.3,17-1.9,25.5-2.7c6.6-0.7,13.1-1.4,19.7-2.1c7.8-0.9,15.7-1.6,23.5-2.7
		c3.6-0.5,7.3-0.9,11-1.1c8-0.6,16-1.6,24-2.8c3.8-0.6,7.7-0.5,11.5-0.9c13.4-1.6,26.8-3.1,40.3-3.8c6.1-0.3,12.2-0.8,18.2-1.3
		c12.3-1,24.7-0.8,37-2.7c0.8-0.1,1.6-0.1,2.4,0c14.5-0.1,28.8-1.8,43.2-2.7c11.2-0.7,22.4-1.9,33-4.4c14.2-3.4,28.2-8.4,41-16.2
		c19.2-11.8,36.6-25.9,53.7-40.5c31.1-26.7,60.3-55.5,88.3-85.4c12-12.8,24-25.7,34.5-39.9c3.4-4.6,3.4-4.6-1-8.2
		c-13.2-10.7-26.4-21.3-39.7-32c-6.4,11-14.2,20.7-21.7,30.5c-21.4,28.1-44.5,54.8-68.1,81.1c-18.6,20.7-37.7,41-58.5,59.5
		c-6.3,5.6-13.4,10.3-20.1,15.4"/>
	<path class="st0" d="M579.9,1426.5c-2.4,5-2,10.7-3.8,15.9c-0.4,1.1,0,2.2,0.9,2.9c6.9,5.8,13.9,12.2,23.1,13.1
		c7.7,0.7,16.1,2.2,23.5-2.6c1.2-0.8,2.7-1.1,3.8-2c7.3-5.5,15.3-4,23-1.8c8.9,2.5,17.9,3.3,26.9,4.7c25.7,4.1,51.5,3,77.3,2.6
		c11.8-0.2,23.7-1.1,35.5-2.4c8.7-0.9,17.2-2.2,25.9-3.2c8.9-1.1,17.6-3.1,26.4-4.9c17.5-3.7,34.9-8.1,52.3-12.3
		c17.1-4.1,34.2-8.7,51.4-12.3c8.6-1.8,17.2-3.6,25.9-4.9c1.6-0.2,2.3-1.2,3.3-1.9c-2.9-7.7-5.7-15.4-8.6-23.1
		c-1-2.6-1.7-4.1-5.8-3.1c-19.7,4.8-39.3,9.8-59,14.4c-18.1,4.3-36.2,8.7-54.7,11.8c-13.1,2.2-26.1,4.4-39.4,5.8
		c-8.3,0.8-16.7,1.2-25,2c-17.1,1.6-34.3,0.8-51.4,0.6c-12.7-0.1-25.3-1.4-37.9-2.8c-10.8-1-21.5-2.6-32.1-4.9
		c-9.8-2.2-19.5-4.9-27.5-11.8c-4.7-4-9.8-7.5-14.8-11.1c-5.9-4.2-12.3-6-19.7-4c-2.7,0.7-5.8-0.3-8.6,0.2
		c-3.7,0.8-7.3,2.2-10.6,4.2"/>
	<path class="st0" d="M941.8,945c-14.9,6.5-30.1,12.1-46.1,15.4c-11.1,2.3-22.3,4.1-33.6,3.7c-7.1-0.1-14.2-1.1-21.1-2.7
		c-2-0.4-4,0-5.7,1c-5.4,2.6-11.1,4.4-16.3,7.2c-4.9,2.7-10.3,2.5-15.4,3c-4,0.4-7.9,1.6-12,1.2c-2-0.2-3.1,1.2-4.3,2.4
		c-28.2,28.4-63,46.7-98.9,62.7c-26.8,12-55,20.2-83,28.8c-40.4,12.4-79.3,28.5-118,45.2c-2.9,1.2-5.7,2.9-8.7,3.8
		c-5.5,1.5-8.2,5.5-10,10.2c-9.2,23.8-21.3,45.8-38.4,64.8c-7.8,8.7-17,15.9-27.4,21.3c-0.9,0.5-1.9,0.8-2.9,0.9
		c-8.6,0-17.3,0-25.9,0c-1.3,0-2.2-0.8-3.4-1"/>
	<path class="st0" d="M937.5,989.2c-13.1,2.9-26.2,5.8-39.4,8.6c-11.7,2.5-23.6,3.6-35.5,4.8c-21.6,2.3-42.8,6.4-62.8,14.9
		c-10.1,4.3-19.5,10-28.8,15.7c-32.6,19.9-67.4,35.3-103.7,47c-23.6,7.6-47.3,14.8-71,22.1c-22,6.8-43.6,14.9-64.7,24.2
		c-17.2,7.6-31.8,19.1-42.4,35.2c-7,10.7-14.5,21.1-22.5,31.3c-6.6,8.4-14.6,15.5-22.6,22.5c-1.9,1.7-4.2,2-6.7,2
		c-9.3-0.1-18.6-0.8-27.9-1.9c-3.2-0.4-6.4,0.6-9.6,1.1c-10.8,1.7-21.8,2.6-32.6,3.8c-4.5,0.5-9.4-0.2-13.5,2.7"/>
	<path class="st0" d="M334.1,196.2c4.4-4.1,8.8-8.2,13.2-12.4c6.5,8,6.5,17.2,6,25.9c2.9,2.1,5.2,0.2,7.2-0.3
		c2.4-0.7,4.9-1.4,7.3-2.1c20.7-6.6,41.4-13.5,62.4-19.2c18.2-4.9,36.6-9.4,55.1-13.2c14.4-2.9,28.8-5,43.3-7.3
		c7.1-1.1,14.4-1.5,21.6-2.2c14.2-1.4,28.4-2.7,42.7-2.9c2.5,0,5.1-0.9,7.9-0.8c0.7-9.8,1.7-19,1-28.8c-8.6-0.4-17,0.7-25.2,1.2
		c-5.7,0.4-11.5,0.2-17.3,1.4c-7.7,1.6-15.7,2.2-23.5,2.9c-9.7,0.8-19.2,2.9-28.8,4.2c-10,1.4-19.9,4.3-29.8,6.4
		c-21.6,4.5-42.6,11.2-63.3,18.6c-14,5-27.6,10.8-40.8,17.6c-0.9,0.5-1.6,0.2-2.6,0.5c-2.4-4.7-2.6-10.1-5-15.6
		c61.3-38.9,129.6-54.3,200.8-61.6V84.8c-5.7,0.7-11.2,1.3-16.5,2.2c-5.8,0.9-11.6,1.8-17.3,2.5c-8.2,1-16.3,2.7-24.4,4.2
		c-13.9,2.7-27.7,6.1-41.3,10.3c-15.5,4.6-30.7,10-45.7,16.2c-14,5.9-27.6,12.8-40.6,20.5c-11.8,7-23,15.2-33.3,24.3
		c-7.6,6.6-14.6,13.9-21,21.7c-2.6,3.2-4.9,3.1-8.3,1.4c-12.5-6.2-26.2-9.1-39.8-10.9c-12.2-1.6-24.5-2.7-36.9-2.2
		c-7.6,0.3-15.2-0.2-22.6-1.7c-3.5-0.7-7,0.8-9.1,3.6"/>
	<path class="st0" d="M154.1,594.1c2.4-0.8,4.8-1.8,7.2-2.3c1.6-0.4,3.4-1.4,4.8,0.4"/>
	<path class="st0" d="M171.4,611.9c7,1.3,13.7,3.5,19.1,8.2c6.5,5.7,12.2,12.1,14.9,20.6c0.6,1.4,1.5,2.7,2.7,3.7
		c12.9-11.5,23.7-24.2,25.2-42.5c0.4-5.3,0.4-10.8-2.2-15.2c-2.6-4.6-1.5-6.5,2.6-8.3c0.5-0.2,0.7-1.1,1.4-1
		c4.5,4.3,5.8,7.6,9.1,24.5c0.2,0.2,0.3,0.4,0.5,0.5c3.2,0.5,7.5-1.7,9.3,1.2c1.5,2.3,0.6,6.2,0.2,9.4c-1,9.3-3.2,18.3-8.1,26.4
		c-2,3.4-4.1,6.8-6.4,10.4c2.1,3.2,4.8,6,7.9,8.2c4.8,3.7,5.9,8.7,6.6,14c2.6,18.1,4.7,36.2,7.8,54.2c4.2,24.3,8.7,48.5,14.7,72.5
		c5,20,10.3,39.8,17.8,59c7.1,18.1,16,35.4,24.4,52.8c12.8,26.5,25.4,53,35.6,80.6c2.7,7.3,5,14.8,7.8,22c0.5,1.2,0.1,2.3,0.5,3.6
		c-8.6,1.7-17.3,2.9-26,4.2c-11.8,1.8-23.7,2.1-35.5,3.7c-1.1,0.1-2.2,0.1-3.4,0c-16.6,0-33.3,0.6-49.9-0.2c-12-0.6-24.1-0.9-36-2.5
		c-4.5-0.6-9.2-1.8-13.9-1.1c-1.3,2.9,0.3,5.7,0.5,8.6c0.1,2,1.7,2.4,2.9,2.8c9.6,2.9,19.4,5.1,29.3,6.8c9.8,1.5,19.5,3.6,29.3,4.6
		c7,0.7,14,1.6,21.1,2.1c15.8,1.2,31.7,0.7,47.5,1c4.2,0.1,8.3-1,12.5-1.1c3.2,0,4.8,0.1,5.6,4.3c1.2,6.1,2.4,12.4,4.5,18.3
		c0.2,0.7-0.8,1.1-0.1,2.4c-52.3-0.6-103.2-6.6-151.5-27.6c-1.9,4.2-1.5,8.6-2.9,12.7c-5.7,17.4-17.9,29.6-33.2,38.8
		c-4.7,2.8-9.1,6.1-14,8.9c5.7,13.9,14.1,26.1,24.2,37.3c14.1,15.5,30.9,28.5,49.4,38.4c13.3,7.2,27.6,11.9,42.3,15.2
		c11.2,2.7,22.6,4.7,34,6.1c6.4,0.7,13.1,0.6,19.2,3.1c0.4,0.2,1-0.3,1.4-0.4"/>
	<path class="st0" d="M1164.5,419.4c2.2,5.5,1.9,11.5,2.8,17.3c1.8,11.3,2.9,22.7,4.5,34.1c0.5,3.7-0.1,6.2-3.3,8.8
		c-6.8,5.4-14,10.2-21.7,14.3c-28.8,15.3-59.1,27.1-89.3,39.3c-34.6,14-69.1,27.9-104.6,39.5c-3.1,1-4.6,3-4.4,6.7
		c0.5,10.7,0.4,21.4,0.6,32.2c0,1.6,0,3.2,1.5,4.4c31.9-9.8,63.8-19.8,95.5-30.6c31.7-10.8,63.8-20.6,95-32.8
		c9.9-3.9,19.5-8.3,28.3-14.5c0.9-0.6,1.9-1,2.9-1.4"/>
	<path class="st0" d="M1133.8,305.2c-0.1,3.8,2.4,6.7,3.4,10c4.4,13.8,9.1,27.6,13.9,41.3c1.2,3.5-0.4,5.5-2.5,7.7
		c-7.8,8.2-16.7,15.1-25.9,21.6c-33.6,23.5-69.4,43.2-105.6,62.4c-36,19.1-72.5,37-109.9,53.3c-3.6,1.5-4,3.8-3.1,7.7
		c2.4,10.7,4.4,21.4,6.9,32.1c0.2,0.7,0.7,0.9,1,1.4c42.2-13.4,82.4-31.7,122.4-50.4c30.7-14.3,61.3-28.7,90.7-45.7
		c13.5-7.8,27-15.8,38-27.2c1-1,1.1-2.1,1.8-3"/>
	<path class="st0" d="M954.8,898.5c-4.1,1.9-7.4,5.1-11,7.7c-12.3,8.8-26,14.2-40.3,18.8c-11.9,3.7-24.1,6.2-36.5,7.3
		c-10.1,1-20.7,1.8-30.2-3.7c-2.2-1.2-3.5-1.2-4.8,0.6c-6,7.7-15.1,10.7-23.6,12.5c-8.7,1.9-18.5,4.5-27.4-2.2
		c-6.6,13.3-17.9,20.9-29.2,28.5c-20.6,14.1-42.3,26.6-64.7,37.5c-21.7,10.5-44.1,18.8-66.8,26.8c-35.1,12.4-70.3,24.4-105.1,37.5
		c-18.4,6.9-36.9,13.7-56.1,18.4c-5.4,1.2-10.9,2.1-16.4,2.6c-6.4,0.7-12.7,2.2-19.2,2.1c-2.8,0-2.9,1.7-2.4,3.8
		c1.4,5.8,2.5,11.7,4.4,17.2s0.1,11.3-0.3,16.8c-1.1,14.2-7.5,26.7-14.3,38.9c-7,12.6-16.3,23.9-27.4,33.1c-5,4.3-10.5,8-16.3,11.1"
		/>
	<path class="st0" d="M977.8,1024.7c-6.6,1-13.2,1.7-19.7,2.7c-4.9,0.8-9.9,1.5-14.9,2c-9.6,1-18.9,3.5-28.3,5.4
		c-12.2,2.4-24.2,5.3-36.5,7.2c-33.8,5.2-66.5,13.7-97.5,28.7c-32.2,15.6-65.6,28-99.8,38.4c-25.9,7.9-51.8,15.3-77.8,23.1
		c-16.6,4.8-33,10.6-48.9,17.4c-23.5,10.3-40.8,28-55.3,48.8c-6.8,9.7-14.2,18.9-23.8,26.4l19.6,15.4c-0.8,3.7-3.8,1.6-5.4,2.9"/>
	<path class="st0" d="M1021.5,1204.7c-5.1,1.5-8.3,5.9-12.9,8.2c-22,11.1-44.8,20.8-68.2,28.8c-22.9,7.9-45.9,15-69.6,20.1
		c-10.8,2.3-21.7,4.2-32.6,5.8c-9.9,1.5-19.8,2.8-29.8,3.8c-11.2,1.2-22.4,2.2-33.6,2.9c-30.7,2.1-61.5,1.3-92.2,2
		c-11.3,0.2-22.8,1.1-34.1,2.5c-8,1-16,1.7-24,3c-14,2.3-27.1,7-39.8,13c-15.5,7.4-29.6,17.2-44.7,25.4c-6,3.3-12.1,6.3-19.2,6.3"/>
	<path class="st0" d="M1005.7,1259.4c-11.9,4.9-23.5,10.8-35.5,15.4c-26.5,10.1-53.6,18.6-81.2,25.4c-12.7,3.2-25.5,5.7-38.4,7.5
		c-8.9,1.3-17.8,2.5-26.8,3.3c-14.7,1.3-29.5,1.7-44.2,3c-17.7,1.6-35.2-0.3-52.8-0.6c-13.9-0.2-27.9-0.9-41.8-1.9
		c-15.1-1-30.1-0.4-45.1-0.7c-27.3-0.5-52.5,6.5-75.4,21.5c-8.6,5.6-17.2,11.4-26.8,15.5c-3.6,1.7-7.6,2.5-11.5,2.3"/>
	<path class="st0" d="M472.9,409.3c-9.2,0.3-18.3,1.2-27.4,2.8c-2.4,0.4-4.8,0-7.5,0c-0.6,4.7,0.6,8.9,1,13
		c1.3,14.8,3.2,29.5,5.4,44.2c3,21.1,7.4,41.9,11,62.8c3.7,21.9,8.3,43.6,12.9,65.3c3.4,16.4,6.7,32.8,11.1,48.9
		c6.9,25,14.5,49.8,24.3,74c10.9,27.1,22.4,54,33,81.2c5.2,13.4,10,27,14.5,40.8c0.2,0.7,0.7,0.9,1,1.4"/>
	<path class="st0" d="M1171.7,1503.3c-6.4,1-12.8,0.2-19.2,0.5c-1.5,0.1-2.4-1.1-3.3-1.9c-17.9-16-35.8-32-52.8-49
		c-18.1-18.3-34.7-38-47.6-60.2c-7.8-13.4-14.9-27.7-19.2-43c-1.4-5.1-3.6-9.9-5.1-14.9c-0.4-1.4-1.4-1.9-2.2-3.2
		c-11.2,6.7-23.3,11.7-35.3,16.6c-14.6,5.7-29.5,10.5-44.7,14.4c-20.1,5.3-40.2,10.8-60.5,15.2c-10.8,2.3-21.6,4.5-32.6,6.1
		c-12.5,1.9-24.9,3.3-37.4,4.8c-24.3,2.9-48.7,1.8-73,1.5c-11.5-0.2-23.1-1.9-34.6-3.3c-9.1-1.1-18.2-2.3-27.3-3.3
		c-18.1-2-35.4-7-52.4-13.7c-16-6.3-31.6-3.8-46.5,4.2c-1.8,0.9-2.9,2.6-4.3,3.9c-4,3.7-7.4,8-12.1,11.5c-3.1-7.7-3.1-15.9-6.2-23.6
		c-5.4,2.9-10.3,5.7-15.3,8.2c-5.8,3-9.5,0.8-11.1-5.7c-3-12.3-5.8-24.6-8.3-37c-1.8-9-5.3-17.9-5.1-27.2c10.7,0.3,18-6.8,27.3-11.3
		c-5-4.4-10.7-6.3-15.8-7.6c-7.6-2-10.1-7.1-12.4-13.3c-1.3-3.5-2.2-7.2-4.7-10.1c-3,0-5.4,2-8.3,2.4"/>
	<path class="st0" d="M1014.8,1163.9c-10.6,7.7-22.7,12.2-34.5,17.4c-18.4,8.1-37.2,15.1-56.2,21.5c-21.9,7.4-44.2,13.6-66.7,18.6
		c-14.7,3.2-29.6,5.8-44.6,7.9c-11.5,1.7-23,3.4-34.6,4.8c-12.9,1.6-25.9,2.9-38.9,3.8c-13.8,0.9-27.5,1.9-41.3,2.9
		c-9.8,0.7-19.6,1.4-29.3,2.9c-21.1,3.1-42.3,5.6-62.5,13.2c-14,5.3-27.1,12.4-39.8,20.3c-3.9,2.4-8.1,4.5-11.6,7.6"/>
	<path class="st0" d="M1012.9,1297.3c-11.5,5.1-22.8,10.8-34.5,15.5c-15.8,6.3-31.9,11.3-48,16.2c-17.1,5.2-34.5,9.4-51.9,13.2
		c-9.9,2.2-20,3.8-30.2,5.3c-12.2,1.8-24.3,3.2-36.5,4.3c-7.6,0.8-15.3,1.2-23,1.3c-12-0.2-24,0.1-36-0.1c-12.4-0.2-24.7-1.7-37-2.7
		c-8.3-0.7-16.6-1.4-24.9-2.3c-8.8-0.9-17.6-1.3-26.4-2.6c-5.7-0.8-11.5-1.3-17.3-1.9c-10.4-1.1-20.6-3.3-31.2-3.1
		c-18,0.2-34.2,5.4-48.5,16.4c-0.7,0.7-1.5,1.1-2.4,1.4"/>
	<path class="st0" d="M147.9,1053c2.5,3.3,3.2,7.6,6.2,10.6c8.6-5.6,16.1-12.8,22.1-21.1c7.2-10,8.2-21,5.8-32.7
		c-1.8-8.6-4.9-16.8-9.2-24.5c19.9-19.7,43.3-33.5,67.7-46.2c15.5-7.9,31.8-14.1,48.5-18.6c2.6-0.7,4.4-0.7,5.8,2
		c3.9,7.5,7.9,14.9,12.3,23c-43.5,11.7-86.1,24.5-125.5,45.1c-0.1,2.3,1.2,3.4,1.9,4.8s1.1,2.9,1.7,4.4
		c44.4-10.7,89-18.8,133.9-28.9c4.2,7.3,6.6,15.7,10.4,23.7c-1.7,4-6,2.5-8.7,2.9c-9.9,1.5-19.8,3-29.7,4.3
		c-10.5,1.4-21.2,1.8-31.7,3.6c-3.8,0.5-7.7,0.8-11.5,0.8c-7.1,0.2-14.1,1.1-21.1,1.4c-12.6,0.5-25.2,2.1-38.7,1.7
		c9.9,35.5-6.9,57.5-36,73.8c-1.3-5-5.3-8.6-6-13.8"/>
	<path class="st0" d="M242.5,615.7c-3.3,12.9-10.7,24.4-21,32.8c4.6,10.4,7.8,21.3,9.5,32.5c1.5,10.5,2.2,21.1,3.3,31.7
		c1.1,10.4,1.6,20.8,3,31.2c1.9,14.6,4.1,29.2,6.7,43.7s5.9,28.8,9.2,43.2c0.2,1-0.7,1.6-0.1,2.4c-2.3,0.7-4.8,0.8-7.2,0.5
		c-6.3-0.5-12.5,0.9-18.7,1.1c-2.7,0.1-4-1-4.3-3.4c-2.6-20.2-5.9-40.2-7.9-60.5c-2.2-21.7-3-43.5-2.6-65.3
		c0.2-10.1,0.3-20.2,0.4-30.2c0.1-6-1.2-11.8-1.5-17.8"/>
	<path class="st0" d="M990.8,1390c-1.3,1.8-1,3.8-1,5.8c0,14.7-0.1,29.4,0.1,44.2c0,3.7-1.3,4.8-4.9,5.4
		c-12.2,1.9-24.4,4.1-36.5,6.4c-14.3,2.7-28.5,5.7-42.7,8.8c-14.8,3.3-29.5,7.3-44.2,11.1c-18.2,4.6-36.2,9.7-54.7,13
		c-11.9,2.1-24,3.4-36,5c-25.2,3.2-50.6,3-75.9,2.5c-10.3-0.2-20.6-1.4-30.8-3.5c-3.7-0.8-7.7-0.6-11.5-0.9
		c-9.6-0.9-19.2-1-28.8-0.5c-14.5,0.7-29-2.2-42.2-8.4c-5.6-2.6-11.6-3.6-17.4-5.5c-3.5-1.1-6.2-3.5-9.5-4.5"/>
	<path class="st0" d="M214.1,173.2c1-5,5.7-7.2,8.3-10.9c3.8-5.3,8.8-9.8,12.8-15c2.2-2.9,7.3-3.1,9.5,0c4,5.8,9.6,6.8,15.9,6.7
		c8.2-0.1,16.3,0.3,24.5-0.1c14.2-0.7,27.1,2.8,39.4,9.7c0.2,0.1,0.6,0,1.4,0c4.8-2.9,8.6-7.5,12.9-11.6
		c15.7-15,33.5-26.9,52.4-37.3c19.2-10.4,39.3-19.1,60-25.9c16.3-5.6,33-10.1,49.9-13.5c7.8-1.4,15.7-3.2,23.5-4.7
		c2.4-0.5,3.8-1.7,3.4-4.3c-2.3-15.5-3.3-31.2-8.6-46.1c-0.5-1.4-1.1-2.6-1.9-3.9c-1.7-2.6-3.1-3.5-6.8-2.6
		c-13.2,3-26.7,5.2-39.8,8.8c-1.3,0.2-2.6,0.2-3.8,0"/>
	<path class="st0" d="M212.7,225c5.8,0.7,11.4-0.5,17.4,1.5c4.5,1.6,5.4,4.7,7.4,7.5c1.4-0.5,2.9-0.6,4-1.4c7.2-5.6,15.8-5.7,24-5.4
		c8.1,0.2,16.1,1,24.1,2.3c6.4,1.2,13.2,1.1,19.6,2.4c7,1.3,14.1,0.7,21.2,1.4c6.5,0.7,13.5,0,20.1-0.9c7-0.9,14.2-1.9,21.2-3.5
		c12.3-2.8,24.7-4.8,36.9-7.9c13.7-3.4,27.5-6.5,41.3-9.4c16.3-3.4,32.6-6.9,49-9.5c7.9-1.2,16-2.1,24-3.2
		c10.4-1.5,20.8-2.2,31.2-3.5c4.7-0.6,9.5-1,14.4-1.3c9.3-0.4,18.6-0.3,27.8-1.8c2-0.3,3.5,0.1,3.4,2.9c-0.1,9.8,0,19.5-0.9,29.7
		c-6,0.1-11.9,0.4-17.8,0.8c-11.7,0.7-23.4,1.8-35,2.9c-7.5,0.7-15.1,1.2-22.5,2.2c-10.6,1.5-21.2,2.5-31.7,4.4
		c-6.8,1.3-13.7,2.1-20.6,3.2c-8.2,1.2-16.3,2.8-24.5,4.3c-8,1.4-16,2.8-24,4.3c-10.5,2.1-21.2,3.6-31.7,5.5
		c-5.6,1-11.5,1.3-17.2,2.2c-13.7,2.2-27.6,2.2-41.3,2.4c-8.8,0.2-18,0.4-26.9-1.4c-4.4-0.9-9-0.5-13.4-0.9
		c-18.5-1.5-37.1-3-55.6-1.9c-5,0.3-10,1.4-14.9,0.6c-5-0.8-10-0.5-14.9-0.8c-8.4-0.4-16.3,1.9-24,4.8"/>
	<path class="st0" d="M552.1,1460.1c2.5,9.1,3,18.7,5.2,27.9c1.5,6,5.2,10,10.2,12.9c13.9,8,29.1,12.8,44.7,16.1
		c6.6,1.3,13.4,1.9,20.1,2c10.8,0.3,21.5,1.9,32.2,2.8c8.9,0.8,17.9,1.8,26.8,2.3c10,0.6,19.9,0.9,29.8,0.6
		c11.2-0.3,22.4-1.3,33.6-2.5c10.6-1.1,21.2-2.5,31.6-4.3c14.3-2.5,28.4-5.8,42.3-9.8c21.7-6.1,42.9-13.5,64.8-18.9
		c5.3-1.3,10.4-3.4,16.1-4.2c3.7,6.9,5.4,14.7,8.7,22.2c-3.3,2.9-7.5,2.9-11.3,4.1c-22.3,7.3-44.5,14.8-66.7,22
		c-20.6,6.7-41.5,12.6-62.8,16.5c-12,2.2-23.9,4.3-36,5.9c-2.4,0.3-5.9-0.9-7.7,2.1"/>
	<path class="st0" d="M476.7,442.5c1.5,14.9,3.6,29.8,5.1,44.7c1.8,16.8,3.9,33.6,6.1,50.4c2.4,18,5.3,35.9,8.3,53.8
		c2.9,17,6,34,9.8,50.8c6.2,27.6,13.6,54.9,24.4,81.2c7.2,17.6,15.2,34.8,22.7,52.3c5.1,11.9,10.4,23.8,15.6,35.6
		c7.7-2.9,15-6.2,22.6-8.6c11.1,22.2,21.1,45,29.8,68.3c-7.9,4.6-16.2,8.2-24.7,12.8c-6.8-16.4-11.7-33.3-18.8-49.1
		c-8.3,3.3-16.1,6.5-24,9.7c-0.8,0.3-1.3,0.6-1.4,1.5"/>
	<path class="st0" d="M173.8,618.1c1.8-0.1,3.5,0.8,4.3,2.4c3.8,6.6,10.5,10.8,14.4,17.2c6.6,10.7,9,22.1,8.2,34.6
		c-1.1,17.2-5.1,33.9-6.7,50.9c-1.7,17.9-2.3,35.8-1.8,53.7c0.8,23.9,4.5,47.6,3.6,71.5c-0.4,9.8-3.6,18.7-7.4,27.3
		c-6.8,15.1-14.9,29.6-19.6,45.7s-9.9,31.7-14.7,47.6c-2.1,6.9-2,14.3-1.5,21.5c0.3,4.2,2.6,8,6.2,10.1"/>
	<path class="st0" d="M170.9,631.6c4.5,4.4,9.9,7.8,13.6,13.3c7.4,10.8,8.4,22.2,6.7,34.7c-2.1,16-7.6,31.2-10.9,47
		c-3,13.8-5,27.7-6,41.8c-1.1,14.4-1.4,28.8-0.9,43.2c1,23.1-2.2,45.5-8.3,67.7c-3.7,13.5-5.9,27.4-7.7,41.3
		c-1.6,11.5-4,22.9-7.1,34.1c-2.1,7.7-1.8,15.7-2.3,23.5c-0.1,2.3,0.3,5.5,3.7,6.2"/>
	<path class="st0" d="M936.5,725.2h-25.7c-6.4,20.3-8.2,41.8-15.5,62c-17.4-5.2-34.2-11.9-51.4-17c-2-0.6-3.4-1.8-2.2-5.3
		c6.8-19.6,12-39.6,15.5-60c-0.9-1.5-2.5-1-3.8-0.8c-8.5,0.9-17.1,0.5-25.5,2.8c-2,0.6-4.1-0.2-6.3,0.8c-2.8,1.4-5,2.8-5.7,5.9
		c-1.2,5-3,5.9-8.2,4.3c-5.6-1.8-10.9-4.4-15.8-7.7c-3.9-2.5-7.6-5.2-11.5-7.6c-4.1-2.3-6.5-6.8-6.2-11.6c-4.4,1.8-8.1,4.4-12.5,3.3
		c-4.5-1-8.9-2.6-13-4.6c-5.6-2.7-11.6-4.6-17.7-5.8c-1.2-0.4-2.6-0.2-3.6,0.6c-2.1-4.1,0.2-7.8,0.5-11.7c0.2-2.3,3.3-3.3,6-3.4
		c5.9-0.2,11.9,0.7,17.8-0.9c2.3-0.6,4.7,0.4,6.7,1.5c5.5,2.9,11.6,4.3,17.8,4c10.5-0.4,18.8,4.3,27.3,8.9c7.5,4,15.4,7.2,23.6,9.5
		c2.2,0.7,4.6,0.5,5.8-2.8c3.7-9.5,7.9-18.9,11.9-28.7c-2-3.1-5.4-1.5-8.2-2.2c-7.9-1.9-15.8-4-23.6-6.5c-11.2-3.6-23-2.2-34.5-1.5
		c-7.8,0.5-15.3,0.2-22.7-4.8c-4.8,6.8-12,7.4-19.6,7.2c-2.5-0.1-4.8,1.2-7.6,2c-1.8-4.2-1.8-8.8-3-13.1c-0.6-2.2,1.5-3,2.4-3.2
		c3.3-0.7,6.5-2,10-2.1c4.8-0.1,9.6-0.5,13.9-2.9s9-2,13.5-2.7c10.5-1.7,21.1-3.1,31.7-4.8c10.9-1.8,22-3.4,33.1-1.8
		c7.9,1.1,15.7,0.1,23.9,1c-0.1-10.3,1.6-19.9,0.9-30.1c-5.7,0.5-11,1.2-16.1,2.2c-17.4,3.2-34.8,7.4-52.3,11.2
		c-13.4,3-26.7,6.5-39.8,10.6c-6.6,2.1-13.5,3-20.2,4.7c-3,0.7-5.9,1.9-8.6,3.4c-4.5,2.7-9.9,3.3-15.7,1.3c0.2-2.5,2.3-4,3.5-6.2
		c-8.6-5.6-18-8-27.6-10c-10.8-2.3-21.7-1.8-32.7-1.9c-6.1-0.2-11.9,2.6-15.5,7.6c6,3.3,12.2,6,19.3,5.8c5.9-0.1,11.8,0,17.8,0
		c6.5,0,12.7,1.9,19.2,2c1.2,0.1,2,1.1,1.9,2.3c0,0,0,0,0,0.1c-2.1,2.7-4.6,5.5-6.7,8.7c-0.8,1.4-2.4,1.9-3.9,1.3
		c-5-1.9-10.2-2-15.4-1.8c-9.1,0.5-18.1-2.2-25.5-7.7c-4.2-3-8.8-5.6-12.9-8.7c-5-3.9-10.8-5.3-16.8-6.2c-8.9-1.3-17.2-5-25.9-7.2"
		/>
	<path class="st0" d="M171.9,998.8c0,8.8-4.1,17.1-11.1,22.6c-2.2-1.9-2.7-4.9-4.4-7.1c-1.6-2.2-3.5-4.2-5.5-6
		c-5.2-4.3-8.8-10.1-7.9-17.6c0.2-1.5,0.1-3.3-1-4.2c-5.2-4.6-5.2-10.9-5.6-16.9c-0.6-8.5,0.4-17,1.3-25.4c1.8-16.4,4-32.8,4.4-49.4
		c0.5-19.5,0.9-39.1,2.7-58.6c1.2-13.5,2.6-26.9,4.1-40.3c3.1-29,9.7-57.2,21.4-84c3.1-7.3,5.6-14.8,7.4-22.5
		c2.9-12.6-0.5-23.5-7.8-33.6c-1.5-2.1-2.1-5.1-5.2-5.8"/>
	<path class="st0" d="M863.6,644.5c15.7,6.4,31.7,11.8,47.5,17.7c2.8,1.1,3.9,2.2,3.5,5.8c-0.9,8.7-0.8,17.6-1.2,26.4
		c0.1,1.2,0.6,2.3,1.5,3c4.8-2.4,10.2-1.4,15.3-1.8c10.4-0.8,20.8-2.3,31.2-3.3c11.2-1,22.2-3.7,33.1-6.1
		c24.8-5.4,49.2-12.2,73.9-17.6c22-4.9,44.2-9.3,66.2-14.6c7-1.7,13.8-4.7,20.7-7c1.6-0.5,1.3-2,1.9-2.9"/>
	<path class="st0" d="M325.5,1221c0.4-1.8,2.1-2.7,3.4-3.3c18.4-8.3,31.5-22.4,42.1-39c6.4-10,11.1-21,14-32.6
		c3.3-13.3,5.1-26.6,2.1-40.4c-0.8-3.5-1.3-7.1-1.4-10.8h-29.1c-1.3,7.3,1,14.3,0.6,21.4c-1.1,17-3.8,33.4-11.2,49.1
		c-3.6,7.5-7.9,14.5-12.2,21.5c-1.1,2.3-3.8,3.5-6.3,2.8c-14.5-3-29.3-4.3-43.7-7.6c-1.6-0.2-3.2-0.2-4.8,0"/>
	<path class="st0" d="M170.5,642.1c2.7,3.8,5.5,7.6,8.1,11.5c6.2,9.3,7.5,19.3,5.4,30.2c-3.1,16-9.6,31-14.1,46.5
		c-4.7,16.3-7.9,33-9.6,49.9c-1.6,15.8-2.3,31.7-3.6,47.5c-1.5,18.8-4.2,37.4-5.8,56.2c-1,11.2-1.1,22.4-2.1,33.6
		c-0.7,9-2,18-3.9,26.9c-2.4,11-2,22.1-1.8,33.2c0,1.6,0.4,3.5,1.1,4.2c3.5,3.2,4,7.3,4.8,11.6c1.3,6.6,2.8,8.2,8.2,11.1
		c2.3-1.1,2.6-4.4,5.1-5.4"/>
	<path class="st0" d="M986,872.1c-5.9,2.6-11.8,5.2-17.8,7.7c-1.7,0.7-1.6,2.1-1.4,3.4c0.7,5.1,1.8,10.2,2.3,15.4
		c0.3,2.7,1.3,3.7,3.9,3.4c4.5-0.5,9,0.7,13.5-0.8c2.6-0.9,2.8,1.7,2.8,3.7c0,6.7,0.1,13.4,0.4,20.2c0.3,6.3,1.5,12.4,0.9,18.8
		c10.5,0.9,20.4,2.5,31.1-0.1c-0.5,3.6-0.5,6.2-1.3,8.6c-2.9,9.2-5.4,18.5-7.7,27.8c-2.4,10-3.8,20.2-5.6,30.3
		c-2.7,14.4-2.4,29.1-3.2,43.7c-0.3,5.2-1.1,11,0.6,15.7c2.8,7.9,1.1,15.8,2.3,23.7s1.5,16,2.3,23.9c1.1,11.9,3,23.8,5.6,35.5
		c5.9,25.2,10.7,50.7,17.1,75.9c5.4,21.7,11.5,43.1,18.6,64.2c7.4,22.2,17.5,43.3,28.7,63.9c10.9,20.2,23.7,39.2,37.4,57.6
		c13.9,18.8,28.8,36.8,43.8,54.7c9.4,11.2,19.1,22.1,28.8,33.1c1.5,1.7,3.2,3.2,2.8,5.8"/>
	<path class="st0" d="M174.8,585.5c-2.1-2.7-0.8-5,1.2-7.1c-0.9-1.3-1.4-2.6-3.3-2.6c-1.3,1.4-3.2,2.7-3.9,4.4
		c-0.9,2.1-2.6,2.2-4,2.2s-1.9-1.7-2.7-3.1c-2.9-5.1-2.2-9.8-0.8-15.1c0.8-2.8,0.3-5.7-1.3-8.1c-6.9-10.3-11.1-21.7-11.4-34.1
		c-0.2-7.4,0.4-14.8,1.7-22.1c3.5-18.9,12.1-35.7,21.2-52.3c8.4-15.5,16.3-31.2,23.9-47.1c2.6-5.3,5.1-10.8,7.6-15.9
		c-1.4-2-3.2-1.4-4.6-1.3c-17.5,1.7-34.8,4.3-51.4,10.5c-11.4,4.2-22.4,8.9-30.7,18.3c-6.3,7.1-10.2,15.6-14.3,24
		c-0.3,0.5-0.6,1-1,1.4"/>
	<path class="st0" d="M1024.4,1202.8c-1.7-0.1-2.8,0.6-2.4,2.4c2.3,8.8,1.9,17.9,2.8,26.9c1.6,17.3,2.9,34.6,4.4,51.8
		c0.6,6.8,3.2,13.2,5,19.6c4.5,17.2,10.4,34,17.4,50.3c6,13.7,12.7,27.1,21.2,39.6c11,16.2,23.2,31.7,36.3,46.3
		c10.7,12,22.2,23.3,33.5,34.6c9.4,9.3,19.2,18.2,28.7,27.5c0.9,1.1,2.1,1.9,3.4,2.3"/>
	<path class="st0" d="M936.1,880.7c13.4-6.5,26.5-13.5,40.3-19.2c11.5-4.9,24-6.8,36.5-5.5c7,0.7,13.6,3.9,20.1,6.7
		c6.9,2.9,14.1,2.4,21.2,3.7c2.2,0.4,3.1-1.1,3.8-2.5c5.9-11.9,11.7-23.9,17.5-35.7c-1.1-1.9-2.7-1.2-4-1.2c-13.8,0-27.5-2.2-41.3-2
		c-13.1,0.2-25.8,2.3-38.4,5.4c-19,4.6-37,12.1-55.2,19.2"/>
	<path class="st0" d="M833.3,788.1c-2,6.8,0.5,13.4,0.7,20.2c0.2,7.8-0.1,15.8,1.3,23.5c0.7,3.9-3,3.5-4.4,3.7
		c-16,2.1-31.5,6.7-47.5,8.9c-13,1.8-25.9,3.8-38.9,5.7c-12.2,1.8-24.6,2.8-36.5,6.5c-15.1,4.7-28.5,12.5-41.7,20.8
		c-26.6,16.5-54.4,31-83.1,43.6c-4.1,1.8-4.3,1.6-6.3-3.3c-6-15.3-10.8-31.1-16.3-46.6c-0.1-0.5-0.1-1,0-1.4"/>
	<path class="st0" d="M545.8,439.1c12.5-0.6,24.9,2,37.9,0.7c-2-13-4-25.8-6-39c-5.5,0-11.1,0.4-16.5,1.2
		c-5.3,0.7-10.7,0.8-15.9,1.3c-7,0.6-14,1.4-21.1,1.4c-5.3,0-10.5,1.5-15.8,0.8c-1.5,5.4,0,10.3,0.6,15c2.3,16.4,3.8,32.9,4.5,49.5
		c0.1,3,1,3.8,3.9,3.9c9.5,0.4,18.8-1.3,28.3-1.1c8.8,0.1,17.6,1.1,26.4,1.3c5.6,0.1,11.3,2,16.7,3.8c1.7,0.6,3.3,0.4,4.9,0.8
		c1.2-3.6-0.2-7.5,0.9-11.7c4.7,1.3,9.4,1.5,13.9,3"/>
	<path class="st0" d="M1173.2,533.7c-0.3,8.7-1.1,17.3-1.9,25.9c-0.9,9.4-1.7,18.9-2.4,28.3c-0.3,3.5-2.6,5.2-5.3,6.7
		c-12.9,7.5-27.2,11.2-41.3,15.3c-24.1,7-48.4,13.3-72.5,20c-24.9,6.9-49.8,13.8-74.9,20.1c-9.5,2.4-19.1,4.6-28.8,6.4"/>
	<path class="st0" d="M725.3,657.5c-9.7,3.2-19.2,0.3-28.8-1c-2.2-0.3-3.9-0.7-5.8,1c-3.7,3.2-8.6,5.3-10,10.6
		c-0.3,1.1-0.8,1.4-1.9,1.5c-11,0.5-21.1,4.8-31.7,7.2c-7.9,1.8-15.9,4-24,3.2c-8.6-0.9-17.2-2.1-25.9-1.7
		c-6.8,0.3-13.5,1.9-20.2,2.6c-4.5,0.5-9.2,2-14.1,1c-1.7-6.7-1.5-13.5-3.3-19.8c3.6-3.7,8.6-2.3,12.6-2.7c10.2-0.9,20.4-3,30.7-2.2
		c6.8,0.5,13.4,2,20.1,3c5.6,0.8,11.1,1.8,16.8,1.8c6.1-0.1,12.2-0.1,18.2,0c5.3,0.1,10.5-1.7,15.8-1c1.5,0.2,2.2-0.7,2.9-1.9
		c1.2-1.9,2.8-3.6,4.5-5.6c-4.1-2.4-8.3-4.4-13.2-4c-12.7,1.1-24.3-3-36-6.8c-11.2-3.5-22.8-5.8-34.5-6.9c-6.1-0.8-12.2-1-18.2-0.6
		c-6.4,0.5-12.7,1.8-19.2,1.8c-0.7,0-1.4,0.3-2.2-0.4c-1.4-16-3.2-32-5.2-48c12.5-2.7,25.4-2.7,34.3-13.6
		c9.1,10.1,20.8,14.1,33.2,16.4c7.2,1.4,14.5,2.3,22.1,0.8c5.9-1.1,12.2,0.5,18.2,2.2c13.5,3.7,25.9,9.7,38.2,17.3
		c3.5-9,11.7-10.5,19.4-13c13.1-4.2,25.5-10.2,38.4-14.8c3.9-1.4,7.8-2.6,11.8-4c-1.5-4.4-2.9-8.3-4-12.4c-0.7-2.4-1.6-2.7-3.9-2
		c-11.1,3.4-21.6,8.4-32.1,13.2c-5.1,2.3-10.3,4.3-15.5,6.5c-7.8,3.3-16.2,5.7-21.3,13.6c-9.4-7.9-18.4-15.4-28.6-21.1
		c-7.6-4.1-15.9-6.8-24.4-7.8c-9-1.3-17.8-3.6-26-8c-3.3-1.8-5.3-4.7-7.6-7.3c-2-2.3-4.2-2.2-6.8-1.4c-7.3,2.1-14.8,3.8-22,6.4
		c-3,1.1-6,1.2-8.7,1.4c-5.7,0.5-11.4,2.2-17.6,1c-0.5-8.9-1.1-18-1.7-27.4c6.3-0.5,12.2-0.6,17.9-0.9c12.2-0.7,24.2-2.2,35.5-7.1
		c2.8-1.2,4.9-1.2,7.2,0.2c2,1.1,4.1,2,6.3,2.7c2.7,0.9,4.1,2.2,4.8,5c2,7.6,8.5,10.3,14.9,12.4c12.6,4.2,24.2,9.6,33.6,19.3
		c0.4,0.4,1.2,0.3,2.3,0.6c2.1-2.8,2.9-6.5,6-9.3c-8.1-9.8-15.3-20.1-27-25.8c-1.7-0.8-3.2-2-4.8-2.9c-6.4-3.6-8.9-8.4-9.5-16.3
		c-0.8-10.8,1-21.5,0.1-32.2c-0.5-4.9-0.9-9.7-2.5-14.4"/>
	<path class="st0" d="M1031.1,1241.2c3.8,17.8,8.4,35.3,13.5,52.8c4.6,16,10.3,31.7,16.9,47c5.6,13.3,12.1,26.1,19.5,38.5
		c13.4,21.9,29.2,42.1,46.1,61.4c12.3,14,25,27.8,37.9,41.3c6,6.2,12.1,12.3,17.7,18.8c4.7,5.5,11.3,8.7,16,14.2
		c8.6,10.2,17.9,19.9,26.7,29.9c0.8,0.9,2.2,1.7,2,3.3"/>
	<path class="st0" d="M768.5,463.6c5.5-15.4,7.4-31.5,9.9-47.7c-0.8-1.4-2.4-0.8-3.7-0.7c-7.7,0.6-15.3-1.3-23-1
		c-5.1,0.2-5.5,0.5-5.8,5.8c-0.4,8.3-0.8,16.7-1.8,25c-1,7.9-2.6,15.7-4.1,23.5c-2.2,11.3-1.1,22.2,1.6,33.1
		c1.5,5.8,3.4,11.5,5.1,17c5,1.3,9.4-1.5,14.6-0.5c-0.2-6.1-1.7-11.2-2.4-16.5c-1.3-9.1-0.8-18,3.4-26.4c2.6-5.1,2.8-5.1,8.2-2.9
		c5.7,2.3,11.5,4.5,17.3,6.7"/>
	<path class="st0" d="M725.3,813.5c10.1-1.5,20.1-3.9,29.7-7.3c6.6-2.2,13.4-3.1,20.2-4.1c4.3-0.7,8.7,0.6,12.9,1.5
		c2.7,0.5,4,0.2,4.9-2.5c6.2-18.7,17.5-34.9,25.4-52.8c2.8-6.5,6.1-12.8,7.7-20.3c-7.1,3.3-15.2-1.5-22.1,3.5c-0.8,0.6-1.8,1-2.4,2
		c-3.8,6.9-6.2,7.7-13,4.3c-6.4-3.1-11.8-7.6-17.2-12.1c-4.2-3.5-9-6.2-12.1-11c-0.3-0.5-0.8-0.9-1.4-1c-10-2.9-17.3-10.4-26.4-14.8
		c-0.2-0.1-0.3-0.4-0.5-0.5c-7.9-4-11.6-2-12.9,7.2c0,1.4-0.6,2.8-1.5,3.8c-5.2,5.4-11.4,9.7-17,14.7c-3,2.7-7.8,3.2-12.3,3.2
		c-5,0-9.5-0.3-12.5-4.9c-0.2-0.3-0.9-0.3-1.4-0.5"/>
	<path class="st0" d="M730.1,521.2c-3.9-11.5-8.9-22.6-11.6-34.5c-3.1-13.6-2-27.2-2-40.8c0-9.7,0-19.5-0.4-29.8l-30.4,4.2
		c-0.9,3.9,0.5,7.6,0.9,11.2c1.8,14.9,2.4,29.9,5.6,44.7c1.1,5.1,3.9,9.6,5.8,14.4c5,12.7,11.2,24.8,16.9,37.3
		c5.3-2.3,10.6-3.3,15.2-6.1"/>
	<path class="st0" d="M314,1171.1c8.5-16.1,13.8-33.7,15.5-51.8c0.6-6.6,0.2-13.1,0.4-19.7c0.2-6.8-0.4-7.2-7.2-7.7
		c-33.6-2.7-66-11.1-97.4-23.1c-5.8-2.2-11.2-5.5-17.1-8.4c-2.5,3.3-3,7.2-3.6,10.9c-0.4,2.2,1.6,2.5,2.9,3.4
		c12.2,8.8,26,14.7,39.9,20c18.3,6.9,37.1,12.7,56.6,15.6c0.4,0,0.6,0.6,1,0.9"/>
	<path class="st0" d="M1111.3,254.3c-11.4,14.3-25.7,25.6-40,36.8c-25.6,20.2-51.7,39.9-79.1,57.8C956,372.6,919,395,880.4,414.7
		c-6.8,3.5-13.8,6.6-20.5,11c8.9,13.4,17.8,26.6,26.7,40.1c30.2-18.6,62-34.1,92.7-51.5c32-18.1,63.2-37.5,93.5-58.2
		c18.2-12.5,36-25.4,52.3-40.3c2.8-2.5,5.2-5.4,7.7-8.1"/>
	<path class="st0" d="M1155.4,647.4c0.8,5.1-2.1,9.4-3.6,13.8c-3.4,10.3-6.8,20.5-10.3,30.8c-1,2.9-2,4.4-5.3,5.4
		c-9.8,3.1-19.8,4.8-29.8,6.7c-13.8,2.6-27.6,4.6-41.3,7.3c-12.8,2.6-25.6,5-38.4,7.9c-14.4,3.3-28.8,6.7-43.2,10.1
		c-8.2,2-16.5,3.5-24.5,6.2"/>
	<path class="st0" d="M306.8,1111.1c-2.9,2.7-0.8,6.6-2.4,9.6c-0.3,0.6,0.2,1.8-0.1,2.3c-1.2,2.1,0.1,5.4-2,6.6
		c-1.9,1-4.4-0.7-6.6-1.2c-35.1-8-67.6-21.8-96.9-42.8c-0.4-0.3-0.6-0.6-1.1-0.6c-2.4,0.8-3.2,3.2-4.7,4.9c-1.7,1.7-3.1,3.6-4.1,5.7
		c31.8,26.2,68.1,43.2,108.3,53.1c-2.2,5.7-5.2,10.1-6.8,15.1c-0.4,1.5-1.9,2.4-3.5,2c-0.1,0-0.3-0.1-0.4-0.1
		c-26.1-7.4-51-17.6-73.4-33.1c-12.3-8.5-24.3-17.4-34.4-28.7c-3.9,2.1-7.4,4.7-10.5,7.8c18.6,24.6,42.9,41.7,69.4,55.8
		c5.9,3.1,12.5,5.1,18.6,7.8"/>
	<path class="st0" d="M1005.9,1072.7c3.4-5.5,1.7-11.6,1.5-17.3c-0.2-4.9,0.6-9.6,0.8-14.4c1.1-21.8,4.3-43.5,9.6-64.8
		c5.8-23.7,13.1-46.9,22-69.6c0.1-0.3,0.1-0.7,0-1c-1.5-1.8-3.8-1.4-5.2-0.8c-6.7,2.6-12.6-1-18.8-2.1c-2-0.3-2.6-2.5-3.8-3.9
		c-4.5-5.3-8.2-11.2-13.2-15.9c-4.1,1.4-7.3,3.8-10.9,5.4"/>
	<path class="st0" d="M146,767.9c1.8,1.3,1.1,3.3,0.9,4.8c-1.6,10.4-3.5,20.8-5.2,31.2c-2.1,13-3.5,26.2-4.3,39.3
		c-1.2,18.5-1.4,37.1-2.7,55.7c-1.6,22.7-4.8,45.3-4.5,68.1c0.1,6.8,0.9,13.3,4.7,19.3c0.6,1,1.2,1.8,2,1.8
		c3.7-0.3,7.4,1.3,11.1-0.4"/>
	<path class="st0" d="M196.4,581.2c4.1-5.2,3.9-11.8,5.2-17.8c2.1-9.3,5.6-18.2,10.6-26.4c10.3-17.2,23.6-31.9,37.1-46.5
		c12.6-13.6,24.9-27.5,35.8-42.4c10.3-14,17.6-29.9,24.1-46c0.9-2.3-0.7-3.7-2.8-4.3c-6.7-1.8-13.4-3.6-20.5-5.4
		c-3.7,3.5-4.8,8.7-6.7,13.1c-9,20.4-21.1,38.8-34.2,56.6c-11,15-23.1,29.4-33.1,45.1c-8.8,13.8-15.6,28.5-18.7,44.7
		c-0.7,2.8-0.8,5.7-0.4,8.6c1.3,6.7-1.8,12.5-2.9,18.8c-0.5,3-1.2,6.7,2.7,8.6"/>
	<path class="st0" d="M1006.1,1468.2c16.8,23.3,35.9,44.7,55.3,66.7c-12.8,2.1-24.8,3.5-36.5,5.6c-5.4,1-7.9-0.5-10.7-4.5
		c-13.9-19.8-28.1-39.3-39.8-60.5c-1.4-2.6-3.2-2.6-5.8-2c-6.7,1.4-13.4,2.3-20.1,3.5c-2.6,0.4-5.2,1-8.2,1.6
		c6.8,14.3,13.3,28.2,20.5,41.7c5.4,10,11.7,19.6,16,30.2"/>
	<path class="st0" d="M100.4,438.6c-2.8,0.5-2-1.3-1.9-2.9c0.9-14.1,8.3-25.5,15.4-36.9c11.3-18.1,29.5-25.5,48.9-30.7
		c13.3-3.6,27-5.9,40.8-7c13.5-1.1,26.9-0.6,40.3-0.6c7.7,0,15.3,1.6,23,1.9c3.8,0.1,4.2,1.5,2.9,5.2
		c-10.4,29.3-24.7,56.6-41.8,82.6c-10.6,16-21.9,31.6-31.1,48.5c-6.5,11.6-10.8,24.2-12.7,37.4c-1.3,9.7-0.8,19.2,0.4,28.8
		c0.6,5.4-2.2,10-7.5,12.5"/>
	<path class="st0" d="M217.5,556.7c4-7.6,9.6-14,15.4-20.2c16.5-17.6,35.2-33,52.9-49.3c15.1-13.9,28.7-28.9,39.6-46.2
		c4.2-6.7,5.6-14.7,8.7-22c5.2-12.3,6.9-25.6,10.5-38.4c0.6-2.1,0.9-4.1-3.2-5c-14-3.1-28-6.4-42.3-8.3c-1.8-0.2-2.8-1.5-4.4-1.6
		c2.7-7.7,5.3-15,7.7-22.5c0.6-2,0.5-3.9-2.8-3.9c-11.7,0.2-23.4-1.2-35-2.1c-17.4-1.2-34.9-1.3-52.3-0.5c-23.1,1-46,4.9-67.2,15.2
		c-12.1,5.8-21.4,15.1-28.9,26.2c-2.8,4.1-5.1,8.5-8.6,12"/>
	<path class="st0" d="M866.5,645c5.1-4,11.4-5,17.3-7.2c9.4-3.5,18.8-6.8,28.3-10.1c2.3-0.8,3.1-1.9,2.9-4.4
		c-0.4-6.9-1.7-13.8-2.5-20.6c-0.4-3.7-1.4-7.4-1.3-11c0.1-4.1-1.7-5.8-5.4-6.8c-6.6-1.8-13.1-4.3-19.7-6.1
		c-3.3-0.9-4.9-2.6-4.8-5.8c0.4-6.9-0.8-13.8-1-20.6c-0.2-6.6-2.7-12.8-4.4-19.2c-1.3-5-1.8-10.4-4.5-15.2
		c-8.7,3.3-16.6,7.8-25.4,10.9c-4.2-7.7-8.5-15.4-12.8-23.3l24-19.1c-7.1-7.7-13.7-15.6-21.1-22.8c-4.2-4.1-10.4-5-15.7-7.3
		c-4.6-2-9.3-3.9-14.4-6c2.5-11,5.8-21.7,9.1-32.5"/>
	<path class="st0" d="M138.3,790c2.3,3.5,0.5,7.2-0.1,10.5c-2.4,11.4-3.4,23-4.8,34.6c-1.5,13.3-2.2,26.6-3.6,39.9
		c-2,19.3-3.9,38.6-5.1,58c-0.7,10.6-0.6,21.1-0.9,31.7c-0.2,7.8-0.2,15.5,4.8,22.1"/>
	<path class="st0" d="M1013.8,1374.1c4.1,8.2,7.9,16.6,11.5,25c2.3,5.3,6,9.6,9.1,14.4c17.5,27.8,40.6,50.7,64.4,72.8
		c25.2,23.4,51.6,45.4,77.7,67.8c1.2,1,2.6,2,2.9,3.8"/>
	<path class="st0" d="M470.9,22.9c7.6,7.4,10.6,17.3,13.9,26.9c1.1,3.3,2,6.7,3.1,10.4c-56.6,15.5-110.7,36.1-155.6,76.2
		c-15.9-7.6-31.8-3.1-47.7,0.7"/>
	<path class="st0" d="M190.1,442.9c10.1-17,20-34.2,27.6-52.4c2.7-6.5,6.4-7.9,12.2-7.1c3.5,0.7,7,1,10.6,1
		c-2.4,6.1-5,11.7-7.7,17.2c-11.3,23.1-24.9,44.9-38.5,66.7c-8.5,13.8-15.9,28.1-19.9,43.8c-3.6,13.7-4.6,27.8-0.6,41.7
		c1.1,4,4.1,7.8,2.6,12c-1.2,3.4-1.5,6.8-2.2,10.1"/>
	<path class="st0" d="M722,802.9c-5.3,2-10.9,2.4-16.3,3.8c-1.9,0.5-2.7-1-3.9-2.3c-6.4-7.3-8.5-16.5-10.3-25.5
		c-0.8-4.4-2.6-6.2-6.5-6.6c-2.3-0.2-4.3-1.7-6.8-1.5c-0.1,22.8,7.9,43.1,20.5,62.9c-20,4.8-37.2,13.7-54.1,24.1
		c-4-7.4-7.5-15-10.6-22.8c11.6-7.1,24.4-11.9,37.7-14.2c-0.6-2.6-1.6-5-3-7.3c-4.2-7.6-5.1-15.6-3.7-24c0.3-1.1,0.4-2.2,0.3-3.4
		c-1.7-11,0.1-21.8,1.8-33.1c-1.9-1.3-4.2-2.9-6.5-4.3c-8.9-5.7-19.3-28.4-14.5-40.8c0.3-0.8,0.6-1.6,1-2.4c1.6-2.8,1.6-5.4-1.3-7.7
		c-2-1.6-4.5-3.3-2.9-6.7c2.8,0.2,5.3,1.9,8.1,1.9c0.2-0.2,0.5-0.3,0.5-0.5c-0.5-6.9,4.3-7.9,9.5-9.8c7.9-3,16.2-3.9,24-6.7
		c7.2-2.6,14.4-2.3,21.7-3.1c1.9-0.2,2.8,1.1,2.8,2.8c0.1,2.7,1.8,5,2,8.1c-4.6,1.9-7,6.4-10,10.2c-9.4-3.3-19.4-5.1-29.4-5.4
		c-3.9,0-7.2,2.2-11,2.1c-0.8,0.3-1.4,1-1.5,1.8c-1.6,7.4-5.9,14.2-5.7,22.1c0.4,12.4,5.6,21.4,17.2,27c8.9,4.5,18.9,6.4,28.9,5.6
		c8.2-0.6,16-4,22-9.7c4.8-4.7,10.3-7.6,16.4-10c3.3-1.3,4.5,1.6,6.8,2.2c0,0.5,0,0.9,0,1.2c-0.2,6.4-0.9,12.3-7.1,16.4
		c-5.4,3.6-10,8-16.3,10.6c-14.9,6.2-29.5,4.2-44.2-0.2"/>
	<path class="st0" d="M130.6,812.1c2.7,4.5,0.5,9.1-0.1,13.4c-1.7,11.7-2.6,23.4-4.6,35.1c-2.2,12.8-4.5,25.5-5.7,38.4
		c-1.7,17.7-3.7,35.4-3,53.3c0.3,7.5-1.3,15-0.1,22.6c1.3,7.8,5.3,12.2,12.7,13c1.2,2.8-0.9,5.4-0.7,8.2c0.4,6.4,3.3,11.9,6.4,17.2
		c4,6.7,8.7,12.9,11.9,19.8c3.8-0.2,4.4-3.8,6.9-4.6c-2.5-5.9-5.4-11.2-9.6-15.7c-6.2-6.6-8.8-14.8-8.2-23.9"/>
	<path class="st0" d="M992.7,1390c2.9,4.8,4.6,10.2,6.8,15.3c4.2,10,10.5,18.8,16.3,27.8c11.1,17,24.5,32.3,38.4,47
		c22.7,24.2,47,46.8,71.4,69.2c2.8,2.6,6.1,4.9,7.7,8.6"/>
	<path class="st0" d="M143.1,765c-4.1,0.6-6.6-1.1-8.7-4.7c-7.3-12.3-18.9-20.1-30.7-27.3c-10.2-6.2-21.5-10.2-32.5-14.6
		c-3.3-1.3-5.6-1.3-7.3,2.4c-0.7,1.5-2.1,2.7-2.9,4.7c10.9,4,21.5,8.7,31.8,14.1c14.2,7.5,27,16.9,36.4,30.2c2.1,3,3.6,6.4,5.3,9.6"
		/>
	<path class="st0" d="M129.7,1137.5c3.3-0.1,5.1-2.9,8-4.2c-1.1-3.6-2.1-7.1-3.1-10.6c-2.1-7.1-0.9-9,6.9-11.6
		c5.3,17.2,14.4,32.2,26.2,45.6c17.6,19.9,38.7,34.6,63.9,43.1c11.5,4,23.4,6.8,35.4,8.4c3.4,0.4,7.1,0.4,10.1,2.8"/>
	<path class="st0" d="M153.7,575.4c-0.1-4.3-0.3-8.8,1-12.9c0.9-2.8-0.1-4.7-1.5-6.8c-4.8-6.7-8.6-14.1-11.1-22
		c-3.2-10.5-3.4-21-2.3-31.7c0.3-2.7,0.4-5.3,0.4-8c-3.1-0.6-5.4,2-8.2,0.4c-2.3,16.1-1.2,30.9,5.3,45.1c2,4.3,4.8,8,7.4,11.9
		c1,1.6,2.1,2.9,1.8,4.8"/>
	<path class="st0" d="M152.7,644.5c-2.5-4.3-3-9.7-6.8-13.6c-3.2,1.5-6.6,1.2-10,1.1c-8-0.2-15.8,1.4-23.5,3
		c-6.1,1.2-7.7,4.8-7.2,14c7-2.3,14.4-2.5,21.6-3.7c3.2-0.6,6.5-0.1,9.7-1.5c3.6-1.6,6,0,6.6,4.2c2,14.1,9.5,25.6,17.4,36.9
		c1.5,2.2,1.8,4.9,3.7,6.8"/>
	<path class="st0" d="M122,845.7c2.6,3.7,0.6,7.5-0.2,11c-0.9,3.7-1.7,7.6-3.5,11.2c-1.4,2.8-1,6.5-5.9,6.4c-1.6,0-2.7,2.7-2.8,4.6
		c-0.6,9.2-2.8,18.2-4,27.3c-2,16.1-3,32.3-2.8,48.5c0,5-0.4,10,0.1,14.9c0.6,6.2,4,11.3,8.1,15.8"/>
	<path class="st0" d="M468.1,339.7c-4.2,1.1-8.6,0.6-13,1.3c-11.1,1.8-22.4,2.4-33.6,3.9c-3.6,0.5-7.3,0.8-11,0.9
		c-12.3,0.4-24.6,2.2-36.9,1c-9.1-0.9-18.3-1-27.4-2.5c-6.3-1-12.7-1.8-19.2-2.1"/>
	<path class="st0" d="M343.7,202.9c-3.2,3-6.5,5.9-9.5,9.2c-1.2,1.3-3.1,1.9-4.9,1.3c-10.6-2.1-21.2-4.2-31.7-6.7
		c-11.5-2.8-22.9-4.1-34.6-1.9c-3.3,0.6-6.5-0.3-9.6-1.8c-8.5-4-17.7-3.9-26.9-4c-5.4-0.1-8.8,1.4-11.7,6.3c-4,6.6-9,12.8-13.2,19.3
		c-1.4,2.1-3.4,2.9-5.8,3.4c-5.9,1.4-12,1.6-17.7,3c-8.5,2.1-13.7,8.9-17.7,16.2c-2.5,4.5-6.3,8.4-6.8,13.9"/>
	<path class="st0" d="M143.8,558.1c-13.3-0.1-18.2-10.4-23.7-19.7c-8.8-14.7-8.9-30.7-6.9-47c0.1-1.4,0.9-2.6,2-3.3
		c6.4-4.3,13.3-7.6,21.1-8.6c2.2-0.3,4.3-1.5,6.7-1c1.9,0.4,2.5-1.5,2.8-2.4c1.2-4.8,3.9-9,5.1-14.3c-3.1-1.1-6.2,0-8.8,0.6
		c-10.9,2.5-20.9,6.9-29.4,14.6c-2.8,2.6-2.5,5.8-3.2,8.8c-3,12.7-3.3,26-0.9,38.8c1.7,8.5,5.9,16.1,11.3,23.1
		c5.9,7.7,13.6,13,22.1,17.2"/>
	<path class="st0" d="M559.3,1506.1c-0.2,0.3,0.4,0.7,0.4,1c-0.6,14.7,8.2,22.8,20.3,28.2c18.1,8.8,37.5,14.4,57.5,16.5
		c8.8,1.2,17.7,2.1,26.5,3.5c4.4,0.7,8.9,1.1,13.4,1.6"/>
	<path class="st0" d="M103.3,986.3c-0.8-0.8-1.8-1.8-2.8-1.4c-2.3,1-2.9-0.6-3.9-2c-7.7-11.2-8.8-24-8.1-37
		c0.6-10.1,1.5-20.2,2.9-30.2c2.1-14.5,5.1-28.9,10-42.7c0.7-2,1.2-4.1,1.5-6.2c0.4-3.8-0.7-4.9-4.4-4.9c-1.8,0-4.2,2.2-5.5-0.8"/>
	<path class="st0" d="M708.1,620.1c2.2-5.4,7.3-7,12-8c14.7-3.3,28.4-9.3,42.7-13.7c8.2-2.5,16.6-4.3,24.7-7.3
		c-0.8-10.5-4.3-20.1-6.9-30c-0.6-2.2-2.3-3.1-3.9-3.7c-3.9-1.5-8-2.6-11.4-5c-7.4-5.2-14.3-1.3-20.6,1.3
		c-16.7,6.9-33.1,14.7-49,23.3c-3.1,1.8-6,4.2-8.4,6.8c-3.5-2.3-5.8-5.5-8.5-8.5c7.6-12.1,19.9-18.2,31.8-24.8
		c16.5-9.3,34.5-14.8,52.8-19.1c0.9-0.2,1.4-1.1,2.8-1.1c3.8,3.3,3.9,9.1,7.5,13.1c8.1-2.5,15.8-6.4,23.3-10.7
		c2-1.1,4.1-2.6,3.8-5.2c-0.7-5.3,2.9-7.7,6.3-10.6c4.4-3.8,9.7-6.3,14.7-9.7c-4-5.5-9.5-9.5-14.1-14.3c-1.5-1.5-2.7-1.1-4.4,0
		c-5.6,3.5-10.4,8.3-13.8,14c-0.5,0.8-1.4,1.9-1.1,3.3c1.5,7.3-2.5,11.5-8.4,14.6c-2.5-2.1-4.4-5.3-7.1-8.2
		c2.2-4.5,2.1-9.4,1.7-14.6c-0.7-7.6,3.8-13.4,8.1-19.2c0.9-1,1.8-2,2.9-2.9"/>
	<path class="st0" d="M98,862.5c1.9,3.4,0.5,6.4-0.9,9.6c-5.2,12.6-8.1,26-10.5,39.3s-5,26.7-4.8,40.3c0.1,9.8,1.2,19.6,7.6,27.8
		c1.4,1.8,0.9,3.8,1,5.8"/>
	<path class="st0" d="M547.3,1440.9c1.3,2.6-0.1,5.1-0.1,7.7c0.1,25.8,0.2,51.5,0.1,77.3c0,10.7-0.3,21.4-0.5,32.2"/>
	<path class="st0" d="M179.6,461.2c-5.6,11.5-11.9,22.5-15.6,35c-3.8,12.1-5.3,24.8-4.4,37.5c0.6,7.3,2.8,14.3,6.5,20.7
		c2.4,4.2,3.7,8.4,1.6,13.5c-1.2,3-1.7,6.7,0.3,10"/>
	<path class="st0" d="M146,1074.6c-1.8,3.3-1.1,7.1-1.8,10.6c-0.4,2.4-1,3.9-3,5.3c-6.8,5-13.4,10.3-20.2,15.2
		c-2.8,2-4.2,4.4-3.8,7.7c0.5,4.2-1.8,8.3-0.6,12.5c3.6,0.2,5.4-3,8.2-4c1.1,0.4,1.9,1.3,2.1,2.5c2.5,21.2,11.3,41.1,25.3,57.2
		c14,16.3,32,26.3,52,32.9c5.2,1.7,11,2.1,16.3,4"/>
	<path class="st0" d="M105.2,875.4c-2.2,11-4.8,22-6.6,33.1c-1.8,12.1-2.8,24.2-2.9,36.4c-0.3,7.5-0.2,15,0.4,22.5
		c0.6,5.7,3.3,10.5,6.7,14.9"/>
	<path class="st0" d="M33.7,844.2c-7.4-2.8-8.8-9.1-9.6-15.8c-1.2-10.4,2.6-19.6,7.7-28.3c4.2-6.9,8.8-13.5,13.8-19.7
		c6.2-7.9,13-15.2,20.3-22.1c-1.4-1.8-3.4-2.6-5.6-3.6c-15.3,15-29.3,30.8-38.7,50.2c-5.5,11.4-5.5,23-0.5,34.5
		c2.3,5.2,5.6,6.9,11.5,6.3c0.7-0.1,1.5-0.2,1.4,1"/>
	<path class="st0" d="M120.1,985.3c-0.5,0.3-1,0.9-1.4,0.9c-2.7-0.1-6-2.5-8,0.1c-3.5,4.5-7.7,8.8-7.9,15.3
		c-0.4,11.7,4,21.7,12.7,28.6c10.6,8.3,15.7,19.4,20,31.4c1.4,3.8,2.6,7.7,4,12c-6.2,4.3-11.5,10.2-18.4,13.9"/>
	<path class="st0" d="M116.2,428.5c17.9-13,50.8-24.5,60.8-21c-2.3,5.3-5.2,10.3-7.1,15.7c-1.6,4.6-6.5,2.6-9.6,3.1
		c-17.6,3-33.7,9.4-46.9,21.5C106,454.7,102,464,98,473.2c-0.6,1.5-0.6,3.2-2,4.3"/>
	<path class="st0" d="M640.9,453.5c0.7,2.2,1.8,4.1,3.4,5.8c3.5,4.3,4.2,9.6,4.8,14.9c0.9,8.6,1.7,17.3,2.9,25.9
		c0.8,5,3.6,9.4,7.7,12.4c10.7,8.3,18,19.3,25.4,30.3c0.6,0.8,1.2,1.6,1.9,2.5c4.4-3.4,9-6.4,13-10.2c-6.3-11.4-12.4-22.8-20.3-33.1
		s-11.4-22.1-13.3-34.6c-0.7-4.2-2-8.2-2.2-12.7c-8.6-0.4-16.8-2.2-25.2-2.1"/>
	<path class="st0" d="M144.5,1150c3.2,2.6,4.9,6.3,7.1,9.7c11.7,17.6,27.3,30.8,45.7,40.7c11.7,6.3,24.5,9.6,37.4,12.5
		c1.6,0.4,3,1.7,4.8,1"/>
	<path class="st0" d="M114.8,886.9c-1.9,16.6-4.2,33.2-4.5,49.9c-0.1,8.6,0.1,17.3-0.4,25.9c-0.4,8.2,0.6,15.9,5.8,22.6"/>
	<path class="st0" d="M886.1,670c-1.4,33.3-3.9,66.4-14.4,98.4"/>
	<path class="st0" d="M118.1,1145.2c-0.2,6.9,1.8,13.4,4,19.6c5.3,15.1,14.9,28.3,27.6,38c9.9,7.6,21.3,11.9,33.1,15.3
		c3.1,0.9,6.4-0.4,9.6-0.9"/>
	<path class="st0" d="M232.9,910.5c-6.9-6.7-13.2-14-19.7-21.3c-3.4,1.3-4.7,4.4-6.7,6.9c-12.6,15.6-24.9,31.4-33.1,49.9
		c-5,11.4-11.1,22.3-16.4,33.6c-2.3,5-1.2,7.4,3.8,9.1"/>
	<path class="st0" d="M831.9,794.3c-3.5,2.9-3.9,7.3-5,11.1c-1.1,3.6-2.7,5.5-6,6.7c-5.6,2.1-10.9,4.9-16.8,6.3s-12.2,1.6-18.3,2.8
		c-7.5,1.5-15.1,2.5-22.6,3.6c-5.8,0.9-11.7,2.2-17.7,2.1"/>
	<path class="st0" d="M44.7,755.9c1.4,0.7,2.4,1.8,3,3.2c-9.7,8.9-17.6,19.5-25,30.4c-5.5,8.1-9.9,17-11,26.8
		c-0.8,6.9,1.1,13.6,3.2,20.1c0.9,2.3,1.5,4.7,1.9,7.2c-4.9,0.4-5.7-0.1-8.6-6.7"/>
	<path class="st0" d="M4.9,829.8c-3.6-7.7-4.9-15.6-2.9-24c0.2-1.3,0.2-2.5,0.1-3.8"/>
	<path class="st0" d="M128.7,1139.4c-6.1,3.6-6,3.5-4.3,10.1c5.3,21.6,17.3,38.8,34.7,52.2c6.9,5.4,14.6,9.5,22.9,12.1
		c1.5,0.5,3,1.2,4.3,2"/>
	<path class="st0" d="M125.3,785.2c0.3-9.2-5.6-14.6-12.2-19.7c-1.1-0.3-1.5,0.9-2.3,1.5c-2.2,0.2-2.4-3.1-4.8-2.9
		c-1.8,0.1-1.8,1.7-2.4,2.9c-4.6,8.2-10.6,15.5-17.8,21.6c-16.2,13.7-24.5,31.8-29.3,51.9c-0.5,1.7-0.9,3.5-1,5.3
		c0,2.8,2.5,2.5,4,3.2s2-0.9,1.9-2.3"/>
	<path class="st0" d="M6.8,829.3c2.3-3,0.1-6.1-0.1-9.1c-0.8-12.1,3.5-22.5,10.2-32.1c8.2-11.8,16.3-23.7,27.6-32.9
		c1-0.8,3.3-2.3,3.1-4.6c-1.3-2.2-3.9-2.1-5.8-3.4c2.9-5.9,5.1-7.2,11-4.7c8.5,3.5,16.8,7.5,25.7,11.4c-7.6,9-16.2,16.6-23.3,25.5
		c-8.5,10.6-17.3,21.1-22,34.1c-3.4,9.4-4.7,18.8,1.4,27.8"/>
	<path class="st0" d="M100.9,758.8c-7.5,12-17.3,21.9-27.3,31.7c-14.8,14.3-22.4,31.9-23.5,52.3c-0.1,0.5-0.2,1-0.5,1.4"/>
	<path class="st0" d="M262.6,862l14.4,29.5l-25.4,7.7l-23-31"/>
	<path class="st0" d="M51.9,846.1c-7.7-4.4-8-4.4-7.6-13.9c0.5-13.6,6.3-25.4,14.4-36c7.3-9.5,16.6-17.3,24.5-26.4
		c2.8-3,5.3-6.2,7.7-9.6c-1.5-1.7-3.6-2.8-5.9-3.1C71.2,773,54.7,787,44.3,806.2c-5.4,9.9-8.2,20.3-6.2,31.7"/>
	<path class="st0" d="M231.4,910.9c-11.6,9.8-23.6,19.2-34.5,29.8c-8.3,8.3-15.8,17.4-22.2,27.2c-4.4,6.7-9.8,12.7-17.2,16.4"/>
	<path class="st0" d="M160.9,443.4c-19.4,1.2-36.3,7.9-49.9,22.1c-7.4,7.7-11.4,17.5-14.8,27.4c-0.6,1.6-0.9,3.4-2,4.8"/>
	<path class="st0" d="M610.6,26.8c0,10.8-1.6,21.5-2.5,32.2c-1.2,13.3-2.4,26.6-3.3,39.8c-0.2,2.6-0.3,5.1-0.5,7.7"/>
	<path class="st0" d="M98.9,985.8c0.4,1.3-0.2,2.7-1.4,3.3c-5.1,3.1-8.3,8-12.4,12.1c-3.1,2.8-4.7,6.8-4.4,11
		c0.3,3.2,0.1,6.5-0.7,9.6c-0.8,3,0.4,6.1,1.7,9.1c3,7,6.7,13,13.4,17.4c9.1,5.9,18.3,12,23.2,22.4c0.2,0.6,0.8,1,1.4,1"/>
	<path class="st0" d="M145,739.1c-1.7-4-4.1-7.6-7.2-10.6c-13.4-13.6-29.3-22.6-48-26.3c-0.2,0-0.3,0-0.5,0
		c-9.6-2.6-9.6-2.6-15.6,5.5c2.3,2.8,5.9,3,8.9,4c17.3,5.1,33.3,13.7,47.1,25.3c5.8,4.9,8.6,11.3,12.4,17.4"/>
	<path class="st0" d="M99.9,988.2c2.2,3.1-1.1,4.9-2.1,6.6c-5.3,8.8-4.8,17.3-0.9,26.6c3.2,7.4,8.1,12.4,14.9,16.4
		c7.1,4.2,12.1,10.7,15,18.6c1,2.8,3.1,5.1,3.1,8.4l-3.1,1.9c-0.4,0-0.7-0.2-1-0.6c-3.4-4.1-4.9-9.4-8.4-13.6
		c-4.3-5.2-9.5-8.9-15-12.3c-9.6-6-14-14.9-14.9-25.9c-0.3-4.3,0.5-8.7-0.5-13"/>
	<path class="st0" d="M579.9,1423.6c7.9,13.1,29.8,18.8,42.4,0.8c-2.6-4.5-4.1-9.7-7.7-13.7c-12.9,4-27.1,6-40.1-4.9
		c-2.3,1.3-3.4,3.7-4.6,5.9c-4.2,7.3-11.2,10-18.8,11.4c-5.2,1-9.1-2.1-10.5-7.6c-1.7-6.2-3.2-12.5-4.8-18.7"/>
	<path class="st0" d="M91.3,875.4c-1.8,6.2-3.7,12.4-5.2,18.8c-0.6,2.5-1.8,3-3.9,2.9c-2.6-0.1-5.2,0.3-7.7-0.5
		c0.1,1.8-1.5,3-1.5,4.8c0,2.2,0.4,4.1,2.9,4.3s5.9-0.2,6.5,2.5c0.6,2.9-0.3,5.9-2.4,8c-1.5,0.6-2.1-0.7-3.1-1
		c-8.1-2.4-8.1-2.4-11.1,5.4c1,1.6,2.9,1.7,4.3,2.3c1.4,0.5,2.7,1.2,3.9,2c-1.2,5.3-3,10.4-4,15.8c-2.1,11-0.4,21.4,4.4,31.3
		c1.6,3.4,4.2,6.6,1.4,10.6"/>
	<path class="st0" d="M117.2,792.4c-5,5.7-8.2,12.5-11.5,19.2c-4.9,9.7-10,19.3-15.1,29c-2.4-0.7-4.2-2.4-6.9-2.7
		c-4.1,5.6-5.9,13.1-11.4,18.1l-5.6-3.5c7.7-14,12.8-29.1,21.7-42.4c4.2-6.1,8.8-12,13.6-17.6c3.6-4.3,7.2-8.4,9.4-13.5
		c0.8-1.9,2.3-2.5,3.9-3.3"/>
	<path class="st0" d="M151.3,730.9c-4.7-14.5-16.7-22.6-27.9-31.1c-6.8-5.2-15.3-5.9-23.5-7.2c-4.6-0.8-9.2-2.2-13.9-2"/>
	<path class="st0" d="M165.7,670.5c3.1,6.8,4.1,14.3,2.9,21.6"/>
	<path class="st0" d="M622.1,710.3c3.3,0.1,4.3-2.1,4.8-4.8s0.9-5.2,3-7.3l9,3.7c-4.8,8.3-4.8,16.7-2.3,25.7
		c-7.5,3.2-12.7,9.6-18.8,14.9c-9.4,8.3-21.3,11.3-32.7,15.3c-4.4,1.5-9,2.4-13.5,4.6l9.7,19.3c12.8-5.1,26.3-7.7,37.5-16.1
		c3.8-2.6,6.8-6.2,8.9-10.3c2.8-6.1,6.9-11.6,12-16c3.3,1.8,4.2,5.6,6.7,8.7c-4.9,5.6-6.8,12.7-8.9,19.8
		c-2.9,9.9-8.7,17.3-18.2,21.7c-2.8,1.4-5.4,3-8,4.8l11.1,19c6.8-2.4,12.7-6,18.9-9c3.1-1.5,2.8-5,3.8-7.7c4.3-11.3,5-23.4,7.7-35
		c0.4-1.8,1-3.5,1.4-5.3"/>
	<path class="st0" d="M93.7,680.1c1.1-7.8,4.1-10.3,13.4-10.5c4.5-0.1,9.1-0.7,13.4,0.5c2,0.6,3.2-0.1,3.3-1.6
		c0.3-3.3,1.9-6.6,0.7-10.4c-7.4-0.7-14.6,0.3-21.7,1.7c-0.8,0-1.4,0.7-1.4,1.5"/>
	<path class="st0" d="M337.5,108.4c-1.5-4-6.2-5.5-7.8-10c10-5.6,20.2-11.2,30.3-16.9c1-0.7,2.4-0.7,3.4,0c0.5,0.3,0.9,0.7,1.4,1
		c9.8,6.2,9.7,6.2,20.2,1c8-4,16.1-7.8,24.6-11.9c-6.8-8.5-15.2-14.4-23.7-20.2c-1.9-1.3-4.3-1.4-6.2-0.2
		c-12.5,6-25.7,10.2-37.4,17.9c-0.4,0.2-1.2-0.3-1.9-0.4"/>
	<path class="st0" d="M116.2,986.3c-0.3,1.1,0.4,2.3-0.5,3.4c-5.9,7.4-3.2,15-0.4,22.5c1.7,4.8,4.3,9.1,7.7,12.9
		c6.1,6.8,10.9,14.6,14.3,23.1c1.1,2.6,2.4,5.1,3.9,7.4c2.4-1.2,3.9-3.3,6.8-4c-6.4-10.2-10.3-21.3-17.2-30.9
		c-5-6.9-8.7-14.7-9.7-23.4c-0.4-4,1.7-6.8,3.9-9.6"/>
	<path class="st0" d="M767.1,772.2c-6.9,3.7-6.5,1.9-11.5-2.4c-3.8-3.2-6.3-7.5-10.1-11.7c-12,11.3-25.6,18.8-43.5,16.8
		c2.8,7.5,4.9,13.8,7.6,19.8c2.3,5.1,5.2,6.6,11,4.6c2-0.7,4.1-2.5,6.6-1.7"/>
	<path class="st0" d="M845.8,548.1c2.8,5.8,3.4,12.3,5.7,18.3c0.9,2.5-0.9,3.6-3.3,4.3c-7.4,2.2-15.4,3.3-22,7.3
		c-6.9,4.2-14.5,5.9-21.7,8.9"/>
	<path class="st0" d="M91.7,681c5.4,0.3,10.8-0.4,16.4,0.8c4.7,1,9.6,0.5,14.4,1.8c3.5,0.8,6.7,2.5,9.4,4.8
		c6.4,5.6,12.4,11.6,17.9,18.1c2.7,3.3,4.4,7.2,6.3,11"/>
	<path class="st0" d="M928.9,1533.5c-19.9,6.2-39.6,13.1-59,20.7c-2.5,1-6,0.3-7.2,3.8"/>
	<path class="st0" d="M141.7,557.2c0.3-2-0.4-3.9-1.9-5.3c-7.4-8.1-11.9-17.8-14.4-28.3c-1.4-6-1.9-12.1-1.6-18.2
		c0.1-2.1,0-4.2,0-6.8c-3.7,0.2-6.2,0.7-6.3,4.9c-0.3,17,3.6,32.4,14.8,45.7c2.1,2.3,4.3,4.3,6.8,6.2"/>
	<path class="st0" d="M845.8,546.1c-4.6,3-10.1,3.7-14.9,6.2c-5,2.7-10.6,4.1-14.1,9.5c-2.6,4-8.1,4-12.3,5.8
		c-0.6,0.3-0.9,0.7-1.8,1.2c-4.1-4.5-4.1-10.8-6.5-16.1c2.6-2.1,6-2.8,8.7-4.4c2.6-1.6,6.3-2,5.8-7.2c-0.2-2.1,4.2-4.6,7.2-6.3
		c6-3.5,12.3-6.5,18.8-9"/>
	<path class="st0" d="M78.8,926.8c-3.5,12.8-4.7,25.8-1.8,38.8c0.9,3.9,3.2,7.5,5.2,11c1.8,2.7,2.2,6.1,1.4,9.2"/>
	<path class="st0" d="M611.6,15.3c-0.2-2.7-0.2-5.5-0.5-8.1c-0.6-4.1-2.4-5.9-6.2-4.6c-4.8,1.5-9.8,1.1-14.5,1.4
		c-10.4,0.8-20.7,2.7-31.2,2.3"/>
	<path class="st0" d="M562.6,7.1c3.1,8.2,3.3,16.9,3.8,25.4c0.6,10.6,0.5,21.1,0.5,31.7"/>
	<path class="st0" d="M105.2,485.7c0.2,6-5.2,9.5-6.8,14.9c-4.3,13.8-7.6,27.7-7.1,42.3c0,1.5-0.2,3.1,1.7,3.8"/>
	<path class="st0" d="M720.1,673.8c-0.8,5.9,0.4,12-2.8,17.8c-4.8,8.8-13.1,12.3-21.7,15.2c-2.6,0.9-4.8-1.2-7.2-1.9
		c-2.1-0.7-4.2-1.6-6.2-2.4c-2.1,1.5-2.4,4.3-4.4,5.8"/>
	<path class="st0" d="M336.5,108.9c-8,4-16.7,6.3-25,10c-2.6-1.9-2.5-5.6-4.5-6.5c-9.5,0.2-17.6,2.1-21.4,11.4"/>
	<path class="st0" d="M173.8,998.8c4.6,10.6,4.2,21-3,30.2c-6.4,8.3-14.2,15.4-22.9,21.2"/>
	<path class="st0" d="M745,721.3c5.8,4,8.9,10.3,13.4,15.4c5.2,5.8,11,10.9,17.4,15.2c4.7,3.3,8.4,2.9,11.9-1.5
		c2.2-2.8,4.7-3.1,7.8-2.8"/>
	<path class="st0" d="M82.6,1020.9c1.5,2,1.4,4.5,2.4,6.7c3.5,7.9,8.3,14,16.2,18.5c9.3,5.3,16.4,13.4,21.2,23.7
		c-2.5,1.5-3.8,3.7-3,7.2c0.8,3.7,0.8,7.7,1.1,11.5"/>
	<path class="st0" d="M698,717.5c5.8-3.4,11.8-6.4,16.8-11c2.1-1.9,4.8-1.5,7.1,0c5.4,3.4,10.7,6.8,16,10.2
		c-2.2,5.2-2.1,4.9-7.8,3.8c-3.5-0.6-6.7-2-10.1-3C699.2,739,684.9,738,667.3,728"/>
	<path class="st0" d="M111.9,769.3c2.5,1.8,3.8,4.4,4.8,7.2c0.7,1.4,0.7,3,0,4.3c-1.6,3-2.8,6.4-4.9,9.1
		c-8.8,11.7-16.3,24.2-23.4,37c-0.6,1.2-1.5,2.4-2.4,3.4c-5-1.9-9.6-5-14.8-6.4c-3.3,5.9-5.4,12.2-7.7,18.4"/>
	<path class="st0" d="M338.9,1224.4c-2.5,1.7-5.3,1.7-8.2,2c-9.6,1.1-19.1,2.5-28.8,2.3"/>
	<path class="st0" d="M798.3,746.3c-4.2,2.4-5.3,7.1-8.1,10.6c-6.9,8.6-13.3,17.7-20.6,25.9c-2.2,2.5-5.2,3.2-7.9,4.5
		c-2.3,1.2-4.8,2.8-7.6,3.1"/>
	<path class="st0" d="M110.9,767.4c-5.6,11.6-14.2,20.8-23,29.8c-5.7,5.6-10.3,12.3-13.5,19.7"/>
	<path class="st0" d="M205.5,618.1c0.6-0.1,1.4,0.2,1.9-0.5c4.2-5.1,7.5-11,9.5-17.3c0.9-2.9,0.2-6-0.4-9.2
		c-0.5-2.7,0.4-5.8-1.4-8.6c-1.5-2.3-1.3-4.4,2.7-5.7c6.2,8.6,8.5,17.9,5.4,28.2c-2.6,8.3-7,15.8-12.9,22.1"/>
	<path class="st0" d="M102.8,520.2c1.3,2.7,1.2,5.8,2,8.6c4.2,15.5,13.5,27.3,27.3,35.5l2.4,1.4"/>
	<path class="st0" d="M471.9,50.8L446,57.6c-4.5-7.2-8.9-14.3-15.4-19.8c-2.1-1.7-3.8-2.2-6.8-1.1c-7.2,2.7-14.7,4.6-22,6.9"/>
	<path class="st0" d="M110.9,815.9c4.9,1.3,8.2,5.5,12.9,7.3c2,0.8,1.6,3.2,1.1,5.2c-1,3.8-2.8,7.4-1.5,11.5c0.2,0.8,0,1.7-0.5,2.3
		c-5.4,4.9-3.5,12.8-7.6,18.3c-3.7,5-3.2,6.1-8.2,7.2c-1.1-8.3,1.2-6.7-8.2-10.5c-4.6-1.9-9.6-2.8-14-5.2l2.7-5.2
		c7.8,3.8,16.2,6.1,23.3,11.3"/>
	<path class="st0" d="M100.4,756.9c-5.7-6.5-13.7-8.9-21.1-12.5c-7.7-3.7-15.3-7.5-23.5-10.2c-1.2-0.4-2.3-0.1-3.4-0.4"/>
	<path class="st0" d="M317.3,1204.2c-8.5,9.4-19.6,14.8-31.2,19.1c-4.4,1.6-8.5,3.9-13.4,4c-1.1,0-1.9,0.9-2,1.9c0,0.1,0,0.3,0,0.4"
		/>
	<path class="st0" d="M101.3,531.7c-2.3,1.4-2.3,1.4-1.9,3.4c0.4,2.4,1.2,4.7,2.3,6.8c1.3,1.9,1.9,4.3,1.4,6.7
		c-1.2,4.6,1.1,8.2,3.5,11.5c8,11,19.1,18.3,30.7,24.9c1.8,1.1,3.8,2.1,5.7,3"/>
	<path class="st0" d="M101.3,550c2.6-0.1,4.3,1.2,5.8,3.3c7.9,12,19.1,20,31.6,26.5c1.9,1,3.8,0.9,5.8,0.9"/>
	<path class="st0" d="M64.4,952.2c-1.1-4.9-0.8-10.1,0.9-14.9c1.9-5.3,1.7-5.5-4.4-7.2c-3.2,4.7-4,9.9-3.7,15.4"/>
	<path class="st0" d="M343.7,69.5l7,5c-13.6,8.5-27.5,15.7-41,23.5c-6.7-8.3-5.8-8.9-15-1.6c-8.4,6.7-17.3,12.7-25.7,19.8
		c3.4,2.4,3.5,5.1,3,9.2c-1,7.8-4.5,13.2-10.9,17.2"/>
	<path class="st0" d="M279.9,1210.9c-1-0.5-2.2-0.4-2.9,0.4c-9.8,7.2-20.8,11.5-32.6,14.1c-2.2,0.5-4.8,0.2-6.2,2.6"/>
	<path class="st0" d="M559.7,1518.6c-1.4,5.9,0,11.8-0.9,17.8c-1,7.2-2.5,14.4-3.5,21.6"/>
	<path class="st0" d="M101.8,574.9c0.9,3.3,2.9,6.2,4,9.5c1.4,4,3.7,7.8,8.4,9.2c6.7,2.1,9.6,7.5,11.2,14.5
		c-7.1-0.4-14.7-3.5-20.3,3.2"/>
	<path class="st0" d="M101.8,532.7c5.2,18.2,17.3,30.6,33.6,39.3c0.8,0.4,1.6,0.7,2.4,1"/>
	<path class="st0" d="M141.7,599.9c-1.1,2.9,1.1,5,2.1,7.1c4.6,10.1,9.8,19.9,14.7,29.8"/>
	<path class="st0" d="M99.9,551.9c-1,1.1-0.6,2.4,0,3.3c3.8,6.1,6.1,13.1,11.9,17.8c3.4,2.7,6.7,5.7,5,11c-0.3,0.9,0.8,2.2,1.3,3.3"
		/>
	<path class="st0" d="M224.2,1227.3c5.9,1,11.9,1.1,17.9,2.4c6.4,1.4,13.5,2.7,20.6,0.7c5.2-1.5,10.8,0.6,16.3,0.8"/>
	<path class="st0" d="M708.1,815.9c3.5,3,3.7,7.9,6.1,11.6c1.8,2.8,2.5,3.3,6,2.6c3.9-0.7,7.9-1.1,11.9-1.3"/>
	<path class="st0" d="M190.1,1219.6c10.1,4.4,20.3,5.2,30.7,1"/>
	<path class="st0" d="M207.4,575.9c-4.4,4.7-3.3,10.6-2.7,15.8c0.7,6-0.8,10.5-5,14.4"/>
	<path class="st0" d="M205,201c-7.9,0.1-14.8,2.5-19.7,9.1c-2.5,3.4-5.1,6.7-7.7,10.1"/>
	<path class="st0" d="M19.3,772.7c-3.2,0.3-4.1,3.2-5.8,5.3c-4.1,5-7.7,10.5-10.5,16.4c-1,1.9-1.7,4.3-0.6,6.7c0.5,1,1,0.3,1.5,0.2"
		/>
	<path class="st0" d="M690.8,641.2c6.9,0.6,13.8,0.9,20.6,2.1c4,0.7,7.4-1,11.1-1.1"/>
	<path class="st0" d="M169,598.9c7.9,2.4,16-0.5,24,0.5c1.6,0.2,3.5-0.8,4.8,0.9"/>
	<path class="st0" d="M102.3,451.1c-4.3,6.1-7,13.2-7.3,20.2c-0.4,9.1-2.3,17.9-2.7,26.9"/>
	<path class="st0" d="M103.3,493.8c0.7,2.8,0.2,5.4-0.3,8.2c-0.9,3.8-0.9,7.7,0,11.4c1.3,4.6-2,6.2-4,8.7"/>
	<path class="st0" d="M41.8,756.4c-6.2-3.8-6.6-3.7-12,2.4c1.9,3.4,0.2,7.3-4.4,9c-3.6,1.3-5.9,3.1-5.8,7.3c0,1.2-0.9,2.3-1.8,3.4
		c-5.2,6.6-9.6,13.9-13,21.6"/>
	<path class="st0" d="M170,669.5c4,5.9,4.3,12.5,3.7,19.2c-0.1,2.4-1.8,4.4-4.2,4.8"/>
	<path class="st0" d="M36.5,844.2c0.5,1.6,2.5,3,0.9,4.8c-1.2,1.3-3.1,2.4-4.7,1.9c-5.1-1.6-10.3-0.5-15.4-0.8
		c-3.8-0.3-5.9-2.5-5.8-6.3"/>
	<path class="st0" d="M753.7,751.1c3.7,3.6,6.9,7.8,11,11.1c5.9,4.6,7.1,4.6,12.5-1"/>
	<path class="st0" d="M149.3,289.8c-0.6-0.8-0.6-2,0.1-2.8c7-6.5,11-15.2,17-22.5l-4.5-5.3c-6.1,0.2-10.3,3.4-13.1,8.5
		c-3.1,5.8-6.6,11.3-9,17.6c-2.3,6.1-6.3,11.8-9.2,17.9c-0.8,1.7-2.5,3.5-1,5.7"/>
	<path class="st0" d="M134.9,656.5c2.9,5.9,5.9,11.8,8.6,17.8c0.8,1.7,2.7,3.5,1,5.7"/>
	<path class="st0" d="M207.4,574c4,6.7,4.5,14.3,3.6,21.6c-0.7,5-2,10.7-6.4,14.4"/>
	<path class="st0" d="M56.7,856.7c1,3.8,4.3,3.6,7.2,4.4c4.9,1.4,9.2,4.5,14.4,5.2"/>
	<path class="st0" d="M118.6,834.6c-3.2-3.9-7.6-6.1-12-8.4c-1.6,1.5-2.1,3.3-3.2,5.3c5.9,3.8,12.7,6.4,15.8,13.2"/>
	<path class="st0" d="M192.5,609.5c-5.9-1.1-11.9-1.7-17.8-3.3c-1.5-0.3-3.1,0.1-4.3,0.9"/>
	<path class="st0" d="M467.6,1225.3c1.2,1.8,3.1,2.7,4.8,3.8c13.3,8.3,20.8,21.4,28.8,34.2"/>
	<path class="st0" d="M1214.9,1542.6c-5.9-1.6-11.9-3-17.7-4.9c-2.9-0.9-6.5,1.1-8.7-2.3"/>
	<path class="st0" d="M662,704.5c-2.6,7-1.9,14.7,1.9,21.1"/>
	<path class="st0" d="M96.1,530.8c-1.6,2.4-0.8,5.1-1,7.7c-0.2,4.2-2.4,8.2-1.9,12.5c0.5,4.7,0.3,9.4,4.7,13.1
		c4.6,3.9,4.3,6.3,0.6,11.3c-0.6,0.8-1.3,1.6-0.9,2.4c2.7,5.6,0.4,12.1,3.6,17.9c2.9,5.1,2.8,11.4,3.4,17.2c0.5,4.2,0.6,8.4,2,12.5
		c0.2,0.7-0.3,1.6-0.4,2.4"/>
	<path class="st0" d="M1192.9,1538.3c5.6,7.2,13,12.3,19.7,18.2"/>
	<path class="st0" d="M154.6,597.5c-1.1-2.2-1.2-5.2-4.8-5.4c-1.6-0.1-2-2-2.3-3.3c-1.9-6.9-5-13.9-4-21.1c0.5-3.7-1.5-9.2,4-11.9
		c1.6,1.7,3.5,2.7,2.4,5.7c-1.4,4.5-1.8,9.2-1,13.9"/>
	<path class="st0" d="M93.2,498.9c-2.1,6.3-1.9,12.9-2.4,19.4"/>
	<path class="st0" d="M755.6,780.9c-2.7,2-4.6-0.2-6.2-1.5c-2-1.7-3.6-4.1-5.3-6.2c-3.5,0.3-4.8,3.8-8,4.6c2,4.2,4.2,7.7,7.8,10.3
		c-1.3,1-2.4,2-3.6,2.9c-4.2,2.9-7,2.4-9.6-1.9c-1.2-2-0.8-5.2-4.3-5.3c-2.9-0.1-5.8,0.8-8.1,2.7c1.3,4.3,4,7.6,6.2,11.2"/>
	<path class="st0" d="M41.8,843.3c0.2,0.5,0.5,1,0.5,1.4c-0.3,2.3,2.5,4.5,0.5,6.7c-2.5,2.6-5.9,4.2-9.5,4.3
		c-3.3,0.2-6.8-0.7-9.6,1.9"/>
	<path class="st0" d="M73.5,871.1c-0.8-1.3-2.2-1.3-3.4-2.3c-3.1,3-3.4,6.9-4.4,10.6c-1.4-1.4-3.8,0.3-5.4-1.8
		c0.9-3.7,3.5-6.7,5-10.3c-0.7-2-3,0.2-3.6-1.9c-3.3,3.9-6.4,7.5-9.4,11c-1.8-0.8-4.1-0.8-5.7-2.4"/>
	<path class="st0" d="M139.7,598.5c1.5,0.9,3.1,1.5,4.8,1.7c3.5,0.6,5.2,2.7,6.1,5.5c1,3.3,3.5,6,6.8,7.2"/>
	<path class="st0" d="M153.7,645.7c1.1,4.3,6,4.2,8.3,7.3c3.1,4,5.6,8.4,7.4,13.1c1.2,3-2.2,2.8-3.9,3.9c-3.6-2.7-7.3-5.3-7.1-10.7"
		/>
	<path class="st0" d="M975.9,1550.8c-4.8,2.5-10.2,3.3-15.4,4.7c-1.2,0.3-1.9,1.1-2.9,1.5"/>
	<path class="st0" d="M134,321.5c-4.7,6.5-11.3,11.3-15.4,18.2"/>
	<path class="st0" d="M114.8,847.1c-3.9-4.1-9-6.2-13.6-8.7c-2.8,0.8-2.2,3.5-4.3,4.8c5.7,4.5,13.8,5,16.5,12.4
		c-0.5,2.1-3.4,2.8-2.9,5.3"/>
	<path class="st0" d="M503.1,1265.2c2.8,5.7,4,12.2,8.2,17.3"/>
	<path class="st0" d="M159.4,612.4c-3.8,3.4-3.7,6.9-1,11.1s4.1,9.2,7.7,13.2c1.4-1.2,2.4-2.8,2.9-4.6"/>
	<path class="st0" d="M47.1,855.7c-3.4,3.1-7,5.7-12,5.9c-1.6,0-3.2,1.2-4.8,1.8"/>
	<path class="st0" d="M548.2,1442.8c5,3.6,10.8,4.4,16.8,4.3"/>
	<path class="st0" d="M116.2,584.5c-4.6-2.3-7.8-5.9-10.6-10.1c-1-1.5-1.3-3.7-3.8-3.4"/>
	<path class="st0" d="M792.5,486.6c5-4.2,7.8-10.4,12.9-14.7c5.9,3,10.8,7.2,16.4,10.4"/>
	<path class="st0" d="M46.6,872.1c3.3-2.4,6.8-4.6,9.2-8.1c-0.8-1.8-2.4-2.6-4.2-3.7c-3.5,3.9-8.1,6.6-13.2,7.8
		c-1.3,0.3-3,0.7-4.3-0.4c-5.7-4.8-11.2-9.9-17.3-14.4c-1.2-0.9,0.5-1.6,0-2.4"/>
	<path class="st0" d="M98.9,439.6c-0.6,5.2-2.7,10.1-2.9,15.4"/>
	<path class="st0" d="M552.5,1395.7c-4.3,3.7-9.5,4.1-14.9,3.8"/>
	<path class="st0" d="M81.2,868.2c5.5,3,6.5,5,5.2,10.6c-0.5,2.3-1.3,4.5-1.9,6.7c-0.8,3.4-2.4,2.8-4.3,1"/>
	<path class="st0" d="M510.8,1288.2c0.8,4.9,1.3,9.9,3.8,14.4"/>
	<path class="st0" d="M94.6,562c-1.2,4.8-0.1,9.9,2.9,13.9"/>
	<path class="st0" d="M110.5,816.9c-1.2,0.6-0.8,2-1.4,3.3c5.1,2.6,9.2,7,13.8,10.7"/>
	<path class="st0" d="M184.9,590.8c-4.7,0.9-9.4,2.2-13.9,3.8"/>
	<path class="st0" d="M118.1,790c-1.3,2.6,2.2,3.5,1.8,6.4c-1.7,2.5-3.6,4.9-5.7,7.1c1.4,6.9,3,7.5,10.1,4.2"/>
	<path class="st0" d="M147.4,584.5c4.5,0.8,9.3-0.1,13.4,2.4"/>
	<path class="st0" d="M154.6,694.5c2.1,2.6,3.3,5.7,4.8,8.7c0.8,1.5,1.6,2.6,3.4,2.9"/>
	<path class="st0" d="M169.5,993c1.3-2.2,1.4-4.5-0.5-6.2c-1.7-1.4-3.8-0.5-5.7,0.4"/>
	<path class="st0" d="M122.9,787.8c-0.2,4.2-0.7,8.4,4.3,10.3"/>
	<path class="st0" d="M671.1,702.1c-0.6,2.1-1.2,4.2-1.8,6.2c2.5,4.2,5.7,7.8,10.9,8.7"/>
	<path class="st0" d="M158,988.7c-1.2,6.2-0.6,6.9,6.2,8.6"/>
	<path class="st0" d="M319.3,1222.5c6.1-0.9,12.2-2,18.2,0"/>
	<path class="st0" d="M197.8,589.3c5.3,5.4,2.4,9.9-1.4,14.4"/>
	<path class="st0" d="M81.2,872.1c2.7,3.8,1.8,7.5-0.5,11"/>
	<path class="st0" d="M135.4,670.5c4.4,6.9,11.3,11.6,15.4,18.7"/>
	<path class="st0" d="M120.5,1093.3c-1.6,1.3-1.4,3.1-1.4,4.8s0.1,3.5-1.4,4.8"/>
	<path class="st0" d="M162.3,633c-4.8,4.2-2.2,8.4,0.1,12.5c1.4,2.4,2.5,4.6,0.9,7.2"/>
	<path class="st0" d="M115.3,808.7c-2,1.6-1.8,2.6,0.4,3.9c2.6,1.4,5.4,2.6,7.2,5.2"/>
	<path class="st0" d="M156.1,649.8c-0.5,3.9,1.1,7,3.8,9.6s4.8,5.2,4.3,9.1"/>
	<path class="st0" d="M116.2,1132.7v9.6"/>
	<path class="st0" d="M562.1,1547.9c-2.1,2.7-0.9,6.2-1.9,9.1"/>
	<path class="st0" d="M167.6,603.3h-9.1"/>
	<path class="st0" d="M561.7,1543.6c1.3,4.6,4.7,8.2,5.8,13"/>
	<path class="st0" d="M100.9,586c1.8,2.8,4.3,5.5,1.9,9.1"/>
	<path class="st0" d="M166.6,596.5c-3.7,1.6-7.9,0.1-11.5,1.9"/>
	<path class="st0" d="M123.9,804.9c-3.3-3.2-5.7,1.1-8.6,1"/>
	<path class="st0" d="M287.1,123.7c2.7,0.9,5.9-0.1,8.1,2.5c-1.1,3.8-6,4.9-6.7,9"/>
	<path class="st0" d="M95.1,862.9c2.1,3.3-0.8,5.8-1.4,8.6"/>
	<path class="st0" d="M168.5,582.1c1.1,2.8,0.2,5.8,0.5,8.6"/>
	<path class="st0" d="M155.6,598.9c1.5,2,2.7,3.8,2.1,6.8c-0.5,2.5,1.5,5.1,3.6,6.9"/>
	<path class="st0" d="M64.9,956.1c0.7,2.8,1.1,5.5-0.5,8.2"/>
	<path class="st0" d="M155.1,580.2c-2.8,0-5.6-0.3-8.2,1"/>
	<path class="st0" d="M165.7,583.1c-0.9,2.7-0.3,5.5-0.5,8.2"/>
	<path class="st0" d="M99.4,511.6l1,8.2"/>
	<path class="st0" d="M110.5,435.3l-4.8,7.7"/>
	<path class="st0" d="M166.6,625.8c-0.7,3-1.5,6,3.4,5.8c1-1.8,1.5-3.8,0.5-5.8"/>
	<path class="st0" d="M204.5,621c1.4-3.4,0.1-6.6-1.1-9.5c-1-2.4-4-1.3-6.1-1.5"/>
	<path class="st0" d="M93.2,862.9c-0.8,1.3-0.7,2.9-1,4.3c-0.7,2.7-1.4,2.7-4.2,0.5"/>
	<path class="st0" d="M181,575.9c1.1,1.8,0.9,4,1.6,5.7c1.2,3.1,4.1,4.7,7.6,4.8"/>
	<path class="st0" d="M108.5,987.7c-2.9-1.2-5.4-0.8-7.2,1.9"/>
	<path class="st0" d="M194.5,577.8c2.4,3.1,0.9,7.3,2.9,10.6"/>
	<path class="st0" d="M185.8,617.7c-0.8,2.4-2.8,4.3-5.3,4.8"/>
	<path class="st0" d="M158.9,639.3c-3.3,0.2-2,4.2-4.3,5.3"/>
	<path class="st0" d="M117.7,777c2.8,0.1,3.7,3.4,6.2,3.8"/>
	<path class="st0" d="M58.6,947.4c0.7,1.9,3.1,3.4,1,5.8"/>
	<path class="st0" d="M193.5,611.4c2.3,0.2,2.9,3.2,5.8,3.5l3.8-3"/>
	<path class="st0" d="M145,575.9c5-0.7,9.9,1.5,14.9,1"/>
	<path class="st0" d="M148.9,286.5c-1.2-0.6-0.6-2.1-1.6-2.8c-2.4-1.3-4,2.1-6.5,1.4"/>
	<path class="st0" d="M990.3,1383.3c1,1.8,0.2,4.2,1.9,5.8"/>
	<path class="st0" d="M151.7,587.9c1.5,2,4.3,0,5.8,1.9"/>
	<path class="st0" d="M44.2,841.8c-2.4,2.2-5.8-0.4-8.2,1.9c-0.6,0.7-2,0.6-1.9,1.9"/>
	<path class="st0" d="M170.9,612.9c1.8,2.8,2.8,5.7,1.5,9.1c-1.5,3.9-3.1,4.4-7.2,1.9"/>
	<path class="st0" d="M56.7,946.5c-1.8,2.2-2.2,4.5,0,6.7"/>
	<path class="st0" d="M123.9,786.6c1.8-2.6,3.3-1.1,4.2,0.5c0.5,0.9,0.7,2,1.5,2.8"/>
	<path class="st0" d="M162.3,613.8c1.5,1.4,2.7,3.2,4.9,3.8c-1,1.9-2.8,3.4-2.5,5.8c-0.2,0-0.4,0.1-0.5,0c-0.2-0.1-0.3-0.3-0.5-0.5"
		/>
	<path class="st0" d="M182,582.1c-3.3,1.7-7,2.8-8.7,6.7c-0.9,1.9-3.8,1.4-5.2,2.9"/>
	<path class="st0" d="M71.1,877.3h4.8"/>
	<path class="st0" d="M90.8,859.6c-1.4-1.7-2.9-1-4.3,0"/>
	<path class="st0" d="M71.1,875.4c-1,1.9-1.6,3.7,0.5,5.3"/>
</g>
</svg>
