<?xml version="1.0" encoding="utf-8"?>
<!-- Generator: Adobe Illustrator 24.3.0, SVG Export Plug-In . SVG Version: 6.00 Build 0)  -->
<svg version="1.1" id="Layer_1" xmlns="http://www.w3.org/2000/svg" xmlns:xlink="http://www.w3.org/1999/xlink" x="0px" y="0px"
	 viewBox="0 0 403.8 365" style="enable-background:new 0 0 403.8 365;" xml:space="preserve">
<style type="text/css">
	.st0{fill:none;stroke:#686868;stroke-linecap:round;stroke-linejoin:bevel;}
</style>
<g>
	<polyline class="st0" points="14.7,101.7 238,230.6 245.3,226.4 396.8,138.9 173.5,10 43.5,85 43.5,85 	"/>
	<line class="st0" x1="106.3" y1="147.7" x2="104.5" y2="147.7"/>
	<polyline class="st0" points="48.6,87.9 173.5,15.9 386.6,138.9 245.2,220.5 	"/>
	<line class="st0" x1="156.5" y1="176.7" x2="154.7" y2="176.7"/>
	<polyline class="st0" points="374.5,250.4 396.8,237.6 396.8,138.9 245.3,226.4 238,230.6 238,329.3 239.2,328.6 	"/>
	<polygon class="st0" points="14.7,101.7 14.7,200.3 238,329.3 238,230.6 	"/>
	<polygon class="st0" points="245.3,201.6 22,72.6 14.7,76.9 238,205.8 245.3,201.6 	"/>
	<polyline class="st0" points="238,230.6 238,205.8 238,205.8 14.7,76.9 14.7,101.7 	"/>
	<polygon class="st0" points="248.2,238.7 386.5,158.8 386.5,176.7 248.2,256.6 248.2,238.7 	"/>
	<polygon class="st0" points="238,205.8 238,230.6 245.3,226.4 245.3,201.6 	"/>
	<polygon class="st0" points="77.2,117 80.5,118.9 80.5,132.5 86.3,135.8 86.3,139 77.2,133.8 	"/>
	<path class="st0" d="M93.7,126.3c-4.3-2.5-7.1-0.3-7.1,4.7c0,5,2.6,9.8,6.8,12.5c4.2,2.5,7.1,0.8,7.1-4.7
		C100.6,133.7,98,129,93.7,126.3z"/>
	<path class="st0" d="M93.7,140.5c-2.2-1.3-3.6-4.3-3.6-7.6l0,0c0-3.3,1.2-5,3.5-3.7s3.6,4.6,3.6,7.6
		C97.1,140.1,95.8,141.8,93.7,140.5L93.7,140.5z"/>
	<path class="st0" d="M115,154.7c-1.7-0.4-3.3-1-4.8-1.8c-2.4-1.3-4.5-3.3-5.9-5.7c-1.3-2.2-2-4.7-2-7.3c0-5.5,3.6-6.7,8.3-4
		c1.5,0.8,2.8,1.9,4,3.1l-0.7,2.7c-1-1.1-2.1-2-3.4-2.7c-2.7-1.6-4.8-0.9-4.8,2.7c0,3.3,1.7,6.4,4.6,8.1c0.5,0.3,1.1,0.6,1.6,0.7
		v-3.4l-2.2-1.3v-2.9l5.4,3.1L115,154.7z"/>
	<polygon class="st0" points="120.8,142.1 120.8,158.9 117.5,157 117.5,140.2 	"/>
	<path class="st0" d="M123.8,156.7c1,1.2,2.3,2.3,3.6,3.1c1.5,0.9,2.3,0.6,2.3-0.5c0-1.1-0.7-2-2.4-3.8c-2.4-2.4-4-4.8-4-7.2
		c0-2.8,2.1-3.9,5.5-1.9c1.4,0.8,2.6,1.8,3.7,3l-0.7,2.7c-0.9-1-1.9-1.9-3-2.5c-1.4-0.8-2.1-0.5-2.1,0.4c0,1.1,0.8,2,2.7,3.9
		c2.6,2.6,3.8,4.8,3.8,7.2c0,2.8-1.9,4.1-5.9,1.8c-1.5-0.9-2.9-2.1-4.1-3.4L123.8,156.7z"/>
	<polygon class="st0" points="138.1,155.3 134.2,153.1 134.2,149.9 145.3,156.3 145.3,159.5 141.3,157.3 141.3,170.9 138,169 	"/>
	<polygon class="st0" points="150.4,159.2 150.4,175.9 147.1,174 147.1,157.3 	"/>
	<path class="st0" d="M163.9,183.3c-1.3-0.2-2.6-0.7-3.7-1.4c-4.6-2.6-7.5-7.5-7.6-12.8c0-5.7,3.6-6.9,7.9-4.3
		c1.3,0.8,2.5,1.7,3.6,2.8l-0.7,2.6c-0.8-0.9-1.7-1.6-2.8-2.2c-2.6-1.5-4.6-0.9-4.6,2.8c0,3.4,1.7,6.5,4.6,8.2
		c0.8,0.5,1.8,0.8,2.7,1L163.9,183.3z"/>
	<path class="st0" d="M166.1,181.1c1,1.2,2.3,2.3,3.6,3.2c1.5,0.9,2.3,0.6,2.3-0.5s-0.7-2-2.4-3.8c-2.4-2.4-4-4.8-4-7.2
		c0-2.8,2.1-3.9,5.5-1.9c1.4,0.8,2.6,1.8,3.7,3l-0.7,2.6c-0.9-1-1.9-1.9-3-2.5c-1.4-0.8-2.1-0.5-2.1,0.4c0,1.1,0.8,2,2.7,3.9
		c2.6,2.6,3.8,4.8,3.8,7.2c0,2.8-1.9,4.1-5.9,1.8c-1.5-0.9-2.9-2-4.1-3.4L166.1,181.1z"/>
	<polyline class="st0" points="46.6,214.2 46.6,215.2 104.3,248.6 104.3,247.5 	"/>
	<polygon class="st0" points="46.6,215.3 43.6,217 43.6,160.7 46.6,162.5 46.6,215.3 	"/>
	<polyline class="st0" points="151.4,232.8 151.4,275.8 209.2,309.1 209.2,266.2 	"/>
	<line class="st0" x1="209.2" y1="266.9" x2="209.2" y2="265.1"/>
	<line class="st0" x1="151.4" y1="233.6" x2="151.4" y2="231.8"/>
	<polygon class="st0" points="151.4,275.8 148.4,277.6 148.4,221.3 151.4,223 	"/>
	<polygon class="st0" points="151.4,275.8 148.4,277.6 209.2,312.7 209.2,309.1 151.4,275.8 	"/>
	<polygon class="st0" points="46.6,215.2 43.5,217 104.3,252.1 104.3,248.5 	"/>
	<polygon class="st0" points="238,269 238,327.9 239.2,328.5 285.7,355.4 285.7,305.6 	"/>
	<polyline class="st0" points="322.7,300.5 322.7,300.5 304,311.2 304,333.2 	"/>
	<polygon class="st0" points="285.7,305.6 285.7,355.4 377.4,302.5 377.4,252.7 	"/>
	<polygon class="st0" points="322.7,322.4 304.1,333.2 304.1,311.2 322.7,300.5 	"/>
	<polygon class="st0" points="359.8,301 341.2,311.7 341.2,289.8 359.8,279 	"/>
	<polygon class="st0" points="377.4,256.6 377.4,252.7 285.7,305.6 238,269 238,273 285.7,309.6 	"/>
	<polygon class="st0" points="377.4,252.7 329.7,216.1 238,269 285.7,305.6 	"/>
	<polygon class="st0" points="341.2,289.8 341.2,311.7 341.2,311.7 	"/>
	<polyline class="st0" points="341.2,311.7 341.2,289.8 359.8,279 	"/>
	<polyline class="st0" points="252.6,336.3 252.8,295.9 270,305.8 270,345.4 	"/>
	<polygon class="st0" points="46.6,162.5 46.6,215.3 104.3,248.6 104.3,195.8 	"/>
	<polyline class="st0" points="151.4,232.8 151.4,223 209.1,256.4 209.1,266.2 	"/>
</g>
</svg>
