<svg xmlns="http://www.w3.org/2000/svg" viewBox="0 0 409.71 389.5"><defs><style>.cls-1,.cls-2,.cls-3{fill:none;stroke:#21262d;}.cls-2{opacity:0.2;}.cls-2,.cls-3{isolation:isolate;}.cls-3{opacity:0.3;}</style></defs><g id="Layer_2" data-name="Layer 2"><g id="Layer_1-2" data-name="Layer 1"><line class="cls-1" x1="268.66" y1="227.57" x2="268.66" y2="227.56"/><path class="cls-1" d="M164.64,288.29,50.22,354.35l-7.1-4.12v-.1L44,325,44.86,300l.29-8.37.58-16.64v-.21l.28-8.18v-.17l.58-16.66v0l.29-8.34h0l.58-16.73v-.07l.29-8.3v0l.58-16.76v0l.29-8.34v0l.58-16.63v-.07l1-28.83A8.43,8.43,0,0,1,54,139l85.75-49.54h0"/><path class="cls-1" d="M161,77.18h0l17.05-9.85,10.38-6A13.67,13.67,0,0,0,193.61,55l4.31-12.16a13.12,13.12,0,0,1,5.25-6.26L266.64,1c2.1-1.18,3.83-.18,3.83,2.23v51.6"/><line class="cls-2" x1="268.66" y1="227.57" x2="268.66" y2="227.56"/><path class="cls-2" d="M164.64,288.29,50.22,354.35l-7.1-4.12v-.1L44,325,44.86,300l.29-8.37.58-16.64v-.21l.28-8.18v-.17l.58-16.66v0l.29-8.34h0l.58-16.73v-.07l.29-8.3v0l.58-16.76v0l.29-8.34v0l.58-16.63v-.07l1-28.83A8.43,8.43,0,0,1,54,139l85.75-49.54h0"/><path class="cls-2" d="M161,77.18h0l17.05-9.85,10.38-6A13.67,13.67,0,0,0,193.61,55l4.31-12.16a13.12,13.12,0,0,1,5.25-6.26L266.64,1c2.1-1.18,3.83-.18,3.83,2.23v51.6"/><path class="cls-1" d="M21.81,141v-8.19m135-53.19v-.14m-135,258.35L3.52,348.38c-1.68,1-3,.24-3-1.72V99.39a6.68,6.68,0,0,1,3-5.25L153.74,7.42v0a1.87,1.87,0,0,1,3,1.72V30.26"/><path class="cls-1" d="M139.21,40.4h0l-.48.24L68.2,81.4l-.07,0"/><line class="cls-1" x1="139.01" y1="65.14" x2="138.99" y2="65.15"/><path class="cls-1" d="M139,89.76a4.43,4.43,0,0,1,.79-.31h0"/><path class="cls-1" d="M21.81,141V359c0,1.92,1.36,2.71,3,1.72l18.27-10.55"/><path class="cls-1" d="M178.08,67.32V21.52c0-2-1.35-2.69-3-1.82L156.78,30.26,139.21,40.4h0l-71,41-.07,0-43.28,25a6.59,6.59,0,0,0-3,5.25v21.12"/><path class="cls-1" d="M139,89.76l17.81-10.28,3.34-1.93a4.26,4.26,0,0,1,.88-.37h0"/><line class="cls-1" x1="278.37" y1="183.94" x2="278.37" y2="183.93"/><line class="cls-1" x1="268.66" y1="227.57" x2="268.66" y2="227.56"/><path class="cls-1" d="M164.63,288.25,50.22,354.35,51.93,345,57,317.52,84.93,165.8a10.79,10.79,0,0,1,4.58-6.5l67.27-38.83,21.3-12.3,92.39-53.34,31.67-18.28c2.07-1.2,3.43-.24,3,2.11L297,83"/><line class="cls-1" x1="283.45" y1="156.35" x2="283.45" y2="156.34"/><path class="cls-1" d="M292.28,364.41,251.37,388a7.25,7.25,0,0,1-7.39,0,184.68,184.68,0,0,1-79.34-99.7s0,0,0,0a184.32,184.32,0,0,1-9.36-57.94V168.19a6.66,6.66,0,0,1,3-5.25L297,83l18.75-10.81c1.66-1,3-.21,3,1.71V136A184.67,184.67,0,0,0,408,294.16v0a1.87,1.87,0,0,1,0,3.53l-91.07,52.51"/><path id="Path" class="cls-1" d="M247.67,172.9c0,2.27,1.71,3.12,3.79,1.91l42.15-24.33a8.15,8.15,0,0,0,3.78-6.26c0-2.29-1.72-3.14-3.78-1.94L251.46,166.6A8.11,8.11,0,0,0,247.67,172.9Z"/><path id="Path-2" data-name="Path" class="cls-1" d="M178.7,245.5c.31,2.1,2.32,2.78,4.41,1.58l113.23-65.33a6.45,6.45,0,0,0,3.17-6c-.31-2.07-2.21-2.79-4.29-1.58L182,239.55a6.47,6.47,0,0,0-3.3,5.95Z"/><path id="Path-3" data-name="Path" class="cls-1" d="M183.32,267.45c.56,1.94,2.72,2.52,4.83,1.32l113.23-65.35a5.55,5.55,0,0,0,2.77-5.69c-.55-2-2.65-2.58-4.74-1.38L186.18,261.7a5.55,5.55,0,0,0-2.86,5.75Z"/><path id="Path-4" data-name="Path" class="cls-1" d="M190.42,288c.75,1.83,3.07,2.33,5.25,1.13L308.9,223.75a4.68,4.68,0,0,0,2.36-5.49,3.42,3.42,0,0,0-4.52-1.51,4.35,4.35,0,0,0-.55.36L192.8,282.46A4.77,4.77,0,0,0,190.42,288Z"/><path id="Path-5" data-name="Path" class="cls-1" d="M199.65,307.27a4,4,0,0,0,5.54.89l113.23-65.31a4.08,4.08,0,0,0,2-5.15,3.88,3.88,0,0,0-5.4-1h0L201.83,302a4.14,4.14,0,0,0-2.18,5.24Z"/><path id="Path-6" data-name="Path" class="cls-1" d="M265,302.31a4.8,4.8,0,0,0,6,.63l63.48-36.61a3.42,3.42,0,0,0,1.71-4.53h0a1.85,1.85,0,0,0-.19-.37,4.64,4.64,0,0,0-5.95-.69l-63.48,36.73a3.43,3.43,0,0,0-1.9,4.31,3.32,3.32,0,0,0,.33.53Z"/><path class="cls-1" d="M292,338.53a169.85,169.85,0,0,0,24.89,11.69c12.38,4.65,27.83,8.81,44.44,9.44-8.14,4.7-26.48,6.64-40.65,4.7,0,0,2,8.24,16.27,18.76,0,0-15.78,4.25-44.67-18.71A192.3,192.3,0,0,1,276,349.8"/><path class="cls-1" d="M280.37,340.7l.05,0,2.52-1.44,0,0"/><path id="Path-7" data-name="Path" class="cls-1" d="M253,344.49c7.12,7.24,21.48,7.84,31.29,2.18s11.34-15.44,4.22-22.73-20.15-9.13-30-3.43S245.9,337.29,253,344.49Z"/><path id="Path-8" data-name="Path" class="cls-2" d="M253,344.49c7.12,7.24,21.48,7.84,31.29,2.18s11.34-15.44,4.22-22.73-20.15-9.13-30-3.43S245.9,337.29,253,344.49Z"/><path id="Path-9" data-name="Path" class="cls-1" d="M269.51,343.07A24.65,24.65,0,0,0,281.76,340c3.43-2,5.59-4.63,5.95-7.41a8.58,8.58,0,0,0-2.83-7,19.26,19.26,0,0,0-13.59-5.25,19.89,19.89,0,0,0-10,2.61,12.85,12.85,0,0,0-6.87,8.95,7.88,7.88,0,0,0,2.37,6.87,17.94,17.94,0,0,0,12.75,4.32Z"/><path id="Path-10" data-name="Path" class="cls-3" d="M269.51,343.07A24.65,24.65,0,0,0,281.76,340c3.43-2,5.59-4.63,5.95-7.41a8.58,8.58,0,0,0-2.83-7,19.26,19.26,0,0,0-13.59-5.25,19.89,19.89,0,0,0-10,2.61,12.85,12.85,0,0,0-6.87,8.95,7.88,7.88,0,0,0,2.37,6.87,17.94,17.94,0,0,0,12.75,4.32Z"/></g></g></svg>