<svg xmlns="http://www.w3.org/2000/svg" viewBox="0 0 364.26 701.23"><defs><style>.cls-1,.cls-2,.cls-3{fill:#fff;stroke:#21262d;}.cls-2{opacity:0.3;}.cls-2,.cls-3{isolation:isolate;}.cls-3{opacity:0.2;}</style></defs><g id="Layer_2" data-name="Layer 2"><g id="Layer_1-2" data-name="Layer 1"><path id="Path" class="cls-1" d="M3.79,643.15h0L84.73,466.41h0l.14-.14h0c1.73-4.19,6.35-7.36,13.13-8.37a49.24,49.24,0,0,1,41.41,16.55c4.33,5.63,5.48,11.11,3.6,15.29L80.4,673.12h0A41.22,41.22,0,0,1,3.07,644.55h0a4.72,4.72,0,0,1,.57-1.3Z"/><path id="Path-2" data-name="Path" class="cls-1" d="M143.1,489.78,80.48,673.16A41.19,41.19,0,0,1,28,698.41h0a42.42,42.42,0,0,1-17-11.25c10.82,8.65,35.63,3.75,47.75-25.69s52.52-144.42,72.43-194.63a41.45,41.45,0,0,1,8.22,7.65C143.88,480,144.89,485.46,143.1,489.78Z"/><path id="Path-3" data-name="Path" class="cls-1" d="M98.14,457.76a49.18,49.18,0,0,1,41.27,16.59c4.18,5.34,5.48,10.67,3.89,15-1.15,3.18-5.19,15.15-6.2,18.33-1.59,4.76-6.49,8.22-14,9.23a50.3,50.3,0,0,1-42.53-17.17c-4.62-5.92-5.77-11.83-3.75-16.3C78.26,480.26,84.9,466,84.9,466,86.6,461.8,91.16,458.77,98.14,457.76Z"/><path id="Path-4" data-name="Path" class="cls-1" d="M98.14,457.76c-14,2-18.32,12.69-9.66,23.8a48.74,48.74,0,0,0,41.26,16.59c14-2,18.32-12.69,9.67-23.8A49.56,49.56,0,0,0,98.14,457.76Z"/><path id="Path-5" data-name="Path" class="cls-2" d="M98.14,457.76c-14,2-18.32,12.69-9.66,23.8a48.74,48.74,0,0,0,41.26,16.59c14-2,18.32-12.69,9.67-23.8A49.56,49.56,0,0,0,98.14,457.76Z"/><path id="Path-6" data-name="Path" class="cls-1" d="M157.73,406.64a32.65,32.65,0,0,0-27.27-10.82,10.45,10.45,0,0,0-8.65,5.48h0L95.11,468h0a10.48,10.48,0,0,0,2.6,10.1,32.93,32.93,0,0,0,27.41,11,10.19,10.19,0,0,0,8.8-5.63h0l26.49-66.47h0A10.29,10.29,0,0,0,157.73,406.64Z"/><path id="Path-7" data-name="Path" class="cls-1" d="M160.33,416.92a10.66,10.66,0,0,0-2.46-10.24,29.55,29.55,0,0,0-8.8-7.07L113.58,488.2a29.49,29.49,0,0,0,11.26.86,10.19,10.19,0,0,0,8.8-5.62Z"/><path id="Shape" class="cls-1" d="M230.45,3,287,18.14c30.73,8.23,56.13,36.79,68.68,83.68,25.1,93.78-10.24,225.51-78.92,294.18-34.34,34.34-70.55,46.46-101.28,38.24l-56.56-15.15h0c-30.73-8.22-56.12-36.79-68.68-83.68-25.1-93.93,10.1-225.65,78.92-294.33C163.36,6.74,199.57-5.23,230.45,3ZM124.26,399c24.53,6.64,53.38-5,81.08-32.75,30.73-30.73,55.26-76.32,69.25-128.4S290,134,278.72,92.16c-10.1-37.95-29.29-62.33-54-69s-53.29,5.15-81.08,33C113,86.92,88.42,132.51,74.42,184.6S58.93,288.33,70.24,330.17C80.57,368,99.73,392.54,124.26,399Z"/><path id="Shape-2" data-name="Shape" class="cls-3" d="M230.45,3,287,18.14c30.73,8.23,56.13,36.79,68.68,83.68,25.1,93.78-10.24,225.51-78.92,294.18-34.34,34.34-70.55,46.46-101.28,38.24l-56.56-15.15h0c-30.73-8.22-56.12-36.79-68.68-83.68-25.1-93.93,10.1-225.65,78.92-294.33C163.36,6.74,199.57-5.23,230.45,3ZM124.26,399c24.53,6.64,53.38-5,81.08-32.75,30.73-30.73,55.26-76.32,69.25-128.4S290,134,278.72,92.16c-10.1-37.95-29.29-62.33-54-69s-53.29,5.15-81.08,33C113,86.92,88.42,132.51,74.42,184.6S58.93,288.33,70.24,330.17C80.57,368,99.73,392.54,124.26,399Z"/><path id="Shape-3" data-name="Shape" class="cls-1" d="M50.27,335.55C25.17,241.77,60.52,109.9,129.05,41.37S273.9-7,298.92,86.82s-10.1,225.5-78.78,294.32S75.29,429.33,50.27,335.55Zm155.22,30.69c30.73-30.73,55.25-76.32,69.25-128.41S290.18,134,278.92,92.11c-10.1-37.8-29.29-62.32-54-69s-53.38,5.19-81.08,33C113.15,86.92,88.62,132.51,74.63,184.6S59.19,288.33,70.47,330.32c10.1,37.94,29.29,62.32,54,69s53.24-5.19,81.08-33Z"/><path id="Path-8" data-name="Path" class="cls-1" d="M124.26,399.18a57.4,57.4,0,0,0,30.44-.58c-12.12-12.12-21.64-30.15-27.7-53.38-11.25-41.84-10-93.49,4.18-145.72s38.53-97.68,69.26-128.41c16.88-16.88,34.19-27.84,50.64-32.32A58.54,58.54,0,0,0,225,23.19c-24.52-6.63-53.38,5-81.08,32.9-30.73,30.73-55.26,76.32-69.25,128.4S59.19,288.33,70.47,330.17C80.57,368,99.73,392.54,124.26,399.18Z"/><path id="Path-9" data-name="Path" class="cls-3" d="M124.26,399.18a57.4,57.4,0,0,0,30.44-.58c-12.12-12.12-21.64-30.15-27.7-53.38-11.25-41.84-10-93.49,4.18-145.72s38.53-97.68,69.26-128.41c16.88-16.88,34.19-27.84,50.64-32.32A58.54,58.54,0,0,0,225,23.19c-24.52-6.63-53.38,5-81.08,32.9-30.73,30.73-55.26,76.32-69.25,128.4S59.19,288.33,70.47,330.17C80.57,368,99.73,392.54,124.26,399.18Z"/></g></g></svg>