<svg xmlns="http://www.w3.org/2000/svg" viewBox="0 0 508.19 542.85"><defs><style>.cls-1{fill:none;stroke:#686868;stroke-linecap:round;stroke-linejoin:round;}</style></defs><g id="Layer_2" data-name="Layer 2"><g id="Layer_1-2" data-name="Layer 1"><line id="Path" class="cls-1" x1="424.32" y1="210.61" x2="424.27" y2="210.41"/><line id="Path-2" data-name="Path" class="cls-1" x1="412.69" y1="203.47" x2="412.67" y2="203.28"/><path id="Path-3" data-name="Path" class="cls-1" d="M486.08,68.86c-1.73,7.84-25,31.41-35.2,108.05-2,14.93-6.51,29.43-15.12,40.58l-11.49-7.13-11.6-7.13-91.25-56.11a95.61,95.61,0,0,0,9-30.73c.51-3.55,17.93-105.64,45.78-115.47,9.3-2.83,26.31,9.46,27.91,10.17l78.64,49.16S487.78,61,486.08,68.86Z"/><line id="Path-4" data-name="Path" class="cls-1" x1="321.37" y1="147.12" x2="321.37" y2="147.25"/><line id="Path-5" data-name="Path" class="cls-1" x1="435.78" y1="217.49" x2="435.7" y2="217.58"/><path id="Path-6" data-name="Path" class="cls-1" d="M488.82,287.16V447a34.89,34.89,0,0,1-16.69,29.77L366.93,541a9.14,9.14,0,0,1-12.56-3,9.33,9.33,0,0,1-1.34-4.77v-162l12.44-7.67,11.61-7.21,56.24-34.82,9.35-5.78Z"/><path id="Path-7" data-name="Path" class="cls-1" d="M156.32,268.62a34.16,34.16,0,0,1-3.46,8.36,35.2,35.2,0,0,1-12.05,12.56L35.67,353.79A9.13,9.13,0,0,1,21.75,346V185.91Z"/><line id="Path-8" data-name="Path" class="cls-1" x1="321.37" y1="147.19" x2="319.6" y2="146.1"/><path id="Shape" class="cls-1" d="M507.41,270a12.39,12.39,0,0,0-5.83-11.94l-65.88-40.5-11.41-7-11.6-7.12h0l-91.37-56.17-1.74-1.06v15.25l53,32.59a1.18,1.18,0,0,1,.52,1.37,1.06,1.06,0,0,1-.52.73L337.32,218a1.21,1.21,0,0,1-1.27,0L320.8,208.6l-1.2-.73V248a2.9,2.9,0,0,1-1.37,2.5h0l-.17.09-.16.08-3.71,2h0a2.91,2.91,0,0,1-3.26.08l-37.11-22.58-9.38-5.69-26.08-15.89-7.69,48.45,25.23,15.53,8,4.89a1.33,1.33,0,0,1,.65,1.2h0a1.31,1.31,0,0,1-.65,1.08l-10.44,6.52-17,10.49a1.34,1.34,0,0,1-1.44,0L157.48,249l-2.07-1.27a1.35,1.35,0,0,1,0-2.33l2.07-1.27,25.37-15.68a1.41,1.41,0,0,1,1.43,0l7.42,4.57,7.43-48-26.08-15.92-15.48-9.41-2.26-1.37a5.47,5.47,0,0,1-2.58-4.59V64.62L6.5,155.11a12.57,12.57,0,0,0,0,21.43l15.22,9.37,134.62,82.71,90.56,55.63,9.36,5.75,70.07,43a22.81,22.81,0,0,0,23.88,0l2.94-1.82,12.45-7.68,11.61-7.2,56.24-34.82,9.34-5.79,46.11-28.55,12.91-8a12.3,12.3,0,0,0,5.77-8.67v-.55Zm-406.69-81.3h0l-2.64,1.54L74.49,176.65l7.43-4.3L105.61,186Zm316.12,30.09-.7,4.22h0l-3.83,23.36c0,4-5.7,7.21-12.71,7.21a22.79,22.79,0,0,1-4.43-.44c-4.53-1-7.84-3.36-8.24-6.21h0l-.46-2.89-1.63-9.77-2.49-15.57h0a5.25,5.25,0,0,1-.3-1.76c0-5.49,7.86-10,17.54-10,6,0,11.4,1.74,14.5,4.36h0a7.41,7.41,0,0,1,3,5.58A6.54,6.54,0,0,1,416.84,218.81Z"/><path id="Path-9" data-name="Path" class="cls-1" d="M416.84,218.81l-.7,4.22h0l-3.83,23.36c0,4-5.7,7.21-12.71,7.21a22.79,22.79,0,0,1-4.43-.44c-4.53-1-7.84-3.36-8.24-6.21h0l-.46-2.89-1.63-9.77-2.49-15.57c1.45,4.65,8.62,8.25,17.24,8.25,7.27,0,13.52-2.53,16.16-6.1a8.14,8.14,0,0,0,1.09-2.06Z"/><path id="Path-10" data-name="Path" class="cls-1" d="M435.78,217.49l66,40.5a12.39,12.39,0,0,1,5.78,12.5"/><line id="Path-11" data-name="Path" class="cls-1" x1="382.07" y1="217.01" x2="382.05" y2="217.01"/><path id="Path-12" data-name="Path" class="cls-1" d="M417.15,217l-.27,1.8a8.11,8.11,0,0,1-1.08,2.06c-2.64,3.56-8.9,6.1-16.16,6.1-8.62,0-15.79-3.54-17.24-8.26h0l-.3-1.75c0-5.5,7.86-10,17.54-10a23.37,23.37,0,0,1,14.5,4.35h0a7.39,7.39,0,0,1,3,5.65Z"/><path id="Path-13" data-name="Path" class="cls-1" d="M382.33,218.77a5,5,0,0,1-.28-1.76Z"/><path id="Path-14" data-name="Path" class="cls-1" d="M417.15,217a6.09,6.09,0,0,1-.27,1.8Z"/><path id="Path-15" data-name="Path" class="cls-1" d="M77.11,175.12,59.59,165a1,1,0,0,1-.55-.92,1,1,0,0,1,.55-.92l72-41.78a1,1,0,0,1,1.06,0l20,11.52"/><path id="Path-16" data-name="Path" class="cls-1" d="M100.72,188.72l18.71,10.79a1.07,1.07,0,0,0,1,0l37-21.44,15.46-8.95"/><polygon id="Path-17" data-name="Path" class="cls-1" points="105.56 185.95 100.77 188.72 100.75 188.72 98.11 190.26 74.47 176.65 81.9 172.33 105.56 185.95"/><path id="Path-18" data-name="Path" class="cls-1" d="M373.17,195.45a1.13,1.13,0,0,1-.52.74l-35.29,21.74a1.15,1.15,0,0,1-1.26,0l-15.27-9.41-1.19-.71v-46.3l53,32.59a1.2,1.2,0,0,1,.52,1.35Z"/><path id="Path-19" data-name="Path" class="cls-1" d="M319.56,120.48V248a2.87,2.87,0,0,1-1.38,2.5h0l-.17.09-.16.08-3.66,2a2.87,2.87,0,0,0,1.22-2.41V122.83a5.37,5.37,0,0,0-2.56-4.61L155.46,22.6a1.75,1.75,0,0,0-1.63-.13l3.68-2a3,3,0,0,1,1.11-.43,1.63,1.63,0,0,1,1.07.25L317,115.89A5.33,5.33,0,0,1,319.56,120.48Z"/><path id="Path-20" data-name="Path" class="cls-1" d="M315.44,122.83V250.39a2.9,2.9,0,0,1-1.22,2.41h0a2.93,2.93,0,0,1-3.26,0l-37.1-22.59-9.39-5.69L238.4,208.64l.68-4.47,5.85-37.75-36.24-22.21-3.26,1.54-6.08,39.11-26.07-15.92-15.53-9.3-2.26-1.39a5.49,5.49,0,0,1-2.63-4.58V24.18a1.77,1.77,0,0,1,.93-1.63.45.45,0,0,1,.21-.12,1.8,1.8,0,0,1,1.63.13l157.11,95.67a5.36,5.36,0,0,1,2.7,4.6Z"/><polygon id="Path-21" data-name="Path" class="cls-1" points="244.74 166.51 238.87 204.25 238.19 208.72 230.71 257.02 230.1 260.83 228.16 273.38 224.87 274.93 241.46 168.05 205.2 145.85 208.48 144.29 244.74 166.51"/><path id="Path-22" data-name="Path" class="cls-1" d="M264.58,278.72h0a1.39,1.39,0,0,1-.65,1.08l-10.44,6.43-17,10.5a1.45,1.45,0,0,1-1.45,0L157.43,249l-2.06-1.25a1.38,1.38,0,0,1-.66-1.18,1.37,1.37,0,0,1,.66-1.17l2.06-1.25,25.37-15.68a1.36,1.36,0,0,1,1.45,0l7.41,4.56-3.08,19.7L224.87,275l3.26-1.53,1.94-12.55.6-3.81L255.9,272.6l8,4.88a1.41,1.41,0,0,1,.65,1.24Z"/><polygon id="Path-23" data-name="Path" class="cls-1" points="241.46 168.05 224.87 274.93 188.63 252.72 191.68 233.03 199.13 184.99 205.2 145.85 241.46 168.05"/></g></g></svg>