<svg xmlns="http://www.w3.org/2000/svg" viewBox="0 0 335.8 974.87"><defs><style>.cls-1{fill:#f9f9f9;}.cls-1,.cls-2{stroke:#686868;stroke-linecap:round;stroke-linejoin:round;}.cls-2{fill:none;}</style></defs><g id="Layer_2" data-name="Layer 2"><g id="Layer_1-2" data-name="Layer 1"><path id="Path" class="cls-1" d="M272.16,900.38a12,12,0,0,1-.22,1.61c-.14.77-.28,1.54-.46,2.31s-.38,1.63-.6,2.44c-.12.38-.22.75-.35,1.1s-.21.65-.33,1-.15.48-.25.72-.28.74-.42,1.1-.31.82-.49,1.23a1.34,1.34,0,0,1-.12.24,4.76,4.76,0,0,1-.3.7c-.07.18-.16.36-.25.55-.3.64-.61,1.28-.95,1.91-.22.46-.46.9-.72,1.35-.7,1.28-1.48,2.52-2.33,3.77-.16.27-.35.54-.54.8s-.4.59-.63.87l-.34.46c-.24.34-.49.69-.76,1l-.17.21c-.32.42-.66.84-1,1.26s-.84,1-1.29,1.51l-.63.71c-1.17,1.3-2.41,2.56-3.72,3.81-.95.9-1.95,1.79-3,2.68l-.17.14c-1.1.92-2.21,1.83-3.38,2.73-.58.45-1.17.89-1.78,1.34q-1.83,1.34-3.77,2.62c-1.29.86-2.66,1.71-4,2.54-45.26,27.08-119.78,27.83-166.37,1.68-.8-.46-1.58-.9-2.34-1.35l-1.84-1.1q-3.69-2.28-6.93-4.71l-1.28-1q-2.55-2-4.83-4c-1-1-2-1.91-3-2.88a65.1,65.1,0,0,1-5.31-6.08c-.4-.52-.78-1-1.11-1.57-.63-.88-1.23-1.76-1.8-2.65l-.54-.91c-.25-.38-.47-.78-.7-1.19s-.6-1.1-.88-1.6l-.15-.3c-.22-.4-.42-.81-.61-1.23s-.44-.92-.64-1.39-.31-.71-.44-1.11-.36-.88-.52-1.32a1.06,1.06,0,0,1-.09-.25c-.15-.41-.31-.83-.45-1.25-.32-1-.6-1.91-.84-2.87-.09-.35-.18-.69-.24-1a2.37,2.37,0,0,0-.11-.46,2.18,2.18,0,0,0-.08-.4,35.87,35.87,0,0,1-.67-4.48,3.75,3.75,0,0,0,0-.67.88.88,0,0,1,0-.23,5.65,5.65,0,0,0-.06-1v-1.66c0-17.16,11-34.36,33.29-47.67,19.32-11.55,43.93-18.31,69.45-20.23h0l-.23,67.72c0,2.21,1.45,4.53,4.41,6.27,6,3.56,15.77,3.67,21.89.22,3.12-1.74,4.69-4.07,4.71-6.4l.23-67.79c24,1.85,47.23,8,66,18.52C262.69,861.27,274.51,881.05,272.16,900.38Z"/><path id="Path-2" data-name="Path" class="cls-1" d="M272.49,905.9c0,17.15-11,34.35-33.29,47.67-45.26,27.06-119.78,27.83-166.36,1.68-23.68-13.24-35.61-31-35.65-48.69v-8.83a5.68,5.68,0,0,0,0,1,.88.88,0,0,0,0,.23,3,3,0,0,0,.05.67,35.9,35.9,0,0,0,.68,4.48,1.89,1.89,0,0,0,.08.4,2.56,2.56,0,0,0,.11.46c.06.34.15.68.24,1,.24,1,.52,1.91.84,2.87.14.42.3.84.45,1.26a1.17,1.17,0,0,0,.09.24c.15.44.32.87.52,1.32s.27.71.44,1.11.41.94.64,1.39.39.83.61,1.23l.15.3c.27.54.58,1.11.87,1.6s.46.81.71,1.2l.54.9c.56.9,1.17,1.77,1.8,2.65.36.52.74,1,1.1,1.57a68.17,68.17,0,0,0,5.31,6.08c1,1,2,1.93,3,2.88,1.52,1.37,3.12,2.71,4.82,4l1.28,1c2.21,1.62,4.42,3.19,6.94,4.71.59.37,1.21.75,1.84,1.1s1.54.9,2.34,1.35c46.59,26.15,121.07,25.39,166.37-1.68q2.07-1.25,4-2.54c1.31-.86,2.55-1.73,3.76-2.62.62-.45,1.21-.89,1.79-1.34,1.18-.9,2.3-1.81,3.38-2.73l.17-.14c1-.89,2-1.78,3-2.67,1.31-1.26,2.55-2.52,3.72-3.82.22-.24.43-.47.63-.71.45-.5.88-1,1.29-1.51s.69-.84,1-1.26l.17-.21c.26-.33.52-.67.76-1l.34-.46q.33-.42.63-.87c.2-.3.38-.53.54-.8a44.08,44.08,0,0,0,2.33-3.77q.39-.66.72-1.35c.22-.46.65-1.27.95-1.91.09-.19.18-.36.25-.55s.21-.46.3-.7a1.08,1.08,0,0,0,.12-.24c.18-.41.34-.81.49-1.23s.3-.75.42-1.1.17-.47.25-.72l.33-1c.11-.33.22-.74.34-1.1.23-.81.44-1.63.61-2.44s.32-1.54.45-2.31c.08-.54.17-1.1.23-1.61a41.22,41.22,0,0,0,.29-4.84Z"/><path id="Path-3" data-name="Path" class="cls-1" d="M171.69,577.07l-.83,251.22-.23,67.79c0,2.33-1.59,4.66-4.71,6.41-6.12,3.44-15.93,3.31-21.89-.23-2.91-1.74-4.41-4-4.41-6.27l.23-67.72h0l.86-255.36a246.55,246.55,0,0,0,31,4.16Z"/><path id="Path-4" data-name="Path" class="cls-1" d="M25.43,47.07C-2.65,90.57,3.75,128.25,9.17,304.73s1.92,134.84,6.19,158.56c1.17,6.54,6.63,16,13.7,25.18-14.69-1-26.41-7.92-26.41-20.66,0-12.34-.27-240.42-2-318.38S19.86,23.64,58.31,4.46c0,0,15.9-7.62,30.36-1.72C66.8,5.94,44.71,17.19,25.43,47.07Z"/><path id="Path-5" data-name="Path" class="cls-1" d="M221.41,67.72c-.19-.1-.39-.2-.59-.32"/><path id="Path-6" data-name="Path" class="cls-1" d="M247.68,563.66c-6.44,2.62-13.86,5.3-22.42,8.19-15.79,5.35-34.62,6.52-53.57,5.18a251.4,251.4,0,0,1-30.92-4.23C116,567.9,94.07,560,82.26,553.26,57,538.91,36.8,518.23,36.31,498V497c8.65,9.49,18.36,17.54,26,20.15,8.65,3,14.59-1.1,13.14-18q-1-12-2.07-26.07c-.27-3.45-.53-7-.79-10.71v-.05c-.94-13.68-1.85-28.82-2.63-45.46v-.11c0-1.18-.11-2.35-.16-3.56v-.05C73.32,285,76,207.1,88.25,148.15,96,111,100.54,85.1,110.46,69.15a43.88,43.88,0,0,1,4.77-6.41c0,9.94-.14,23.57-.49,38.14-.26,11,21.93,16.56,34.91,15.18a84.08,84.08,0,0,0,9.48-1.45c-8.47,8.69-15.56,18.21-19.38,28.13C125,181,101.31,277.49,113.78,463.79V464c1.11,37.06,2.94,65.57,4.68,76,1.28,7.51,9.75,12.75,22.43,15.76a136,136,0,0,0,30.91,3,237.14,237.14,0,0,0,74.44-12.51C246.7,552.78,247.21,558.56,247.68,563.66Z"/><line id="Path-7" data-name="Path" class="cls-2" x1="328.55" y1="147.77" x2="328.55" y2="147.57"/><path id="Path-8" data-name="Path" class="cls-1" d="M317.73,123.65h0A121.55,121.55,0,0,1,325.92,137"/><line id="Path-9" data-name="Path" class="cls-2" x1="246.19" y1="546.27" x2="246.18" y2="546.27"/><path id="Path-10" data-name="Path" class="cls-1" d="M331.92,181.42c-.9-14.08-2-25.66-3.39-33.85A28.93,28.93,0,0,0,326,137.08h0c-15.32-37.38-50.42-17.54-50.42-17.54-37.1,21.72-54.92,70.8-48,148.47,5.32,59.39,12.9,207.06,18.6,278.3a237.14,237.14,0,0,1-74.44,12.51,135.44,135.44,0,0,1-30.91-3.05c-12.61-3-21.12-8.25-22.4-15.76-1.74-10.38-3.58-38.88-4.68-75.94q.44,6.62.94,13.25c4-43.78,14.95-89.91,26.86-130.65h0c18.95-65,40.48-116.25,40.5-122.3l-13.91-26.12s30.61-36.82,39-46.21c16.66-18.59,28.36-23.25,37.7-63,4.87-20.72-16.56-37.23-24.88-42.79h0c-1.91-1.27-3.13-2-3.22-2h0c-1-7.47-12-14.7-28.7-21.79-11.88-5.06-22.31-7.1-31.46-6.62h-.11l-.41-.07c-3.52-.49-7.54-.88-11.88-1a111.65,111.65,0,0,0-16.15.54,86.78,86.78,0,0,0-22.39,5.41A70.32,70.32,0,0,0,71.92,48.72c-22.84,35.62-33.31,90.89-33.31,90.89L60.3,159.77,37.9,177.19c1,28.7,14.35,193.64,34.67,285.19v.05c.26,3.68.52,7.26.79,10.71q1,14.13,2.07,26.07c1.45,16.89-4.49,21-13.14,18-7.62-2.61-17.33-10.66-26-20.15-2.51-2.77-4.93-5.66-7.18-8.57-7.12-9.21-12.53-18.64-13.7-25.18-4.27-23.72-.78,17.89-6.19-158.56S-2.59,90.56,25.5,47.07C44.73,17.19,66.82,5.94,88.68,2.74c19-2.79,37.78.52,54.47,2.94,51.52,7.51,162.28,68.9,183.94,118.12C333.56,138.41,334.29,158.72,331.92,181.42Z"/><polyline id="Path-11" data-name="Path" class="cls-1" points="331.9 181.57 331.9 181.56 331.92 181.55"/><path id="Path-12" data-name="Path" class="cls-1" d="M219.85,59.39a4.91,4.91,0,0,0-.53-.4"/><line id="Path-13" data-name="Path" class="cls-2" x1="216.87" y1="44.72" x2="216.77" y2="44.23"/><path id="Path-14" data-name="Path" class="cls-1" d="M148.83,16.91c-13.67,3.14-24.14,12.59-32.2,26.28A18.59,18.59,0,0,0,115.7,45h0a13.82,13.82,0,0,0-.61,1.74H115v.17h0a9.36,9.36,0,0,0,.08,5.52h0V62.61a45.08,45.08,0,0,0-4.77,6.4c-9.93,16-14.45,41.84-22.21,79-12.3,59-14.92,136.83-18.47,265.05v.06a28,28,0,0,0,.17,3.55v.11c.77,16.65,1.69,31.79,2.63,45.47C52.15,370.88,38.8,205.85,37.87,177.19l22.4-17.42L38.59,139.63S49.06,84.36,71.92,48.74A70.46,70.46,0,0,1,105.7,20.67a86.17,86.17,0,0,1,22.41-5.44,111.7,111.7,0,0,1,16.15-.54Q146.56,15.76,148.83,16.91Z"/><path id="Path-15" data-name="Path" class="cls-1" d="M200.16,61.52c-24.94,11.93-79.49,8-85-9h0c0-2.92-.05-4.87-.09-5.52h0a.48.48,0,0,1,0-.17,15.13,15.13,0,0,1,.62-1.75h0c.28-.61.59-1.22.93-1.8,8.06-13.69,18.52-23.18,32.2-26.28h0a45.86,45.86,0,0,1,7.73-1.11h.11c9.15-.49,19.58,1.55,31.46,6.63,16.68,7.08,27.7,14.35,28.71,21.79C217.49,49.82,212.58,55.57,200.16,61.52Z"/><path id="Path-16" data-name="Path" class="cls-1" d="M115,46.93c0,.69.08,2.63.09,5.52A9.28,9.28,0,0,1,115,46.93Z"/><path id="Path-17" data-name="Path" class="cls-1" d="M221.34,70.35s-37.2,18.49-62.29,44.16a87,87,0,0,1-9.49,1.46c-13,1.34-35.17-4.13-34.91-15.18.35-14.58.48-28.2.49-38.15V52.48c5.52,17,60.1,20.91,85,9,12.42-5.93,17.33-11.68,16.56-17.28l.08.49,2.51,14.27,1.47,8.43Z"/><path id="Path-18" data-name="Path" class="cls-1" d="M244.88,89c-9.34,39.74-21,44.4-37.7,63-8.43,9.41-39,46.23-39,46.23l14,26.12c0,6-21.55,57.28-40.55,122.28h0c-11.91,40.74-22.84,86.87-26.86,130.64q-.49-6.74-.94-13.24v-.24c-12.47-186.3,11.23-282.74,26-321,3.82-9.94,10.9-19.44,19.38-28.13,25.09-25.72,62.3-44.16,62.3-44.16a5.21,5.21,0,0,0,.06-2.66h0c-.22-1.9-.77-4.72-1.52-8.33-.83-4-1.89-8.92-3-14.68l3.11,1.52h0C228.35,51.84,249.75,68.31,244.88,89Z"/><path id="Path-19" data-name="Path" class="cls-1" d="M221.34,70.35l-.52-3-1.47-8.43-2.5-14.27-.09-.49h0a37.61,37.61,0,0,1,3.21,2l-3.11-1.52c1.1,5.75,2.21,10.7,3,14.67.75,3.61,1.31,6.44,1.53,8.34h0a5.29,5.29,0,0,1-.06,2.68Z"/><path id="Path-20" data-name="Path" class="cls-1" d="M333.16,553.27c0,62.61-76.92,43.32-82.36,32.24-.9-1.84-2-9.68-3.12-21.85-.47-5.08-1-10.92-1.5-17.39-5.7-71.24-13.25-218.92-18.6-278.3-7-77.67,10.84-126.79,47.93-148.47,0,0,35.11-19.87,50.43,17.54h0a52.51,52.51,0,0,1,2.56,10.49c1.37,8.19,2.5,19.77,3.39,33.85h0v.07h0C338.73,288.42,333.16,539.09,333.16,553.27Z"/><polygon id="Path-21" data-name="Path" class="cls-1" points="331.92 181.43 331.92 181.51 331.92 181.51 331.92 181.43"/></g></g></svg>