<?xml version="1.0" encoding="utf-8"?>
<!-- Generator: Adobe Illustrator 24.3.0, SVG Export Plug-In . SVG Version: 6.00 Build 0)  -->
<svg version="1.1" id="Layer_1" xmlns="http://www.w3.org/2000/svg" xmlns:xlink="http://www.w3.org/1999/xlink" x="0px" y="0px"
	 viewBox="0 0 630.3 412.2" style="enable-background:new 0 0 630.3 412.2;" xml:space="preserve">
<style type="text/css">
	.st0{fill:#EFEFEF;stroke:#686868;stroke-linecap:round;stroke-linejoin:round;}
	.st1{fill:none;stroke:#686868;stroke-linecap:round;stroke-linejoin:round;}
	.st2{fill:none;stroke:#E05300;stroke-linecap:round;stroke-linejoin:round;}
	.st3{fill:none;stroke:#234EE8;stroke-linecap:round;stroke-linejoin:round;}
</style>
<g>
	<g>
		<path class="st0" d="M349.3,62.4l10.4-6l19.6-11.1c0,0,7.5,4.3,7.5,4.3v0h0v7.5"/>
		<path class="st0" d="M386.8,57.1l26.3,15.2h0l0,0l0,0l0,0c39.4,8,76.4,21,107.9,39.3c112.5,64.9,112.5,170.2,0,235.1
			c-21.2,12.3-45,22.2-70.3,29.8h0c-70.9,21.4-154.1,24.6-228.7,9.6h0c-19.8-4-39-9.3-57.2-15.8c-18.2-6.6-35.4-14.4-51.2-23.5
			c-21.6-12.4-39-26.4-52.3-41.2c-28-31.2-37.7-66.5-29-100.5c-0.1-0.1-0.2-0.2-0.2-0.3c-2.2-2.8-3.5-6.3-3.5-10.2
			c0-5.8,3-11.1,7.9-14.2l0,0.2c2.2-5.9,6.8-10.6,12.8-12.8c0.3-0.1,0.7-0.2,1-0.4c0,0,0.1,0,0.1,0L50,167c1.6-2.3,3.3-4.6,5.1-6.8
			c3.4-4.3,6.9-8.4,10.7-12.3c4.3-4.5,8.9-8.7,13.7-12.7c0,0,0,0,0.1,0c1.6-1.4,3.3-2.7,5-4c9.2-7.3,18.9-13.8,29.1-19.6
			c29.9-17.3,64.8-30,102-38h0c32.4-6.9,65.4-10.5,98.5-10.7c3.3,0,6.5,0,9.8,0c2.6,0,5.3,0.1,7.9,0.2v-1.9l2.5-1.4v0.7
			c0,0.3,0.2,0.6,0.5,0.7c0.8,0.4,1.7,0.4,2.5,0c0.3-0.1,0.5-0.4,0.5-0.7v-2.7l4-2.3l7.5,4.3l0,0v2.7"/>
		<path class="st0" d="M449.6,58.5c1-0.1,2-0.2,3-0.5c0.5,0.2,1,0.3,1.6,0.3c1.2,0.1,2.3-0.4,2.9-1.5c0.9,1.9,4.1,3.4,6.4,3.9
			c4.3,1.1,10.4,0.4,13-2.7c0.3,0.6,0.7,1.1,1.2,1.5c1.1,0.9,2.5,1.5,4,1.6c1.8,0.2,6.5,0.4,7.8-2.4c1,1.8,5.2,2.7,8.4,2.3
			c1.2-0.2,2.4-0.5,3.6-1.1c0.7-0.4,1.4-0.8,2.1-1.2c0.5-0.4,1.2-0.4,1.8-0.1c2.3,0.8,4.8,0.8,7.1,0c1.7-0.8,2.1-2.2,0.4-3
			c-0.9-0.3-1.8-0.5-2.7-0.5c-0.9-0.1-1.1-0.2-1.3-0.4c-1.7-2.4-4.9-3.3-7.6-2.2c-0.8-2.4-3.3-3.8-5.8-3.3c0.1-2.7-3.3-5.6-6.4-6.2
			c-3.1-0.7-5.5-0.4-7.2,1.6c-1.8-3.5-8.9-4.5-12.7-2.6c-2.2,1.1-4.1,2.2-5,4.2c-0.6,1.2-0.9,2.6-0.8,4c-1.9-1.3-4.3-1.7-6.5-0.9
			c-2.1,0.8-2.3,2.4-2.4,4.1c-1.3-0.4-2.6-0.4-3.9-0.1c-1.3,0.4-2.1,1.5-1.9,2.3c-1.1-0.1-3.7,0.8-3.3,1.9
			C445.6,58.5,448.5,58.5,449.6,58.5z"/>
		<path class="st0" d="M119.8,52c-1.6,0.6-1.7,1.8-1.8,3c-0.9-0.3-1.9-0.3-2.8,0c-1,0.3-1.6,1.1-1.5,1.7c-0.8,0-2.6,0.6-2.5,1.5
			c0.2,0.9,2.4,0.8,3.2,0.8c0.7,0,1.5-0.1,2.2-0.3c0.4,0.1,0.8,0.2,1.2,0.2c1.4,0,1.9-0.6,2.2-1.1c0.7,1.4,3,2.4,4.7,2.9
			c3.1,0.8,7.6,0.3,9.5-2c0.2,0.4,0.5,0.8,0.9,1.1c0.8,0.7,1.9,1.1,3,1.2c1.2,0.1,4.7,0.3,5.7-1.8c0.7,1.4,3.8,2,6.1,1.6
			c0.9-0.1,1.8-0.4,2.6-0.8c0.5-0.3,1-0.6,1.5-0.9c0.4-0.2,0.8-0.3,1.2-0.1c1.6,0.6,3.5,0.6,5.1,0c1.3-0.7,1.6-1.7,0.4-2.3
			c-0.6-0.2-1.3-0.3-1.9-0.3c-0.6,0-0.8-0.2-0.9-0.3c-1.2-1.8-3.6-2.5-5.6-1.6c-0.6-1.8-2.4-2.9-4.2-2.5c0.1-2-2.5-4.1-4.7-4.6
			c-2.2-0.5-4-0.3-5.3,1.2c-1.3-2.6-6.5-3.3-9.3-1.9c-1.6,0.5-2.9,1.6-3.7,3.1c-0.4,0.9-0.7,1.9-0.6,2.9
			C123.2,51.7,121.4,51.4,119.8,52z"/>
		<path class="st0" d="M58.1,36.4c1-0.1,2-0.2,3-0.4c0.5,0.2,1,0.3,1.6,0.3c1.2,0.2,2.4-0.4,3-1.5c0.9,1.9,4.1,3.4,6.4,3.9
			c4.3,1.1,10.4,0.4,13-2.7c0.3,0.6,0.7,1.1,1.2,1.5c1.1,0.9,2.5,1.5,4,1.6c1.8,0.2,6.5,0.4,7.8-2.4c1.1,1.9,5.2,2.7,8.4,2.3
			c1.3-0.2,2.5-0.5,3.7-1.1c0.7-0.4,1.3-0.8,2-1.2c0.5-0.4,1.2-0.4,1.8-0.1c2.3,0.8,4.7,0.8,7,0c1.8-0.8,2.2-2.3,0.5-3.1
			c-0.9-0.3-1.8-0.4-2.7-0.5c-0.9-0.1-1.1-0.2-1.3-0.4c-1.7-2.4-4.9-3.4-7.6-2.3c-0.8-2.4-3.3-3.8-5.7-3.3c0.1-2.7-3.3-5.6-6.4-6.2
			c-3.1-0.7-5.5-0.4-7.2,1.6c-1.9-3.5-8.9-4.6-12.7-2.7c-2.2,1.1-4.1,2.2-5,4.2c-0.6,1.2-0.9,2.6-0.9,4c-1.9-1.3-4.3-1.7-6.5-0.9
			c-2.1,0.8-2.3,2.4-2.5,4.1c-1.3-0.4-2.6-0.4-3.9-0.1c-1.4,0.4-2.1,1.5-2,2.3c-1.1,0-3.7,0.8-3.3,1.9C54.1,36.4,57,36.4,58.1,36.4z
			"/>
	</g>
	<path id="Shape-45_2_" class="st1" d="M251.2,306.1c-1.6,1.2-2.6,3-2.6,5c0,2,1.2,2.7,2.6,2c1.6-1.2,2.6-3,2.6-5
		C253.8,306.1,252.7,305.2,251.2,306.1z"/>
	<line class="st1" x1="217.5" y1="214.9" x2="79.2" y2="135"/>
	<path class="st1" d="M256.1,298.8c-0.1,0-0.2-0.1-0.3-0.1c0,0,0,0,0,0c-0.1,0-0.1,0-0.2-0.1c-0.4-0.1-0.7-0.1-1.1-0.1
		c-0.2,0-0.3,0-0.5,0c-0.1,0-0.2,0-0.3,0c-0.2,0-0.4,0.1-0.6,0.1c-0.6,0.2-1.3,0.4-2,0.8c-1.1,0.7-2.1,1.5-2.9,2.5
		c-1.5,1.7-2.7,3.6-3.5,5.6c-0.8,2.1-1.3,4.2-1.4,6.5c0,0.2,0,0.4,0,0.6c0,0.1,0,0.2,0,0.3c0,0.2,0,0.3,0,0.5c0,0.2,0.1,0.5,0.1,0.7
		c0.1,0.4,0.2,0.8,0.3,1.1c0,0.1,0.1,0.2,0.1,0.2c0.1,0.3,0.2,0.5,0.4,0.8c0.1,0.1,0.2,0.3,0.3,0.4c0.1,0.1,0.2,0.2,0.3,0.3
		c0.1,0.1,0.2,0.2,0.3,0.3c0.2,0.2,0.3,0.3,0.5,0.4c0.1,0,0.1,0.1,0.2,0.1c0.1,0.1,0.2,0.1,0.3,0.2c0.1,0,0.1,0,0.1,0.1
		c0.1,0,0.2,0.1,0.3,0.1c0.1,0,0.2,0.1,0.3,0.1c0.1,0,0.1,0,0.2,0.1c1.2,0.3,2.7,0,4.3-0.9c0.6-0.3,1.2-0.8,1.8-1.2
		c1.9-1.7,3.4-3.8,4.5-6.1c1.1-2.3,1.7-4.8,1.8-7.3c0-0.3,0-0.6,0-0.9C258.9,301.4,257.8,299.5,256.1,298.8z"/>
	<path class="st1" d="M361.9,324.1c-0.3-0.2-0.5-0.4-0.8-0.6c0.1-0.5,0.1-1,0.1-1.6l0,0c0-2.5-0.5-5.1-1.3-7.5
		c-0.1-0.3-0.2-0.5-0.3-0.8c-0.1-0.2-0.2-0.4-0.2-0.5c-0.1-0.1-0.1-0.3-0.2-0.5c0-0.1,0-0.1-0.1-0.1c-0.1-0.2-0.2-0.3-0.2-0.5
		c-0.2-0.4-0.4-0.7-0.6-1c-0.2-0.3-0.3-0.5-0.5-0.8c-0.1-0.2-0.2-0.4-0.4-0.6c-0.2-0.3-0.4-0.6-0.7-0.9c-0.3-0.3-0.5-0.7-0.8-1
		c-0.3-0.3-0.5-0.6-0.8-0.9c-0.2-0.2-0.5-0.5-0.7-0.7c-0.4-0.4-0.8-0.7-1.2-1.1c-0.3-0.2-0.5-0.4-0.8-0.6c-0.2-0.1-0.4-0.3-0.6-0.4
		c-0.2-0.1-0.3-0.2-0.5-0.4c-0.7-0.4-1.3-0.8-2-1.1c-0.2-0.1-0.5-0.2-0.7-0.3c-0.2-0.1-0.3-0.2-0.5-0.2s-0.3-0.1-0.5-0.2
		c-0.3-0.1-0.5-0.2-0.8-0.3c-0.2-0.1-0.5-0.1-0.7-0.2c-0.2-0.1-0.5-0.1-0.7-0.2c-0.2-0.1-0.4-0.1-0.7-0.2c-0.3-0.1-0.7-0.2-1.1-0.2
		c-0.4-0.1-0.7-0.1-1.1-0.2c-0.4-0.1-0.7-0.1-1-0.1c0,0-0.1,0-0.1,0c-0.2,0-0.3,0-0.4,0c-0.5,0-0.9,0-1.4,0c-2.5,0-5,0.4-7.5,1.3
		c-6.1,2.3-10.9,7.1-13,13.3c-3.8,11.3,2.2,23.5,13.5,27.4l0.3,0.1c0.1,0,0.2,0,0.3,0.1c0.1,0,0.1,0,0.2,0.1
		c0.3,0.1,0.6,0.2,0.9,0.2c0.1,0,0.2,0.1,0.4,0.1c0,0,0,0,0,0c0.2,0,0.3,0.1,0.5,0.1c0,0,0,0,0,0c0,0,0,0,0,0c0.2,0,0.5,0.1,0.7,0.1
		h0c0,0,0,0,0.1,0c0.9,0.1,1.8,0.2,2.7,0.3v32.1c0,0.2,0.2,0.4,0.3,0.5c0.1,0.1,0.3,0.1,0.4,0.2c0,0,0,0,0,0c0.4,0.1,0.8,0,1.1-0.2
		c0.2-0.1,0.3-0.3,0.3-0.5v-32.1c2-0.1,4.1-0.5,6-1.3c0,0,0.1,0.1,0.1,0.1c1.2,1,2.6,1.7,4.1,2.1c0.1,0,0.2,0.1,0.3,0.1
		c4.3,1.1,9-0.2,12-3.9C367.6,335.6,366.9,328.2,361.9,324.1z"/>
	<path class="st1" d="M335,253.3C335,253.3,335,253.3,335,253.3c-0.1,0-0.2-0.1-0.2-0.1c0,0,0,0,0,0s0,0,0,0c0,0,0,0-0.1,0
		c-0.6-0.2-1.3-0.3-1.9-0.2c0,0-0.1,0-0.2,0h-0.1c-0.1,0-0.2,0-0.3,0.1c0,0,0,0,0,0h0l0,0l-0.2,0l0,0l0,0l-0.1,0h0l-0.2,0.1
		l-0.2,0.1l0,0l0,0l0,0l-0.1,0.1l-0.1,0.1l-0.1,0l0,0c-0.1,0-0.2,0.1-0.3,0.2l0,0c-0.2,0-0.3,0.1-0.4,0.2l-0.1,0.1l-0.2,0.1
		c0,0,0,0,0,0c-0.2,0.1-0.4,0.2-0.5,0.4c-0.2,0.1-0.4,0.3-0.6,0.5c-0.1,0.1-0.2,0.2-0.3,0.3c0,0-0.1,0.1-0.1,0.1
		c-0.2,0.1-0.3,0.3-0.5,0.4c-0.1,0.1-0.3,0.3-0.4,0.4c-0.1,0-0.1,0.1-0.1,0.2c-3,3.3-4.8,7.6-5,12.1c0,2.8,0.9,4.7,2.3,5.7
		c0.4,0.3,0.8,0.5,1.2,0.6c1.3,0.4,2.8,0.1,4.5-0.8c0.6-0.4,1.2-0.8,1.8-1.3c3.8-3.5,6-8.3,6.2-13.4c0-3-1.1-5.1-2.8-5.9
		C335.2,253.4,335.1,253.4,335,253.3z"/>
	<path class="st2" d="M200.4,232.2L200.4,232.2l-6.5,30.2l-0.3,1.3l-0.7,3.3l0,0.1l-1.4-0.8c-0.1,0-0.1-0.1-0.1-0.2v-3.1l0.3,0.1
		l1,0.5c0,0,0.1,0.1,0.2,0.1c0,0,0.1,0,0.1,0c0,0,0,0,0.1,0c0,0,0,0,0,0c0.1,0,0.2,0,0.3-0.1c0.2-0.1,0.3-0.4,0.3-0.7v-7.3
		c-0.1-0.7-0.4-1.4-1-1.8l-3.1-1.8c0,0-0.1,0-0.1-0.1c0,0,0,0,0,0c0,0-0.1,0-0.1,0c-0.1,0-0.2,0-0.3,0c0,0-0.1,0-0.1,0.1
		c-0.2,0.1-0.4,0.4-0.3,0.6v7.4c0,0.7,0.4,1.4,1,1.8l1.4,0.8v3.5c0,0.3,0.1,0.5,0.4,0.7l1.5,0.9l-0.2,0.7c0,0,0,0,0,0v0
		c0,0,0,0,0.1,0.1c0.1,0.1,0.2,0.2,0.5,0.4l0.2,0.2c0.1,0.1,0.2,0.2,0.3,0.2c0.3,0.3,0.6,0.6,0.9,0.8c0,0,0.1,0.1,0.1,0.1
		c0.1,0.1,0.3,0.2,0.4,0.4c0,0,0,0,0,0c0.1,0.1,0.2,0.2,0.4,0.3c0.2,0.2,0.4,0.4,0.7,0.6c0.2,0.2,0.5,0.4,0.7,0.5c0,0,0,0.1,0.1,0.1
		c0.5,0.5,1.1,0.9,1.6,1.3l0.5,0.4c0,0,0.1,0,0.1,0.1c0,0,0.1,0,0.1,0.1c0.3,0.3,0.7,0.5,1,0.8l0.3,0.2c0.1,0.1,0.2,0.1,0.2,0.2
		c0,0,0.2,0.1,0.3,0.2c0.2,0.2,0.5,0.3,0.7,0.5c0.1,0.1,0.2,0.2,0.3,0.2c0,0,0.1,0.1,0.1,0.1c0.1,0.1,0.2,0.1,0.3,0.2
		c0.1,0.1,0.1,0.1,0.2,0.2c0,0,0.1,0.1,0.3,0.2c0.1,0.1,0.2,0.2,0.3,0.2c0,0,0.1,0,0.1,0.1c0.3,0.2,0.7,0.5,1,0.7
		c0.2,0.1,0.4,0.3,0.6,0.4c0.1,0.1,0.2,0.1,0.2,0.2s0.2,0.1,0.2,0.2c-0.8-0.5-1.5-1-2.3-1.5l-1.1-0.7l-0.9-0.7l-0.9-0.7
		c-0.7-0.5-1.4-1.1-2-1.5c-0.6-0.5-1.1-0.9-1.7-1.4c-1.1-0.9-2.2-1.8-3.2-2.8l-0.7-0.7l-0.3-0.2l-1.6,23.8l0,0.3
		c-0.2-0.2-0.3-0.4-0.3-0.4c-0.6-1-1,3.1,0,4.8c0,0,5.6,7.8,17.9,15.1c3.3,1.9,6.8,3.5,10.4,4.7c0.5,0.2,1,0.3,1.5,0.5
		c0.8,0.3,1.6,0.5,2.4,0.7c2.3,0.6,4.6,1.1,6.9,1.5c3.6,0.3,8-2.6,9.8-3.9l0,0"/>
	<path class="st2" d="M353.5,194.6c0-3.1-1.7-6-4.4-7.6l-32.7-18.9c-0.5-0.3-1-0.5-1.6-0.7c-0.1,0-0.2-0.1-0.3-0.1
		c-2.3-0.7-4.8-0.4-6.9,0.8l-78.8,45.5l0,0"/>
	<line class="st2" x1="270.2" y1="279.2" x2="353.4" y2="231.2"/>
	<line class="st2" x1="318.1" y1="269.7" x2="270.5" y2="297.2"/>
	<path class="st2" d="M232.6,314.3L232.6,314.3l1-14.1l8.2-4.7c0,0,0.1,0,0.1,0c0,0,0,0,0,0l28.3-16.3h0h0"/>
	<line id="Line-7_2_" class="st1" x1="61.1" y1="305.3" x2="187.9" y2="232.1"/>
	<line id="Line-8_2_" class="st1" x1="187.9" y1="232.1" x2="217.5" y2="214.9"/>
	<line id="Line-10_2_" class="st1" x1="215.2" y1="73.3" x2="586.5" y2="286.8"/>
	<line class="st1" x1="55.9" y1="219.7" x2="51" y2="210.2"/>
	<line class="st1" x1="65.4" y1="209.2" x2="58.2" y2="220.7"/>
	<line class="st1" x1="55.9" y1="209.5" x2="55.9" y2="209.5"/>
	<path class="st1" d="M53.2,209.2C53.2,209.2,53.2,209.2,53.2,209.2"/>
	<path class="st1" d="M53.2,209.2C53.2,209.2,53.2,209.2,53.2,209.2"/>
	<path class="st1" d="M36.6,180.3c-4.9,3-7.9,8.4-7.9,14.2c0,3.8,1.3,7.4,3.5,10.2"/>
	<path class="st1" d="M78.4,188L78.4,188c0,0.5,0,1-0.1,1.5v0c-0.4,5.1-2.5,9.7-5.9,13.3h0c-2.2,2.4-5,4.2-8.2,5.4
		c-1.9,0.7-4,1.1-6,1.2c-0.5,0-0.9,0.1-1.4,0.1h-0.9c-0.9,0-1.8-0.1-2.6-0.3c0,0,0,0-0.1,0c-1-0.2-2-0.4-3-0.7l-0.3-0.1
		c-9-3.1-14.7-11.5-14.7-20.5v0c0-2.3,0.4-4.6,1.2-6.9c0.1-0.2,0.1-0.4,0.2-0.5c0,0,0,0,0,0c2.2-5.9,6.8-10.6,12.8-12.8
		c0.3-0.1,0.7-0.2,1-0.4c0.3-0.1,0.5-0.2,0.8-0.2c0.3-0.1,0.6-0.2,0.9-0.2c0.2-0.1,0.5-0.1,0.7-0.1c0.2,0,0.3-0.1,0.5-0.1
		c0.2,0,0.3-0.1,0.5-0.1c0.4-0.1,0.7-0.1,1.1-0.1c0.2,0,0.5,0,0.7,0c0.1,0,0.2,0,0.4,0c0.3,0,0.5,0,0.8,0c0.3,0,0.5,0,0.8,0
		c0.2,0,0.3,0,0.5,0c0,0,0,0,0,0c0.7,0,1.5,0.1,2.2,0.2c0.4,0.1,0.7,0.1,1.1,0.2c0.3,0.1,0.5,0.1,0.8,0.2c0.2,0,0.3,0.1,0.5,0.1
		c0.3,0.1,0.5,0.2,0.8,0.2c0.3,0.1,0.7,0.2,1,0.4c0.3,0.1,0.7,0.3,1,0.4c0.1,0,0.1,0.1,0.2,0.1c0.3,0.1,0.7,0.3,1,0.5
		c0.3,0.1,0.5,0.3,0.7,0.4c0.1,0,0.1,0.1,0.2,0.1c0.3,0.2,0.5,0.3,0.8,0.5c0.3,0.2,0.6,0.4,0.9,0.6c0.3,0.2,0.6,0.4,0.9,0.7
		c0.3,0.2,0.6,0.5,0.9,0.7c0.3,0.2,0.5,0.4,0.8,0.7c0.1,0.1,0.2,0.2,0.3,0.3c0.4,0.4,0.9,0.9,1.3,1.4c0.2,0.3,0.4,0.5,0.6,0.8
		c0.2,0.2,0.3,0.4,0.5,0.6c0.2,0.2,0.3,0.4,0.5,0.7c0,0,0.1,0.1,0.1,0.2c0.1,0.2,0.3,0.5,0.4,0.7c0,0,0,0,0,0
		c0.1,0.2,0.2,0.4,0.3,0.6c0.3,0.6,0.7,1.3,0.9,1.9c0.1,0.3,0.2,0.6,0.3,0.9C77.9,182.9,78.4,185.4,78.4,188z"/>
	<path class="st1" d="M78.3,189.5c3.5,2.5,5.3,6.6,4.9,10.8c-0.1,1.1-0.4,2.1-0.8,3.2c-2.4,6-9.2,9-15.3,6.6c-1.1-0.4-2.1-1.1-3-1.8
		"/>
	<path class="st1" d="M53.2,209.2c-0.7,0.4-1.4,0.7-2.1,0.9c-0.4,0.2-0.9,0.3-1.3,0.4c-1.4,0.4-2.8,0.6-4.3,0.6
		c-4.6,0-8.8-1.9-11.8-4.9c-0.5-0.5-1-1.1-1.4-1.6"/>
	<line class="st1" x1="338.6" y1="353.7" x2="333.8" y2="344.1"/>
	<line class="st1" x1="348.1" y1="343.2" x2="340.9" y2="354.7"/>
	<line class="st1" x1="338.6" y1="343.5" x2="338.6" y2="343.4"/>
	<path class="st1" d="M335.9,343.2C335.9,343.2,335.9,343.2,335.9,343.2"/>
	<path class="st1" d="M335.9,343.2c-0.7,0.4-1.4,0.7-2.1,0.9c-0.4,0.2-0.9,0.3-1.3,0.4c-3.5,0.9-7.3,0.7-10.7-0.7
		c-3.1-1.3-5.7-3.5-7.5-6.2c-1.4-2-2.3-4.4-2.6-6.8c-0.1-0.8-0.2-1.6-0.2-2.4c0-5.8,3-11.1,7.9-14.2"/>
	<path class="st1" d="M335.9,343.2C335.9,343.2,335.9,343.2,335.9,343.2"/>
	<line class="st1" x1="361.1" y1="323.5" x2="361" y2="323.5"/>
	<line class="st1" x1="361.1" y1="323.5" x2="361" y2="323.5"/>
	<line class="st1" x1="259.1" y1="304.1" x2="259" y2="304"/>
	<line class="st1" x1="250.8" y1="299.8" x2="250.8" y2="299.7"/>
	<line class="st1" x1="259.1" y1="304.1" x2="259" y2="304"/>
	<line class="st1" x1="250.8" y1="299.8" x2="250.8" y2="299.7"/>
	<path class="st1" d="M248.8,301.3c0.5-0.4,1-0.9,1.5-1.2c0.1-0.1,0.3-0.2,0.5-0.3l0,0"/>
	<line class="st1" x1="270.2" y1="297.4" x2="259.3" y2="303.7"/>
	<polyline class="st1" points="270.2,297.4 270.2,279.2 270.2,279.2 	"/>
	<line class="st1" x1="239.3" y1="315.2" x2="239.3" y2="315.2"/>
	<path id="Polygon-13_2_" class="st1" d="M266.9,271.4v-24.8l-10.2,5.9l-5.1,4.2v23.5L266.9,271.4z"/>
	<path class="st1" d="M206,278.9c0.7,0.5,1.4,0.9,2.1,1.4c0.2,0.1,0.4,0.2,0.6,0.3c0.4,0.2,0.7,0.5,1.1,0.7l0.7,0.4l0.1,0.1l0.4,0.2
		c0.2,0.1,0.5,0.3,0.7,0.4l0.2,0.1l0.4,0.2l1.1,0.6c0.1,0,0.1,0.1,0.2,0.1l0.3,0.2c0.4,0.2,0.8,0.4,1.2,0.7c0.8,0.4,1.6,0.8,2.4,1.2
		c0.8,0.4,1.7,0.9,2.6,1.3l2.3,1.1l2.6,1.1c0.1,0.1,0.3,0.1,0.4,0.2c0.4,0.2,0.9,0.4,1.3,0.5l0.9,0.4l0.2,0.1
		c0.1,0.1,0.2,0.1,0.3,0.1c0.9,0.3,1.8,0.7,2.7,1h0h0.1c0.1,0.1,0.2,0.1,0.3,0.1c0.2,0.1,0.4,0.2,0.6,0.2c0,0,0,0,0,0
		c0.6,0.2,1.2,0.4,1.7,0.7l0.4,0.1"/>
	<path class="st1" d="M238.6,311.3c-1.8,1.3-3.8,2.3-5.9,3c0,0,0,0-0.1,0c-0.1,0-0.1,0-0.2,0c-0.9,0.2-1.8,0.3-2.8,0.3
		c-3.5-0.5-6.9-1.4-10.2-2.5c-3.8-1.3-7.5-3-11-5c-4.9-2.9-9.4-6.3-13.5-10.2l-0.1-0.1c-1.4-1.3-2.7-2.7-3.9-4.2
		c-0.1-0.1-0.1-0.1-0.2-0.2"/>
	<path class="st1" d="M239.5,315.5C239.5,315.5,239.5,315.5,239.5,315.5"/>
	<path id="Shape-37_2_" class="st1" d="M226.7,299.3c1.8,0.5,3,2.3,2.8,4.2c0,0.2,0,0.4-0.1,0.6l0,0c-0.4,1.5-1.9,2.4-3.4,2.1
		c0,0,0,0,0,0c-1.8-0.5-3.1-2.2-2.9-4.1c0-0.1,0-0.3,0.1-0.4l0,0C223.5,300,225,298.9,226.7,299.3
		C226.6,299.3,226.7,299.3,226.7,299.3z"/>
	<path id="Shape-38_2_" class="st1" d="M195.5,281.5c-1.1-1.1-2.1-0.5-2.2,1.2c-0.2,1.8,0.4,3.6,1.5,5.1c1,1.1,2,0.5,2.2-1.2
		C197.2,284.7,196.7,282.9,195.5,281.5L195.5,281.5z"/>
	<path id="Shape-39_2_" class="st1" d="M220.1,302c0.5,0.2,0.9,0.6,1,1.2v0.7c0,0.4-0.2,0.7-0.6,0.8c-0.1,0-0.2,0-0.3,0
		c-3.4-1.1-6.6-2.5-9.7-4.3c-0.5-0.3-0.8-0.9-0.9-1.5v-0.7c0-0.2,0-0.3,0.1-0.4c0.2-0.2,0.5-0.2,0.7,0
		C213.5,299.4,216.7,300.9,220.1,302L220.1,302z"/>
	<path id="Shape-40_2_" class="st1" d="M199.1,290.5c0-0.6,0.3-0.8,0.7-0.3c2.3,1.9,4.8,3.8,7.3,5.4c0.5,0.3,0.8,0.9,0.9,1.5v0.7
		c0,0.6-0.4,0.8-0.9,0.5c-2.5-1.7-5-3.5-7.3-5.4c-0.4-0.4-0.7-1-0.7-1.7V290.5z"/>
	<polygon class="st1" points="270.2,237.6 270.2,237.6 270.2,237.6 256.2,245.7 241.9,256.1 241.9,256.1 241.8,256.1 235.3,252.3 
		234.3,251.8 222.3,244.8 200.4,232.2 200.4,232.2 214.7,221.7 228.7,213.6 228.8,213.6 270.2,237.5 	"/>
	<path id="freepik--percentage-box--inject-47-2_2_" class="st1" d="M240.6,290.9c-0.6-0.4-1-1-1-1.7v-7.3c0-0.2,0-0.3,0.1-0.5
		c0.2-0.3,0.6-0.3,0.9-0.1c0,0,0,0,0,0l3.1,1.8c0.6,0.4,1,1,1,1.8v7.3c0.1,0.3-0.2,0.7-0.5,0.7c-0.2,0-0.4,0-0.5-0.1L240.6,290.9
		L240.6,290.9z"/>
	<path class="st1" d="M237.9,293.1l3.4,2c0.1,0,0.2,0,0.2,0c0.1,0,0.1-0.1,0.1-0.2v-7.5"/>
	<path class="st1" d="M256.4,299l-0.3-0.2l-4.1-2.4c-0.7-0.3-1.5-0.5-2.3-0.5c-1.1,0-2.2,0.4-3.1,1c-4.4,2.5-7.9,8.9-8,14.5
		c0,0.1,0,0.1,0,0.2c0,1.2,0.2,2.4,0.7,3.6"/>
	<path class="st1" d="M239.5,315.6c0.4,0.8,1,1.5,1.7,1.9l4.6,2.6"/>
	<path class="st1" d="M259.2,304.9c-0.1,2.6-0.7,5-1.8,7.3c-1.1,2.3-2.6,4.3-4.5,6.1c-0.5,0.5-1.1,0.9-1.7,1.3c-4.4,2.5-8,0-8-5.4
		c0.1-2.3,0.6-4.5,1.4-6.5c0.8-2.1,2-4,3.5-5.6c0.8-1,1.8-1.8,2.9-2.5c1.9-1,3.7-1.2,5-0.6c1.7,0.7,2.8,2.5,3,5.2
		C259.1,304.4,259.2,304.6,259.2,304.9z"/>
	<path class="st3" d="M270.2,279.2v-41.6v0v0l0,0l78.7-45.4c0.5-0.3,1-0.4,1.5-0.4c1,0,2.1,0.5,2.6,1.5c0.3,0.5,0.4,1,0.4,1.5v36.4"
		/>
	<path class="st1" d="M338.3,258l10.8-6.2c0.7-0.4,1.3-0.9,1.8-1.4c0.1-0.1,0.2-0.2,0.3-0.3c0.1-0.1,0.2-0.2,0.3-0.3
		c0.1-0.1,0.9-1.3,1.1-1.7l0.2-0.5c0-0.1,0.1-0.2,0.1-0.3c0,0.1-0.1,0.2-0.1,0.3l0.4-1.3c0.1-0.2,0.1-0.4,0.1-0.6l0-0.1
		c0-0.2,0-0.3,0.1-0.5c0-0.3,0-0.5,0-0.8v-13.2l0,0"/>
	<path id="Polygon-16_2_" class="st1" d="M274.1,242.4v24.8l32.3-18.7v-24.8L274.1,242.4z"/>
	<polyline id="Polygon-17_2_" class="st1" points="291.1,232.6 291.1,238.9 291.1,240.8 291.1,257.4 	"/>
	<path id="Polygon-18_2_" class="st1" d="M313.6,219.6v24.8l32.3-18.7V201L313.6,219.6L313.6,219.6z"/>
	<polyline id="Polygon-19_2_" class="st1" points="330.6,209.8 330.6,216.1 330.6,218.1 330.6,234.6 	"/>
	<path class="st1" d="M324.2,274.5L320,272c-0.8-0.5-1.5-1.3-1.8-2.2v-0.1c0,0,0,0,0-0.1c-0.5-1.1-0.7-2.4-0.7-3.6
		c0-5.6,3.6-12.2,8-14.7c0.9-0.7,2-1,3.1-1c0.6,0,1.2,0.1,1.8,0.3c0.1,0,0.3,0.1,0.4,0.2h0.1l4.1,2.4"/>
	<path class="st1" d="M330.1,267.5C330.1,267.5,330.1,267.5,330.1,267.5c-0.3,0.2-0.5,0.3-0.8,0.3c-1.1,0.2-1.8-0.7-1.8-2.3
		c0-0.8,0.2-1.6,0.5-2.3c0,0,0,0,0,0c0.1-0.2,0.2-0.5,0.3-0.7c0-0.1,0.1-0.2,0.2-0.3c0-0.1,0.1-0.1,0.1-0.2c0,0,0-0.1,0-0.1
		c0.1-0.2,0.2-0.3,0.4-0.5c0,0,0,0,0,0c0.2-0.2,0.3-0.3,0.5-0.5c0,0,0,0,0,0c0.2-0.2,0.4-0.3,0.5-0.4c0,0,0,0,0,0
		c0.1-0.1,0.3-0.2,0.4-0.2c0.6-0.2,1.3,0,1.7,0.5c0.2,0.2,0.3,0.5,0.3,0.7c0.1,0.3,0.1,0.7,0.1,1.1c0,0.4-0.1,0.9-0.2,1.3
		c0,0.2-0.1,0.4-0.2,0.5c-0.1,0.3-0.2,0.6-0.4,0.9c-0.1,0.1-0.2,0.3-0.2,0.4c-0.1,0.1-0.2,0.3-0.3,0.4v0.1c-0.1,0.1-0.2,0.2-0.2,0.3
		c0,0,0,0,0,0c0,0,0,0.1-0.1,0.1c0,0,0,0,0,0.1l0,0C330.8,266.9,330.5,267.2,330.1,267.5z"/>
	<line class="st1" x1="450.4" y1="376.4" x2="364.5" y2="327.1"/>
	<line class="st1" x1="311.6" y1="330.8" x2="221.8" y2="385.9"/>
	<g>
		<polyline class="st1" points="332.1,79.7 332.1,79.7 331.8,79.9 316.6,88.7 316.6,88.7 318.9,90 319.2,90.1 321.1,91.2 
			326.3,94.2 334.1,98.7 334.1,98.7 341.7,103.2 346.2,105.8 346.2,105.8 417.3,146.8 428.3,153.2 440.9,160.4 440.9,160.4 
			440.9,148.9 440.9,148.9 493.3,118.6 413.1,72.2 413,72.2 413,72.2 413,72.2 413,72.2 387,57.2 		"/>
	</g>
	<line class="st1" x1="360.6" y1="64.7" x2="360.6" y2="64.7"/>
	<line class="st1" x1="331.8" y1="63" x2="331.8" y2="63"/>
	<polyline class="st1" points="412.8,72.2 412.8,72.2 412.7,72.2 	"/>
	<line class="st1" x1="335.2" y1="63.1" x2="335.2" y2="63.1"/>
	<path id="Shape_2_" class="st1" d="M521.1,159.3L521.1,159.3C521.1,159.3,521.1,159.3,521.1,159.3L521.1,159.3z M329.7,109.4
		C329.6,109.4,329.6,109.4,329.7,109.4c-0.2-0.1-0.5-0.2-0.7-0.3c-0.3-0.2-0.5-0.4-0.7-0.6c-0.2-0.2-0.5-0.4-0.7-0.6
		c-1.3-1.3-2.2-2.9-2.6-4.7c-0.4-1.8,0.2-2.8,1.3-2.6c0,0,0,0,0,0c0.3,0,0.6,0.2,0.9,0.4c0.2,0.2,0.5,0.4,0.7,0.6s0.5,0.4,0.7,0.6
		c0.1,0.1,0.1,0.1,0.2,0.2c0.1,0.1,0.2,0.2,0.3,0.4c0.1,0.1,0.2,0.2,0.3,0.3c0.2,0.3,0.4,0.6,0.6,0.9c0.2,0.3,0.3,0.5,0.4,0.8
		c0,0.1,0.1,0.2,0.1,0.2c0.1,0.2,0.2,0.4,0.3,0.6c0.2,0.4,0.3,0.9,0.4,1.3C331.7,108.8,331,109.8,329.7,109.4z M341.1,114.7
		c-0.1,0.1-0.1,0.1-0.2,0.2c-0.1,0.1-0.1,0.1-0.2,0.1c-0.3,0.1-0.6,0.1-1,0c0,0,0,0,0,0c-0.1,0-0.2-0.1-0.3-0.1
		c-0.1,0-0.3-0.1-0.4-0.2h0c-0.2-0.2-0.4-0.3-0.6-0.5c0,0-0.1,0-0.1-0.1c-0.5-0.4-0.9-0.8-1.3-1.3c-0.2-0.2-0.4-0.5-0.5-0.7
		c-0.1-0.2-0.2-0.4-0.3-0.5c0-0.1-0.1-0.2-0.1-0.2c-0.1-0.2-0.2-0.3-0.2-0.5c-0.1-0.2-0.2-0.5-0.3-0.7c0,0,0,0,0-0.1
		c-0.1-0.2-0.1-0.4-0.2-0.6c-0.1-0.2-0.1-0.4-0.2-0.7c-0.1-0.4-0.1-0.7-0.1-1c0-0.1,0-0.3,0-0.4c0-0.1,0-0.1,0-0.2
		c0-0.1,0-0.1,0-0.2c0.1-0.2,0.1-0.3,0.2-0.4c0.2-0.3,0.6-0.5,1.1-0.4c0,0,0,0,0.1,0c0.3,0,0.6,0.2,0.9,0.4c0.4,0.3,0.8,0.6,1.1,0.9
		c0.1,0.1,0.2,0.2,0.2,0.2c0.1,0.1,0.1,0.1,0.2,0.2c0.1,0,0.1,0.1,0.1,0.2c0.1,0.1,0.2,0.3,0.4,0.4c0,0,0,0,0,0.1
		c0.1,0.1,0.2,0.2,0.3,0.4c0,0,0,0,0,0c0.1,0.2,0.2,0.3,0.3,0.5c0.1,0.1,0.2,0.3,0.2,0.4c0.2,0.3,0.4,0.7,0.5,1
		c0.1,0.2,0.2,0.4,0.2,0.6c0.1,0.3,0.2,0.6,0.3,0.9c0.1,0.4,0.1,0.7,0.1,1C341.4,114,341.3,114.4,341.1,114.7z M351.4,119.3
		c0,0.1,0,0.1,0,0.2v0c0,0,0,0,0,0v0c0,0.2-0.1,0.4-0.2,0.6c-0.1,0.2-0.2,0.3-0.3,0.4c-0.1,0-0.1,0.1-0.2,0.1c0,0,0,0,0,0
		c-0.1,0-0.2,0.1-0.2,0.1c-0.1,0-0.2,0-0.3,0c-0.1,0-0.2,0-0.3,0c0,0,0,0,0,0c0,0-0.1,0-0.2,0c0,0,0,0-0.1,0
		c-0.2-0.1-0.4-0.1-0.6-0.3c-0.2-0.2-0.5-0.4-0.7-0.6c-0.3-0.2-0.6-0.5-0.8-0.8c-0.2-0.1-0.3-0.3-0.4-0.5l-0.1-0.1
		c-0.1-0.1-0.2-0.3-0.3-0.4c0,0,0-0.1,0-0.1c-0.1-0.1-0.1-0.2-0.2-0.2c-0.1-0.1-0.1-0.2-0.2-0.3c-0.1-0.1-0.1-0.2-0.2-0.4
		c0-0.1-0.1-0.2-0.1-0.2c-0.1-0.1-0.1-0.2-0.2-0.3c-0.3-0.6-0.5-1.3-0.7-2c-0.2-1-0.1-1.8,0.2-2.2c0-0.1,0.1-0.1,0.2-0.2
		c0,0,0,0,0,0c0,0,0,0,0,0c0,0,0.1,0,0.1,0c0,0,0,0,0,0l0,0c0,0,0,0,0,0c0,0,0.1,0,0.1-0.1c0,0,0,0,0.1,0h0.1c0,0,0,0,0,0
		c0,0,0.1,0,0.1,0c0,0,0.1,0,0.1,0h0c0.1,0,0.2,0,0.3,0h0c0.3,0,0.6,0.2,0.9,0.4c0.5,0.3,1,0.7,1.4,1.2c0.7,0.7,1.3,1.5,1.8,2.4
		c0.4,0.7,0.7,1.5,0.9,2.3c0,0.2,0.1,0.3,0.1,0.5c0,0.1,0,0.2,0,0.2C351.4,119,351.4,119.2,351.4,119.3z M440.9,160.4 M334.1,98.8
		 M440.9,148.9L440.9,148.9l0.4,0.3l0.5,0.3c0.6,0.3,1.2,0.6,1.8,0.9l0.5,0.2c0,0,0,0,0.1,0c0.1,0,0.2,0.1,0.3,0.1l0.2,0.1
		c0.1,0,0.1,0.1,0.2,0.1h0l0.2,0.1c0.2,0.1,0.4,0.1,0.6,0.2c0.2,0.1,0.3,0.1,0.5,0.2c0,0,0,0,0,0c0.1,0.1,0.2,0.1,0.3,0.1h0
		c0.1,0,0.2,0.1,0.3,0.1c0,0,0,0,0.1,0c0.1,0,0.1,0,0.2,0.1c0.1,0,0.2,0.1,0.4,0.2c0.2,0.1,0.5,0.2,0.7,0.3c0.2,0.1,0.3,0.1,0.5,0.2
		v0c0.1,0,0.2,0.1,0.3,0.1c0.1,0.1,0.3,0.1,0.5,0.2c0.3,0.1,0.6,0.2,0.8,0.3c0.1,0,0.1,0.1,0.2,0.1c0.1,0,0.1,0.1,0.2,0.1
		c0.1,0,0.3,0.1,0.4,0.1c0.3,0.1,0.6,0.2,1,0.3c0.2,0.1,0.3,0.1,0.5,0.2c0.3,0.1,0.6,0.2,0.9,0.3c0.3,0.1,0.6,0.2,0.9,0.3
		c0.3,0.1,0.5,0.2,0.8,0.3c4.2,1.4,8.6,2.5,12.9,3.4l1.6,0.3c2.7,0.5,5.5,1,8.4,1.4c7.8,1.1,15.6,1.6,23.4,1.4
		c1.4,0,2.8-0.1,4.2-0.2c0.2,0,0.5,0,0.7-0.1c0.1,0,0.2,0,0.3,0c0.3,0,0.7,0,1-0.1c0.4,0,0.7-0.1,1.1-0.1c0,0,0.1,0,0.1,0
		c0.2,0,0.4,0,0.6,0c0.1,0,0.2,0,0.4,0l0.2,0c0.2,0,0.4,0,0.6-0.1l1.6-0.2l0.2,0l0.7-0.1c0.2,0,0.4-0.1,0.6-0.1
		c0.8-0.1,1.6-0.2,2.5-0.3h0c0.5-0.1,1-0.1,1.4-0.2c0.3,0,0.6-0.1,0.8-0.1c0.1,0,0.3,0,0.4-0.1c0.4-0.1,0.7-0.1,1.1-0.2
		c0.4-0.1,0.7-0.1,1.1-0.1l0,0l-8.3,5.7c-0.4,0.3-0.8,0.6-1.2,0.8c-0.4,0.3-0.8,0.5-1.2,0.8c-1.2,0.8-2.5,1.6-3.8,2.3
		c-0.4,0.2-0.8,0.5-1.3,0.7c-0.9,0.5-1.7,0.9-2.6,1.4s-1.8,0.9-2.6,1.3c-0.9,0.4-1.8,0.8-2.7,1.2c-8.4,3.5-17.4,5.6-26.6,6.1
		c-0.6,0-1.2,0.1-1.8,0.1c-22.1,0.8-36.4-3.8-45.5-9.1l-97.6-56.4l-0.9-0.5c-0.1,0-0.1-0.1-0.2-0.1c-0.2-0.1-0.4-0.2-0.5-0.4
		c-0.2-0.2-0.5-0.3-0.7-0.5c-0.2-0.2-0.3-0.3-0.5-0.5c-0.2-0.2-0.3-0.3-0.5-0.5c-0.2-0.3-0.5-0.6-0.7-1c-0.1-0.1-0.1-0.2-0.2-0.4
		c-0.1-0.3-0.3-0.5-0.4-0.8c-0.1-0.4-0.3-0.8-0.4-1.3l-4.2-19.4v0"/>
	<path class="st1" d="M488.3,144.2l-13.9,8c-0.1,0-0.2,0.1-0.2,0.1c0,0,0,0-0.1,0c-0.1,0-0.1,0-0.2,0c-0.2,0-0.3,0-0.5-0.1
		c0,0,0,0,0,0c0,0,0,0-0.1,0l-3.9-2.3c-0.2-0.1-0.2-0.2-0.2-0.4c0-0.1,0.1-0.1,0.2-0.2l13.9-8c0.1,0,0.2-0.1,0.3-0.1
		c0.1,0,0.3,0,0.4,0h0c0,0,0.1,0,0.1,0c0.1,0,0.2,0.1,0.3,0.1l3.9,2.3C488.6,143.7,488.6,144,488.3,144.2z"/>
	<path class="st1" d="M494.4,140.7c-0.2,0.1-0.3,0.1-0.5,0.1c-0.1,0-0.1,0-0.2,0c0,0-0.1,0-0.1,0c0,0,0,0-0.1,0
		c-0.1,0-0.1,0-0.2-0.1c0,0,0,0,0,0l-3.9-2.3c-0.1,0-0.2-0.1-0.2-0.2c0-0.1,0-0.2,0-0.2c0,0,0,0,0-0.1c0,0,0,0,0.1-0.1v0
		c0,0,0,0,0.1,0l8.8-5.1l5.1-2.9c0.1,0,0.2-0.1,0.3-0.1c0.2,0,0.4,0,0.5,0c0.1,0,0.2,0.1,0.3,0.1l3.9,2.3c0.2,0.1,0.2,0.4,0,0.6
		L494.4,140.7z"/>
	<path class="st1" d="M493.4,118.5l9.5-5.9c1,0.6,3.2,2.2,4.6,3.3c0.5,0.4,1.1,0.9,1.6,1.4c0.6,0.5,1.1,1,1.7,1.6
		c0.3,0.3,0.6,0.6,0.9,0.9c0.7,0.7,1.3,1.4,2,2.1c0.2,0.2,0.4,0.5,0.7,0.8c0,0,0,0,0,0c0.9,1,1.7,2.1,2.5,3.2c0,0,0,0,0,0
		c0.5,0.8,1.1,1.5,1.6,2.4v0c0.3,0.4,0.5,0.8,0.8,1.2c2.9,5,5,10.8,5,16.9c0,2.8-0.4,5.7-1.4,8.7c-0.2,0.5-0.4,1.1-0.6,1.6
		c-0.2,0.5-0.5,1.1-0.7,1.6c-0.1,0.3-0.3,0.5-0.4,0.8v0"/>
	<g>
		<path class="st1" d="M440,127.1c0.4,0.2,0.7,0.7,0.7,1.2l-0.1,10.2v0c0,0,0,0.1-0.1,0.1c0,0.1,0,0.1-0.1,0.1c0,0,0,0,0,0.1
			c-0.1,0.2-0.2,0.3-0.4,0.4l-11.5,6.6c-0.3,0.2-0.7,0.2-1.1,0l-26.4-15.2c-0.3-0.2-0.5-0.5-0.5-0.9v-4.5v-0.6l0,0v-5
			c0-0.1,0-0.2,0.1-0.3c0,0,0,0,0,0c0-0.1,0.1-0.3,0.2-0.4c0,0,0,0,0,0c0.1-0.1,0.1-0.1,0.2-0.2l0.1,0l6.9-3.9l4.5-2.6
			c0.1,0,0.1-0.1,0.2-0.1c0,0,0.1,0,0.1,0c0,0,0,0,0.1,0c0,0,0,0,0.1,0c0,0,0.1,0,0.1,0h0.1c0.1,0,0.1,0,0.2,0
			c0.1,0,0.2,0.1,0.2,0.1l5.4,3.1l9.8,5.6L440,127.1z"/>
		<path class="st1" d="M440.6,135.4l2.2,1.3c0.3,0.2,0.7,0.2,1.1,0l11.5-6.6c0.2-0.1,0.3-0.2,0.4-0.4c0,0,0,0,0-0.1c0,0,0-0.1,0-0.1
			c0,0,0.1-0.1,0.1-0.1v0l0-3l0-7.2c0-0.5-0.3-0.9-0.7-1.2l-11.2-6.5l-9.3-5.3l-0.6-0.3l-3.1-1.8l-2.2-1.3c-0.1,0-0.2-0.1-0.2-0.1
			c-0.1,0-0.1,0-0.2,0h-0.1c0,0-0.1,0-0.1,0c0,0,0,0-0.1,0c0,0,0,0-0.1,0c0,0-0.1,0-0.1,0c-0.1,0-0.1,0-0.2,0.1l-2.6,1.5l-1.9,1.1
			l-1.8,1l-5.1,2.9l-0.1,0c-0.1,0-0.1,0.1-0.2,0.2c0,0,0,0,0,0c-0.1,0.1-0.2,0.2-0.2,0.4c0,0,0,0,0,0c0,0.1-0.1,0.2-0.1,0.3v2.8"/>
		<path class="st1" d="M455.9,126.4l2.2,1.3c0.3,0.2,0.7,0.2,1.1,0l11.5-6.6c0.2-0.1,0.3-0.2,0.4-0.4c0,0,0,0,0,0c0,0,0-0.1,0-0.1
			c0,0,0.1-0.1,0.1-0.1v0l0.1-10.2c0-0.5-0.3-0.9-0.7-1.2l-11.2-6.5l-9.8-5.6l-5.3-3.1c-0.1,0-0.2-0.1-0.2-0.1c-0.1,0-0.1,0-0.2,0
			h-0.1c0,0-0.1,0-0.1,0c0,0,0,0-0.1,0c0,0,0,0-0.1,0c0,0-0.1,0-0.1,0c-0.1,0-0.1,0-0.2,0.1l-2.5,1.5l-2,1.1l-6.9,3.9l-0.1,0
			c-0.1,0-0.1,0.1-0.2,0.2c0,0,0,0,0,0c-0.1,0.1-0.2,0.2-0.2,0.4c0,0,0,0,0,0c0,0.1-0.1,0.2-0.1,0.3v2.8"/>
		<path class="st1" d="M410,113.3l0-2.9c0-0.5-0.3-1-0.7-1.2l-11.2-6.5l-9.8-5.6l-3.1-1.8l-2.2-1.3c-0.1,0-0.2-0.1-0.2-0.1
			c-0.1,0-0.1,0-0.2,0h-0.1c0,0-0.1,0-0.1,0c0,0-0.1,0-0.1,0c0,0,0,0-0.1,0c0,0-0.1,0-0.1,0c-0.1,0-0.1,0-0.2,0.1l-4.5,2.6l-6.9,3.9
			l-0.1,0c-0.1,0-0.1,0.1-0.2,0.2c0,0,0,0,0,0c-0.1,0.1-0.2,0.2-0.2,0.4c0,0,0,0,0,0c0,0.1-0.1,0.2-0.1,0.3v5.1l0,0v0.6v4.5
			c0,0.4,0.2,0.7,0.5,0.9l26.4,15.2c0.3,0.2,0.7,0.2,1.1,0l2.6-1.5"/>
		<path class="st1" d="M385.2,95.4v-2.8c0-0.1,0-0.2,0.1-0.3c0,0,0,0,0,0c0-0.1,0.1-0.3,0.2-0.4c0,0,0,0,0,0
			c0.1-0.1,0.1-0.1,0.2-0.2l0.1,0l6.9-3.9l4.5-2.6c0.1,0,0.1,0,0.2-0.1c0,0,0.1,0,0.1,0c0,0,0,0,0.1,0c0,0,0,0,0.1,0
			c0,0,0.1,0,0.1,0h0.1c0.1,0,0.1,0,0.2,0c0.1,0,0.2,0,0.2,0.1l2.2,1.3l3.1,1.8l9.8,5.6l11.2,6.5c0.4,0.2,0.7,0.7,0.7,1.2l0,2.9"/>
		<path class="st1" d="M400.5,86.3v-2.8c0-0.1,0-0.2,0.1-0.3c0,0,0,0,0,0c0.1-0.1,0.1-0.3,0.2-0.4c0,0,0,0,0,0
			c0.1-0.1,0.1-0.1,0.2-0.2l0.1,0l6.9-3.9l4.5-2.6c0.1,0,0.1,0,0.2-0.1c0,0,0.1,0,0.1,0c0,0,0,0,0.1,0c0,0,0,0,0.1,0
			c0,0,0.1,0,0.1,0h0.1c0.1,0,0.1,0,0.2,0c0.1,0,0.2,0.1,0.2,0.1l5.3,3.1l9.8,5.6l11.2,6.5c0.4,0.2,0.7,0.7,0.7,1.2l0,2.9"/>
	</g>
	<polyline class="st1" points="386.7,68.3 386.8,68.3 386.8,49.6 386.7,49.6 380.2,53.4 360.6,64.7 358.7,65.8 358.7,65.8 
		349.3,71.2 339.3,77 339.3,95.7 339.4,95.7 344.3,92.8 344.3,92.8 	"/>
	<polygon class="st1" points="346.8,80.5 346.2,80.9 345.4,81.3 345.4,78.4 350.4,75.6 350.4,78.4 350.4,78.4 350.4,78.4 	"/>
	<polygon class="st1" points="357.9,74.1 353,76.9 353,74.1 357.9,71.2 	"/>
	<polygon class="st1" points="360.5,72.7 360.5,69.8 363.9,67.8 365.4,66.8 365.5,68.4 365.5,69.8 	"/>
	<polygon class="st1" points="372.9,62.6 372.9,64.5 372.9,65.4 372.3,65.8 372.3,65.8 372.2,65.8 368,68.3 368,65.4 372.9,62.6 
		372.9,62.6 	"/>
	<polygon class="st1" points="380.4,61.1 375.4,64 375.4,64 375.4,64 375.4,61.1 375.4,61.1 380.4,58.2 	"/>
	<polyline class="st1" points="339.3,77 339.3,95.7 331.8,91.4 331.8,72.6 	"/>
	<path id="Polygon-4_2_" class="st1" d="M386.8,49.6l-6.6,3.8l-30.9,17.8v-8.6l30-17.3C379.3,45.2,386.8,49.6,386.8,49.6z"/>
	<polygon class="st1" points="389.5,69.8 352,91.5 352,100.1 389.5,78.5 	"/>
	<path id="Polygon-10_4_" class="st1" d="M351.8,100l-7.5-4.3v-8.7c0,0,7.5,4.3,7.5,4.3"/>
	<polyline class="st1" points="389.4,69.9 382,65.2 344.3,87.1 	"/>
	<polyline class="st1" points="339.3,65.4 339.3,65.4 339.3,65.4 339.3,77 331.8,72.6 331.8,61.1 331.8,61.1 	"/>
	<path id="Shape-27_2_" class="st1" d="M349.3,59.7l-10,5.8l-7.5-4.3l2.5-1.4v0.7c0,0.3,0.2,0.6,0.5,0.7c0.8,0.4,1.7,0.4,2.5,0
		c0.3-0.1,0.5-0.4,0.5-0.7v-2.7l4-2.3L349.3,59.7z"/>
	<line id="Line-5_2_" class="st1" x1="334.3" y1="59.7" x2="334.3" y2="53.6"/>
	<line id="Line-6_2_" class="st1" x1="337.8" y1="57.6" x2="337.8" y2="53.4"/>
	<path id="Shape-28_2_" class="st1" d="M337.8,53.2c0.1,0.4-0.1,0.8-0.5,1c-0.8,0.4-1.7,0.4-2.5,0c-0.2-0.1-0.4-0.2-0.5-0.5
		c-0.1-0.2-0.1-0.4,0-0.6c0.1-0.2,0.2-0.3,0.4-0.4c0.8-0.4,1.7-0.4,2.5,0C337.5,52.8,337.7,52.9,337.8,53.2L337.8,53.2z"/>
	<path class="st1" d="M57.1,243.3L57.1,243.3c-0.6,0-1.1-0.5-1.1-1.1v-31.7c0-0.6,0.5-1.1,1.1-1.1l0,0c0.6,0,1.1,0.5,1.1,1.1v31.7
		C58.2,242.8,57.7,243.3,57.1,243.3z"/>
	<line class="st1" x1="349.3" y1="59.8" x2="349.3" y2="63.2"/>
	<line class="st1" x1="241.8" y1="256.1" x2="233.9" y2="292.3"/>
</g>
</svg>
