<svg xmlns="http://www.w3.org/2000/svg" viewBox="0 0 828.91 410.79"><defs><style>.cls-1,.cls-2{fill:#edc8c8;stroke:#686868;stroke-linecap:round;stroke-linejoin:round;}.cls-2{fill-rule:evenodd;}</style></defs><g id="Layer_2" data-name="Layer 2"><g id="Layer_1-2" data-name="Layer 1"><path id="Shape" class="cls-1" d="M319.08,404.92l-9.16,5.37L223.42,383h-.11q9.31-1.44,18.61-3.05l7.43-1.34,4.44-.82,5.91-1.12,5.28-1c10.24-1.95,19.68-3.9,28.44-6l22.67,19.54c6.81,5.66,8.1,12.77,3,15.7Z"/><line id="Line" class="cls-1" x1="294.38" y1="370.53" x2="293.41" y2="369.56"/><path id="Shape-2" data-name="Shape" class="cls-1" d="M562.12,275l-42-16.35,52-30v.26a43.62,43.62,0,0,0,15.63,31Q574.64,266,562,273.16a3.31,3.31,0,0,0,.14,1.79Z"/><line id="Line-2" data-name="Line" class="cls-1" x1="521.02" y1="258.1" x2="520.05" y2="258.1"/><path id="Shape-3" data-name="Shape" class="cls-1" d="M774.83,339.12,755.6,350.18l-59-22.93a148.49,148.49,0,0,0,20.11-13.79,1.27,1.27,0,0,0,0-1.79h0a1.28,1.28,0,0,0-1.38-.37,196.15,196.15,0,0,0-25.76,12.41,1.71,1.71,0,0,0,0,.78h0l-54.19-21.07a201.91,201.91,0,0,0,28.06-19.32,1.73,1.73,0,1,0-1.83-2.93,284.67,284.67,0,0,0-35.73,17.18,2.7,2.7,0,0,0,.1,1.41l-52-20.23a250.61,250.61,0,0,0,22.69-14.65,15.52,15.52,0,0,0,6.4.28,198.22,198.22,0,0,0,28.08-9.5c11.88-5,24.46-11.61,31-19.21h0a13,13,0,0,0,3.32-4.72L775.76,321.2h-.07a10.35,10.35,0,0,1-.86,17.91Z"/><path id="Shape-4" data-name="Shape" class="cls-1" d="M596.64,264.91A250.61,250.61,0,0,1,574,279.56l-.44.27a16.29,16.29,0,0,1-8.48-1.76,5.88,5.88,0,0,1-2.93-3.1,3.34,3.34,0,0,1-.15-1.8q12.64-7.19,25.83-13.31a40.32,40.32,0,0,0,4,2.93,15.28,15.28,0,0,0,4.88,2.12Z"/><path id="Shape-5" data-name="Shape" class="cls-1" d="M663.4,284.1a201.91,201.91,0,0,1-28.06,19.32h0l-.29.17a12.82,12.82,0,0,1-6.83-1.35,4.59,4.59,0,0,1-2.28-2.47,2.71,2.71,0,0,1-.1-1.41,284.67,284.67,0,0,1,35.73-17.18,1.73,1.73,0,1,1,1.83,2.93Z"/><path id="Shape-6" data-name="Shape" class="cls-1" d="M716.69,313.46a148.49,148.49,0,0,1-20.11,13.79h0l-.46.26a9.36,9.36,0,0,1-4.82-1,3.22,3.22,0,0,1-1.75-1.95h0a1.71,1.71,0,0,1,0-.78,195.43,195.43,0,0,1,25.79-12.43,1.28,1.28,0,0,1,1.38.37h0a1.26,1.26,0,0,1,0,1.72Z"/><polyline id="Polygon" class="cls-1" points="182.09 337.84 182.06 337.65 182.06 337.64"/><path id="Shape-7" data-name="Shape" class="cls-1" d="M261.38,275.76c-9.85,6.57-18.32,12.54-24.73,17.58-11.65,9.1-25,19.92-37.87,30.5l-19.95-.49L149.37,192.49l50.3,9.58,1,1.18h0c.06.76.49,2.1,2.47,3.21l.39.18h0Z"/><path id="Shape-8" data-name="Shape" class="cls-1" d="M572.13,228.16v1h0"/><line id="Line-3" data-name="Line" class="cls-1" x1="621.43" y1="202.1" x2="621.43" y2="200.15"/><path id="Shape-9" data-name="Shape" class="cls-1" d="M667.09,223a21.87,21.87,0,0,1-1.59,8.72,13,13,0,0,1-3.32,4.72h0c-4.16,3.64-10.57,3.82-17.74-.35A50,50,0,0,1,623.32,207a46.56,46.56,0,0,1-1.36-7.1l2.52-1.46,4.33-2.5h0l10.53-6h0l7.55-4.35h0a50.17,50.17,0,0,1,20.2,37.5Z"/><line id="Line-4" data-name="Line" class="cls-1" x1="182.05" y1="339.6" x2="182.05" y2="337.64"/><path id="Shape-10" data-name="Shape" class="cls-1" d="M385.19,237.42c-47.78,26-87.22,47.29-103.82,55.85-14.2,7.34-25.63,12.93-34.66,16.92l-.1,0-32.33,18.56,5.56-4.54-20.78-.46h-.25c12.86-10.58,26.22-21.4,37.87-30.5,6.41-5,14.88-11,24.73-17.58,21.3-14.21,49-31.24,76-47.45Z"/><path id="Shape-11" data-name="Shape" class="cls-2" d="M828.39,35.19v-.31a21.73,21.73,0,0,0-.26-2.4,3.51,3.51,0,0,0-.13-.72c0-.24-.11-.53-.17-.79a12.1,12.1,0,0,0-.39-1.39c-.06-.23-.14-.46-.22-.68l-.24-.66h0l-.41-1c-.15-.31-.3-.6-.47-.89a5.6,5.6,0,0,0-.33-.59c-.36-.57-.73-1.11-1.12-1.64-.19-.26-.39-.5-.6-.74l-.12-.13a17.58,17.58,0,0,0-1.62-1.61c-.3-.25-.58-.49-.88-.72a9,9,0,0,0-1-.69c-.35-.2-.61-.42-1-.62a1.71,1.71,0,0,0-.23-.13c-.28-.18-.57-.34-.84-.49a25.4,25.4,0,0,0-2.35-1.12l-1.15-.46a42.39,42.39,0,0,0-6.26-1.74c-.45-.08-.88-.17-1.33-.24L806,15.25l-.79-.11-.37-.05c-.32,0-.65-.09-1-.12l-1-.11c-.34,0-.54-.06-.81-.07-.52-.06-1-.1-1.57-.14s-1.14-.08-1.7-.1h-.83c-.76,0-1.52-.06-2.28-.07h-4.28A39.28,39.28,0,0,0,756.26.82c-24,2.18-46.64,11.72-86.09,34.5L481.24,144.48a55.3,55.3,0,0,1,14.22,32.75c0,.46.07.92.09,1.37A22.71,22.71,0,0,1,493,189.83h0l.11.22c-5.7,10-21.85,18.77-37,25-5.1,2.14-10.09,4-14.54,5.52h0a153,153,0,0,1-16.37,4.88A17.11,17.11,0,0,1,413,222.83l-.45-.29L385.16,237.4c-47.76,26-87.2,47.3-103.8,55.86-14.2,7.34-25.62,12.93-34.65,16.92l-.1,0-32.33,18.56h0l-44.51,36.31a13.51,13.51,0,0,1-12.06,2.78l-8.85-2.07h-.18l-3.91,3.34a21,21,0,0,0-9.41,16.36v.2a5.81,5.81,0,0,0,0,.59c.25,3.86,2.34,6,5.19,6h.55q41.31-3,82.25-9.42,9.32-1.42,18.6-3l7.43-1.34,4.45-.82,5.9-1.12,5.29-1c10.24-1.95,19.67-3.91,28.43-6,1.79-.42,3.57-.84,5.31-1.28q5.25-1.24,10.18-2.59l2.44-.67,3.31-.91,3.24-1c6.43-1.85,12.47-3.78,18.21-5.78l2.6-.91c1.2-.43,2.39-.86,3.57-1.3l2-.74,3.95-1.51,2-.79c1.23-.47,2.45-1,3.65-1.46l2.09-.88c1-.38,1.88-.78,2.81-1.18l.38-.18.54-.23,4.06-1.81a2.88,2.88,0,0,0,.45-.19c1-.42,1.87-.84,2.8-1.28q1.8-.82,3.57-1.68l3.57-1.73c4.72-2.3,9.35-4.7,14-7.21q2.5-1.31,5-2.72c1.68-.91,3.37-1.84,5-2.79l.45-.26,2.65-1.49c1.56-.87,3.13-1.76,4.69-2.67l2.31-1.33q5.93-3.4,12.18-7l99.58-57.4,52-30,49.29-28.42.48-.27,2.52-1.46,4.34-2.5h0l10.52-6.05h0l7.55-4.34h0L762.1,119.16c31.51-18.2,61.1-50.64,65.66-75.83.1-.61.2-1.18.28-1.77s.15-1.14.2-1.69.07-.86.1-1.27V37.15a11,11,0,0,0,0-2Zm-109.1-4.94h0A18.73,18.73,0,0,1,727,17.78,92.44,92.44,0,0,1,781.7,6.37a34,34,0,0,1,9.55,8.07h0a185.75,185.75,0,0,0-72,15.81Z"/><path id="Shape-12" data-name="Shape" class="cls-1" d="M662.13,236.48c-6.55,7.59-19.13,14.24-31,19.21a195.57,195.57,0,0,1-28.08,9.5,16,16,0,0,1-11.26-2.39,41.89,41.89,0,0,1-4-2.92,43.58,43.58,0,0,1-15.62-31,1.13,1.13,0,0,1,0-.26l49.29-28.42.48-.27a46.56,46.56,0,0,0,1.36,7.1,50.05,50.05,0,0,0,21.08,29.14c7.17,4.13,13.58,4,17.74.31Z"/><path id="Shape-13" data-name="Shape" class="cls-1" d="M495.47,177.23l13.38-7.33h0C587.65,126.72,658.57,87.62,670,81c26.27-15.14,32.8-33.27,49.23-50.73"/><path id="Shape-14" data-name="Shape" class="cls-1" d="M219.85,324.26l-5.56,4.54h0l-44.51,36.31a13.51,13.51,0,0,1-12.06,2.78l-8.85-2.07h-.18L10.32,333.3l11.06-6.84a62.45,62.45,0,0,1,27.17-6l130.28,2.93,19.95.44H199Z"/><line id="Line-5" data-name="Line" class="cls-1" x1="510.8" y1="169.9" x2="508.85" y2="169.9"/><path id="Shape-15" data-name="Shape" class="cls-1" d="M412.49,222.56l-27.34,14.86-47.75-9.07-31.55-6a254.82,254.82,0,0,0,30-21.37,2.19,2.19,0,0,0,1.21-1.88,2.16,2.16,0,0,0-1.09-2,2.19,2.19,0,0,0-2.24,0,347,347,0,0,0-45.13,21.89L214.79,205a200.8,200.8,0,0,0,23.48-16.74,1.71,1.71,0,0,0,.21-2,1.73,1.73,0,0,0-1.78-.84h0a278.72,278.72,0,0,0-35.58,17h0l-1.47-.29-50.3-9.58h0L124,187.74a150,150,0,0,0,17-12,1.28,1.28,0,0,0,0-1.81,1.3,1.3,0,0,0-1.37-.37,205.48,205.48,0,0,0-25.51,12.27h0L.5,164.15l11.13-14.53a34,34,0,0,1,26-11.72l368.45,24.81c-1.34,1.18-2.58,2.31-3.71,3.37-.29.26-.54.51-.8.74l-.83.78-1.31,1.18-1.95,1.88-.65.63c-1.2,1.22-1.95,2.05-2.22,2.37l-.95,1.61a3.39,3.39,0,0,0-.32.56l-.54,1.11c-.1.19-.18.38-.26.57a17.12,17.12,0,0,0-1.4,6.84v1a47.58,47.58,0,0,0,21.37,37.24Z"/><path id="Shape-16" data-name="Shape" class="cls-1" d="M335.87,200.94a252.51,252.51,0,0,1-30,21.37c-2.09,1.27-4.19,2.5-6.32,3.71a16.53,16.53,0,0,1-8.4-1.77c-3.79-2.19-3-4.88-3-4.88l.56-.33a348.26,348.26,0,0,1,45.1-21.94,2.18,2.18,0,1,1,2.12,3.8Z"/><path id="Shape-17" data-name="Shape" class="cls-1" d="M238.27,188.22A202.06,202.06,0,0,1,214.79,205h0c-1.61,1-3.23,1.95-4.89,2.92a12.44,12.44,0,0,1-6.38-1.18h0l-.39-.18c-2-1.12-2.41-2.45-2.47-3.22h0a2.22,2.22,0,0,1,0-.63l.46-.25h0a277.54,277.54,0,0,1,35.61-17h0a1.7,1.7,0,0,1,1.57,2.79Z"/><path id="Shape-18" data-name="Shape" class="cls-1" d="M141,175.69a148.72,148.72,0,0,1-17,12h0c-1.2.73-2.4,1.45-3.62,2.14a9.94,9.94,0,0,1-4.89-1c-2.1-1.31-1.68-2.85-1.68-2.85l.28-.16h0a207,207,0,0,1,25.51-12.28,1.3,1.3,0,0,1,1.37.37,1.28,1.28,0,0,1,0,1.78Z"/><path id="Shape-19" data-name="Shape" class="cls-1" d="M791.31,14.44a185.68,185.68,0,0,0-72,15.81h0A18.68,18.68,0,0,1,727,17.79,92.39,92.39,0,0,1,781.7,6.37a34,34,0,0,1,9.55,8.07Z"/><path id="Shape-20" data-name="Shape" class="cls-1" d="M493.14,190.07c-5.73,10-21.88,18.75-37,25-5.1,2.14-10.09,4-14.54,5.52h0a153,153,0,0,1-16.37,4.88A17.1,17.1,0,0,1,413,222.84l-.45-.3a47.58,47.58,0,0,1-21.37-37.24v-1a17,17,0,0,1,1.4-6.83,6,6,0,0,1,.26-.58l.54-1.11a3.86,3.86,0,0,1,.32-.56l1-1.57a29.69,29.69,0,0,1,2.22-2.37l.71-.56c.56-.57,1.2-1.19,2-1.88l1.3-1.25.83-.78c.27-.23.52-.48.81-.74,1.13-1.05,2.37-2.19,3.71-3.37.55-.51,1.14-1,1.74-1.54s1.35-1.17,2.05-1.77c1.32-1.13,2.69-2.27,4.12-3.45l1.89-1.53c.64-.51,1.29-1,1.95-1.53q1.79-1.43,3.65-2.8c.68-.51,1.36-1,2.07-1.53L426,146.9c.64-.46,1.3-.92,1.95-1.36l.5-.34c.68-.46,1.39-1,2.08-1.37l.62-.41c.63-.42,1.3-.84,1.95-1.24a.1.1,0,0,1,.07,0l2.32-1.42,1.2-.69,1.19-.68,1.43-.77,1.69-.89,2.34-1.14,1.18-.53,1.15-.49c.45-.19.89-.37,1.33-.53s1.07-.42,1.6-.61c.69-.26,1.39-.49,2.1-.68a10.68,10.68,0,0,1,1.06-.32,6.69,6.69,0,0,1,.77-.2,7,7,0,0,1,.76-.18l.55-.12.88-.18.54-.1.4-.06.57-.07c-6.29,1.61-10.37,7.81-10.37,17.4a54.74,54.74,0,0,0,1.77,11.23h0A55.07,55.07,0,0,0,470.74,193c4.59,2.66,8.9,3.7,12.6,3.32h0a12.37,12.37,0,0,0,9.72-6.41h.06Z"/><path id="Shape-21" data-name="Shape" class="cls-1" d="M456.23,133.25c.28,0,.56-.46.84-.59l.87-.39H459"/><path id="Shape-22" data-name="Shape" class="cls-1" d="M495.56,178.61A22.6,22.6,0,0,1,493,189.84v.07a12.37,12.37,0,0,1-9.72,6.41h0c-3.7.38-8-.66-12.59-3.32a55,55,0,0,1-23.15-31.92h0a54.74,54.74,0,0,1-1.77-11.23c0-9.64,4.09-15.79,10.37-17.4h.14c4.05-1,9-.09,14.41,3a55.39,55.39,0,0,1,24.83,41.8c0,.44,0,.89,0,1.35Z"/></g></g></svg>