<svg xmlns="http://www.w3.org/2000/svg" viewBox="0 0 630.33 412.16"><defs><style>.cls-1,.cls-2,.cls-3,.cls-4,.cls-5{fill:none;stroke:#686868;stroke-linecap:round;stroke-linejoin:round;}.cls-2,.cls-3,.cls-4,.cls-5{fill-rule:evenodd;}.cls-3{opacity:0.35;}.cls-3,.cls-4,.cls-5{isolation:isolate;}.cls-4{opacity:0.3;}.cls-5{opacity:0.2;}</style></defs><g id="Layer_2" data-name="Layer 2"><g id="Layer_1-2" data-name="Layer 1"><line class="cls-1" x1="343.48" y1="49.26" x2="343.47" y2="49.26"/><line class="cls-1" x1="362.98" y1="50.61" x2="362.97" y2="50.61"/><line class="cls-1" x1="375.7" y1="51.88" x2="375.68" y2="51.88"/><line class="cls-1" x1="389.92" y1="53.69" x2="389.91" y2="53.69"/><path class="cls-2" d="M23,163.13h0A180.58,180.58,0,0,1,55.84,127.5,258,258,0,0,1,93,101.71C125.68,82.84,163.76,69,204.38,60.16A530,530,0,0,1,331.52,48.77"/><path class="cls-2" d="M419.9,58.81h0c43,8.73,83.43,23,117.83,42.9,122.8,70.9,122.78,185.83,0,256.75-23.19,13.4-49.1,24.27-76.71,32.6-77.44,23.38-168.22,26.85-249.62,10.43h0c-43.25-8.73-83.85-23.08-118.4-43-23.54-13.59-42.57-28.79-57.08-45-30.6-34.16-41.14-72.75-31.64-110"/><line class="cls-1" x1="383.66" y1="52.85" x2="383.64" y2="52.85"/><path class="cls-2" d="M350.61,49.67h0"/><line class="cls-1" x1="335.25" y1="48.89" x2="335.24" y2="48.89"/><path id="Shape" class="cls-2" d="M532.68,154.61c-1.1.16-2.21.3-3.32.43l-1,.11-2.73.27c-.78.06-1.56.13-2.34.18s-1.47.11-2.21.15c-1.54.08-3.08.16-4.63.19a156.56,156.56,0,0,1-25.59-1.55c-3.19-.45-6.26-1-9.18-1.57l-1.71-.35a137.36,137.36,0,0,1-25-7.63l-1.59-.72h0c-.74-.34-1.4-.67-2-1h0l-.53-.29h0l-.47-.28h0v12.57h0l-.06,0-13.69-7.91L392,121.47,333.68,87.78l-8.53-4.94-10.51-6.06L319.25,98a9.18,9.18,0,0,0,4.39,6l107.65,62.17c10,5.76,25.61,10.76,49.7,9.92a89.56,89.56,0,0,0,47.85-15.95l9.09-6.28.05,0C536.22,154.08,534.46,154.36,532.68,154.61ZM328.14,99.07a11.15,11.15,0,0,1-4.4-6.4c-.53-2.4.59-3.51,2.48-2.4a11,11,0,0,1,4.4,6.4C331.15,99.1,330,100.17,328.14,99.07Zm10.9,6.15a11,11,0,0,1-4.38-6.39c-.54-2.4.58-3.5,2.48-2.4a11,11,0,0,1,4.39,6.39C342.06,105.24,341,106.33,339,105.22ZM350,111.38a11.06,11.06,0,0,1-4.4-6.4c-.53-2.4.58-3.5,2.49-2.4a10.94,10.94,0,0,1,4.4,6.38C353,111.4,351.87,112.47,350,111.38Z"/><path id="Shape-2" data-name="Shape" class="cls-2" d="M330.62,96.67c.53,2.43-.62,3.5-2.48,2.4a11.14,11.14,0,0,1-4.4-6.4c-.53-2.4.59-3.51,2.49-2.4a10.94,10.94,0,0,1,4.39,6.4Z"/><path id="Polygon" class="cls-2" d="M314.63,76.75l19.08,11-19.07-11v0Z"/><path id="Shape-3" data-name="Shape" class="cls-2" d="M341.54,102.82c.52,2.42-.59,3.51-2.49,2.4a11,11,0,0,1-4.4-6.39c-.53-2.4.59-3.5,2.48-2.4a11,11,0,0,1,4.41,6.39Z"/><path id="Shape-4" data-name="Shape" class="cls-2" d="M352.45,109c.53,2.43-.59,3.5-2.49,2.4a11,11,0,0,1-4.4-6.39c-.53-2.4.58-3.5,2.49-2.4a10.93,10.93,0,0,1,4.4,6.39Z"/><path id="Polygon-2" data-name="Polygon" class="cls-2" d="M333.71,87.78l116.65,67.35h0L333.71,87.78Z"/><path id="Shape-5" data-name="Shape" class="cls-2" d="M538,153.75l-.06,0h0a137,137,0,0,1-21.48,2.15,157.74,157.74,0,0,1-25.6-1.55c-20.39-2.89-35.63-9-40.5-11.82h0c4.89,2.81,20.12,8.92,40.48,11.8a156.56,156.56,0,0,0,25.6,1.56A139.3,139.3,0,0,0,538,153.75Z"/><path id="Shape-6" data-name="Shape" class="cls-2" d="M328.14,99.07a11.14,11.14,0,0,1-4.4-6.4c-.53-2.4.59-3.51,2.49-2.4a10.94,10.94,0,0,1,4.39,6.4c.53,2.43-.62,3.5-2.48,2.4Z"/><path id="Shape-7" data-name="Shape" class="cls-2" d="M339.05,105.22a11,11,0,0,1-4.4-6.39c-.53-2.4.59-3.5,2.48-2.4a11,11,0,0,1,4.41,6.39c.52,2.42-.59,3.51-2.49,2.4Z"/><path id="Shape-8" data-name="Shape" class="cls-2" d="M350,111.37a11,11,0,0,1-4.4-6.39c-.53-2.4.58-3.5,2.49-2.4a10.93,10.93,0,0,1,4.4,6.39c.53,2.43-.59,3.5-2.49,2.4Z"/><path id="Shape-9" data-name="Shape" class="cls-2" d="M518.56,103.23l-30,17.29-21.21,12.25-16.93,9.77c3.67,2.12,13.14,6.08,26.23,9.16,0,0,0,0,0,0,4.37,1,9.14,1.93,14.23,2.66a156.69,156.69,0,0,0,25.6,1.55l2.71-.08c1.8-.08,3.61-.18,5.4-.33s3.6-.33,5.39-.54l2.69-.35c1.78-.25,3.54-.53,5.3-.85h0l0,0h0C550.13,129.88,526.77,107.94,518.56,103.23Zm-16.44,34.16-15.18,8.78a1.25,1.25,0,0,1-1.16,0l-4.3-2.47a.36.36,0,0,1,0-.67l15.18-8.79a1.41,1.41,0,0,1,1.17,0l4.29,2.46C502.45,136.91,502.45,137.18,502.12,137.39ZM524,124.78l-15.19,8.77a1.22,1.22,0,0,1-1.17,0l-4.3-2.49a.37.37,0,0,1-.23-.21.39.39,0,0,1,.23-.47l15.22-8.71a1.36,1.36,0,0,1,1.15,0l4.29,2.48C524.27,124.3,524.27,124.6,524,124.78Z"/><path id="Shape-10" data-name="Shape" class="cls-2" d="M524,124.78l-15.2,8.78a1.31,1.31,0,0,1-1.16,0l-4.3-2.5a.34.34,0,0,1-.23-.22.36.36,0,0,1,.23-.45l15.21-8.72a1.31,1.31,0,0,1,1.16,0l4.29,2.47c.33.16.33.46,0,.64Z"/><path id="Shape-11" data-name="Shape" class="cls-2" d="M502.12,137.39,487,146.17a1.27,1.27,0,0,1-1.17,0l-4.29-2.48c-.33-.18-.33-.49,0-.66l15.18-8.79a1.36,1.36,0,0,1,1.15,0l4.3,2.46c.33.21.33.48,0,.69Z"/><path id="Shape-12" data-name="Shape" class="cls-1" d="M439.88,95.27h0l2.64,1.49M404.44,74.64l2.56,1.5,5.12,3m30.59,17.74-.12-.09"/><path id="Shape-13" data-name="Shape" class="cls-2" d="M419.91,58.81h0l-28.37-16.4v12.2l2.71,1.58v9.48L353.32,89.25l-8.17-4.71V81.37l-5.46,3.15h0v0l-8.15-4.73V67l-16.89,9.75,10.52,6.09,8.53,4.94,116.63,67.35V142.54l57.28-33.07Zm63,55.56-12.49,7.21a1.38,1.38,0,0,1-1.09,0l-2.16-1.26v2.62a0,0,0,0,0,0,0,1.38,1.38,0,0,1-.57.86l-12.48,7.2a1.31,1.31,0,0,1-.59.14v-.05h0a1.14,1.14,0,0,1-.52-.08l-2.09-1.21v2.36a1.28,1.28,0,0,1-.59,1l-12.53,7.22a1.25,1.25,0,0,1-1.16,0l-28.87-16.65a1.28,1.28,0,0,1-.58-1v-5.63L402.23,120a1.29,1.29,0,0,1-1.15,0l-28.81-16.65a1.27,1.27,0,0,1-.57-.93V91.09a1.29,1.29,0,0,1,.58-1l.06,0a0,0,0,0,1,0,0,.06.06,0,0,1,.05,0,.29.29,0,0,1,.13-.12l11.93-6.87.13-.06h0l.05,0,0,0,.06,0a1.25,1.25,0,0,1,1.16,0H386l.15.06,1.9,1.1V81.6a1.23,1.23,0,0,1,.66-1l12.49-7.21a1.33,1.33,0,0,1,1.17,0l2.09,1.22V72.18a1.27,1.27,0,0,1,.58-1h.06l.12-.09s0,0,.06-.07l11.91-6.85,0,0,.16-.07.07,0a.67.67,0,0,1,.17-.06l.06,0a1.3,1.3,0,0,1,.93.08l0,0h0l.18.11,28.27,16.33.07,0,.16.09,0,0h0l0,0a1.27,1.27,0,0,1,.54,1v5.63l.1,0,4.79-2.77a1.41,1.41,0,0,1,1.17,0l28.81,16.65a1.33,1.33,0,0,1,.58,1v11.29A1.27,1.27,0,0,1,482.93,114.37Z"/><polyline class="cls-1" points="437.61 86.94 437.66 87 437.68 87"/><line id="Line" class="cls-1" x1="412.13" y1="79.11" x2="404.44" y2="74.66"/><line id="Line-2" data-name="Line" class="cls-1" x1="405.09" y1="71.14" x2="417.42" y2="64.03"/><path id="Shape-14" data-name="Shape" class="cls-2" d="M447.54,80.94a.48.48,0,0,1,0,.17h0a.51.51,0,0,1-.33.34l-9.61,5.49-2.33,1.33a1.91,1.91,0,0,1-1.74,0L414.9,77.51h0l-9.63-5.57c-.4-.19-.47-.53-.2-.8h0a.7.7,0,0,1,.19-.16l11.9-6.86.2-.09h0a1.87,1.87,0,0,1,1.5.12l28.27,16.32a.6.6,0,0,1,.15.09.47.47,0,0,1,.13.15.65.65,0,0,1,.13.23Z"/><path id="Shape-15" data-name="Shape" class="cls-2" d="M448,87.29V81.66a1.27,1.27,0,0,0-.52-1h-.05l-.24-.14c.48.26.47.69,0,1L437.67,87l-2.38,1.37a1.89,1.89,0,0,1-.93.21v6.73"/><line class="cls-1" x1="407.13" y1="104.58" x2="407.12" y2="104.57"/><path id="Shape-16" data-name="Shape" class="cls-2" d="M431.75,96.76V91.09a1.28,1.28,0,0,0-.59-1l-19-11-7.69-4.49"/><line class="cls-1" x1="388.09" y1="84.14" x2="388.09" y2="84.13"/><line id="Line-3" data-name="Line" class="cls-1" x1="372.36" y1="90.07" x2="384.59" y2="82.99"/><line class="cls-1" x1="386.09" y1="82.99" x2="386.08" y2="82.99"/><line class="cls-1" x1="384.61" y1="82.99" x2="384.6" y2="82.99"/><path class="cls-2" d="M384.7,82.93s0,0,0,0l-.06,0-.13.05L372.54,89.9a.56.56,0,0,0-.16.15h0a0,0,0,0,0,0,0,.52.52,0,0,0,0,.51.51.51,0,0,0,.27.27l28.29,16.31a2.31,2.31,0,0,0,.84.21,2.41,2.41,0,0,0,.87-.21l4.56-2.63,7.35-4.22a.59.59,0,0,0,.25-.33.55.55,0,0,0-.05-.4l-.07-.09s0,0,0,0l0,0a.4.4,0,0,0-.12-.11l-18.69-10.8-7.65-4.42L386.21,83l-.12-.05h0"/><path id="Shape-17" data-name="Shape" class="cls-2" d="M401.65,120.16V107.4h0a1.63,1.63,0,0,0,.87-.16l4.6-2.65,7.31-4.21c.35-.21.45-.5.27-.75l-.1-.12"/><path id="Shape-18" data-name="Shape" class="cls-2" d="M414.47,99.41l.16.1h0a1.3,1.3,0,0,1,.59,1v5.63"/><line id="Line-4" data-name="Line" class="cls-1" x1="467.91" y1="121.06" x2="467.16" y2="120.32"/><path id="Shape-19" data-name="Shape" class="cls-2" d="M448.07,87.26H448l-4.88,2.82-2.66,1.5a1.28,1.28,0,0,0-.58,1v2.58"/><path id="Shape-20" data-name="Shape" class="cls-2" d="M453.51,131.14a1.19,1.19,0,0,0,.6-.2l12.49-7.21a1.35,1.35,0,0,0,.55-.75"/><path id="Shape-21" data-name="Shape" class="cls-2" d="M467.19,120.32v-9a1.47,1.47,0,0,0-.06-.14,1.3,1.3,0,0,0-.08-.17,1.39,1.39,0,0,0-.4-.4h0l0,0h0l-19.08-11-4-2.32-1-.56h0l-2.64-1.5L437.73,94a2.06,2.06,0,0,0-.35-.12H437a1.66,1.66,0,0,0-.43.14l-2.24,1.28-2.6,1.49-2.71,1.57-4.91,2.78h-.05a1.35,1.35,0,0,0-.59,1v2.44"/><path id="Shape-22" data-name="Shape" class="cls-2" d="M467.16,111.61V123a1.29,1.29,0,0,1-.56.86L454.12,131a1.22,1.22,0,0,1-.59.14V118.46a1.74,1.74,0,0,0,.89-.18l4.62-2.67,7.27-4.2a.49.49,0,0,0,.32-.39.17.17,0,0,0,0-.1.17.17,0,0,0,0-.1.17.17,0,0,0,0-.1.6.6,0,0,0-.09-.15h0l-.06-.06.11.06h0a1.22,1.22,0,0,1,.49.6,1.21,1.21,0,0,1,.05.14v.14a.86.86,0,0,1,0,.16Z"/><path id="Shape-23" data-name="Shape" class="cls-2" d="M450.86,121v11.26a1.21,1.21,0,0,1-.59,1l-12.48,7.22a1.26,1.26,0,0,1-1.18,0l-28.85-16.66a1.27,1.27,0,0,1-.59-1V111.6a1.27,1.27,0,0,1,.59-1l7.54-4.34h0l4.93-2.85a1.25,1.25,0,0,1,1.16,0l5.84,3.37L450.31,120a1.25,1.25,0,0,1,.55,1Z"/><path id="Shape-24" data-name="Shape" class="cls-2" d="M384.36,38.27,363,50.61h0l-12.36,7.14-10.92,6.3h0V84.52h0l5.46-3.15V75.08l38.49-22.23h0l2.39-1.39,3.86,2.23h0l1.61.92V34.13Zm-32.48,27.4-4.6,2.61-.87.49v0h0V65.67h0l5.44-3.14,0,3.11Zm8.17-4.76v0l-5.43,3.11V60.91l5.43-3.14v0h0Zm8.23-4.69-5.46,3.15V56.19L368.25,53l0,0Zm8.14-4.76-.72.42h0L371,54.61V51.46l5.45-3.15Zm8.19-4.73-5.46,3.15V46.73l5.46-3.15Z"/><path id="Polygon-3" data-name="Polygon" class="cls-2" d="M339.69,64.06V84.53l-8.18-4.72V59.33l8.18,4.73Z"/><path id="Polygon-4" data-name="Polygon" class="cls-2" d="M391.53,34.14l-7.17,4.13L350.61,57.75V48.31l32.73-18.9,8.19,4.73Z"/><path id="Polygon-5" data-name="Polygon" class="cls-2" d="M384.61,43.59v3.14l-5.45,3.15V46.73l5.45-3.14Z"/><path id="Polygon-6" data-name="Polygon" class="cls-2" d="M376.43,48.31v3.16L371,54.61V51.47l5.46-3.16Z"/><path id="Polygon-7" data-name="Polygon" class="cls-2" d="M368.25,53v3.15l-5.46,3.15V56.18L368.25,53Z"/><path id="Polygon-8" data-name="Polygon" class="cls-2" d="M360.06,57.75v3.16l-5.45,3.15V60.91l5.45-3.16Z"/><path id="Polygon-9" data-name="Polygon" class="cls-2" d="M351.88,62.48v3.15l-5.47,3.15V65.63l5.47-3.15Z"/><path id="Shape-25" data-name="Shape" class="cls-2" d="M353.32,79.81v9.44l40.92-23.58V56.19Z"/><path id="Polygon-10" data-name="Polygon" class="cls-2" d="M353.33,79.81v9.45l-8.18-4.73V75.08l8.18,4.73Z"/><path id="Polygon-11" data-name="Polygon" class="cls-2" d="M394.25,56.18,353.33,79.81l-8.18-4.73,40.91-23.61,5.46,3.14,2.73,1.57Z"/><path id="Polygon-12" data-name="Polygon" class="cls-2" d="M339.69,51.47V64.06l-8.18-4.73V46.73h0l8.17,4.74Z"/><path id="Shape-26" data-name="Shape" class="cls-2" d="M343.48,49.26h0l-3.79,2.19h0v12.6h0l10.89-6.3V45.16Z"/><path id="Shape-27" data-name="Shape" class="cls-2" d="M350.61,45.16l-10.95,6.31-8.14-4.74,2.74-1.58v.78a.94.94,0,0,0,.55.75,2.91,2.91,0,0,0,2.72,0,1,1,0,0,0,.57-.75v-3l4.32-2.49Z"/><line id="Line-5" data-name="Line" class="cls-1" x1="334.26" y1="45.15" x2="334.26" y2="38.49"/><line id="Line-6" data-name="Line" class="cls-1" x1="338.1" y1="42.94" x2="338.1" y2="38.32"/><path id="Shape-28" data-name="Shape" class="cls-2" d="M338.05,38.05a.83.83,0,0,1-.52,1.05,2.93,2.93,0,0,1-2.73,0,.79.79,0,0,1-.52-.52.81.81,0,0,1,0-.63.83.83,0,0,1,.48-.42,3,3,0,0,1,2.73,0,.84.84,0,0,1,.52.52Z"/><line id="Line-7" data-name="Line" class="cls-1" x1="35.91" y1="313.46" x2="174.4" y2="233.5"/><line id="Line-8" data-name="Line" class="cls-1" x1="174.4" y1="233.5" x2="206.68" y2="214.65"/><line id="Line-9" data-name="Line" class="cls-1" x1="206.68" y1="214.65" x2="55.84" y2="127.5"/><line id="Line-10" data-name="Line" class="cls-1" x1="204.14" y1="60.03" x2="609.65" y2="293.28"/><path id="freepik--Clouds--inject-47" class="cls-1" d="M144.73,42a6.36,6.36,0,0,0-2.12-.38c-.69,0-.9-.19-1-.33a5,5,0,0,0-6.08-1.8,3.93,3.93,0,0,0-4.61-2.68c.08-2.13-2.68-4.44-5.12-5s-4.39-.29-5.76,1.26c-1.44-2.81-7.09-3.6-10.12-2.11a7.42,7.42,0,0,0-4,3.34,6.87,6.87,0,0,0-.67,3.18,5.59,5.59,0,0,0-5.16-.71c-1.72.67-1.84,1.94-1.93,3.27a5.86,5.86,0,0,0-3.11,0c-1.08.32-1.7,1.16-1.59,1.84-.85,0-2.89.65-2.68,1.59s2.6.9,3.47.87A13.83,13.83,0,0,0,96.62,44a3.72,3.72,0,0,0,1.32.24c1.49,0,2.11-.64,2.35-1.18.71,1.52,3.29,2.66,5.11,3.13,3.42.88,8.27.35,10.36-2.22a3.63,3.63,0,0,0,1,1.25A5.75,5.75,0,0,0,120,46.57c1.33.14,5.18.33,6.24-1.92.74,1.5,4.11,2.17,6.68,1.8a10.44,10.44,0,0,0,2.84-.84c.57-.31,1.12-.64,1.65-1a1.34,1.34,0,0,1,1.33-.08,8.35,8.35,0,0,0,5.58,0C145.76,43.82,146.07,42.65,144.73,42ZM529.2,40.56a9.08,9.08,0,0,0-2.92-.53c-.94-.08-1.24-.27-1.43-.46a6.94,6.94,0,0,0-8.33-2.4,5.35,5.35,0,0,0-6.29-3.55c.09-2.93-3.64-6.1-7-6.81s-6-.4-7.87,1.72c-2-3.84-9.71-4.93-13.88-2.89C479.06,26.81,477,28,476,30.21a9.18,9.18,0,0,0-.9,4.37,7.8,7.8,0,0,0-7.08-1c-2.33.91-2.53,2.67-2.67,4.48a8.51,8.51,0,0,0-4.28-.1c-1.47.45-2.32,1.61-2.12,2.55-1.18-.07-4,.88-3.64,2.12s3.55,1.24,4.73,1.2a21.65,21.65,0,0,0,3.32-.52,5.41,5.41,0,0,0,1.74.32,3.2,3.2,0,0,0,3.19-1.6c1,2.08,4.49,3.68,7,4.3,4.69,1.2,11.33.48,14.2-3A5.68,5.68,0,0,0,490.84,45a8.15,8.15,0,0,0,4.33,1.74c1.92.18,7.08.43,8.54-2.67,1.05,2,5.63,3,9.13,2.47a14.13,14.13,0,0,0,3.91-1.18c.78-.41,1.53-.86,2.26-1.34a1.89,1.89,0,0,1,1.92-.15,11.37,11.37,0,0,0,7.78-.05C530.61,43,531,41.39,529.2,40.56ZM101.86,16.5A9.36,9.36,0,0,0,98.94,16c-.93-.08-1.24-.26-1.42-.46a7,7,0,0,0-8.35-2.46,5.35,5.35,0,0,0-6.26-3.57c.1-2.92-3.65-6.08-7-6.79s-6-.4-7.88,1.72C66,.57,58.31-.53,54.14,1.51c-2.4,1.18-4.46,2.4-5.45,4.57a9.19,9.19,0,0,0-.94,4.37,7.7,7.7,0,0,0-7.06-1c-2.34.9-2.52,2.66-2.68,4.48a8.21,8.21,0,0,0-4.26-.08c-1.48.43-2.33,1.6-2.13,2.54-1.17,0-4,.87-3.63,2.12s3.53,1.23,4.73,1.19A23.58,23.58,0,0,0,36,19.21a4.91,4.91,0,0,0,1.74.31A3.16,3.16,0,0,0,41,17.89c1,2.1,4.51,3.67,7,4.31,4.68,1.19,11.32.46,14.2-3a5.09,5.09,0,0,0,1.33,1.69,8,8,0,0,0,4.34,1.76c1.92.18,7.09.43,8.55-2.67,1.16,2.09,5.71,3,9.18,2.51a15,15,0,0,0,4-1.17A23.25,23.25,0,0,0,91.78,20a1.87,1.87,0,0,1,1.92-.12,11.6,11.6,0,0,0,7.63,0C103.28,19,103.69,17.34,101.86,16.5Z"/><line class="cls-1" x1="30.15" y1="219.98" x2="24.86" y2="209.55"/><line class="cls-1" x1="40.52" y1="208.47" x2="32.65" y2="221.08"/><path class="cls-2" d="M30.15,208.79v35.06a.63.63,0,0,0,.38.52,2,2,0,0,0,1.76,0,.66.66,0,0,0,.36-.52V208.76"/><path class="cls-2" d="M9.11,176.91A18.17,18.17,0,0,0,.5,192.38h0A18.23,18.23,0,0,0,23.4,210c.49-.13,1-.29,1.46-.46a18.09,18.09,0,0,0,2.38-1.05h0"/><path class="cls-3" d="M9.11,176.91A18.17,18.17,0,0,0,.5,192.38h0A18.23,18.23,0,0,0,23.4,210c.49-.13,1-.29,1.46-.46a18.09,18.09,0,0,0,2.38-1.05h0"/><path class="cls-2" d="M39.22,207.4a12.71,12.71,0,0,0,3.3,2A12.83,12.83,0,0,0,54.67,187"/><path class="cls-3" d="M39.22,207.4a12.71,12.71,0,0,0,3.3,2A12.83,12.83,0,0,0,54.67,187"/><path class="cls-2" d="M54.73,185.25c0,.58,0,1.15-.06,1.72A23.57,23.57,0,0,1,39.22,207.4a23.14,23.14,0,0,1-6.57,1.36q-.74.06-1.5.06l-1,0a22.81,22.81,0,0,1-2.89-.29h0a23.46,23.46,0,0,1-3.33-.82l-.32-.11a23.58,23.58,0,0,1-.6-44.44h0a23.6,23.6,0,0,1,31.74,22.13Z"/><path class="cls-2" d="M54.73,185.25c0,.58,0,1.15-.06,1.72A23.57,23.57,0,0,1,39.22,207.4a23.14,23.14,0,0,1-6.57,1.36q-.74.06-1.5.06l-1,0a22.81,22.81,0,0,1-2.89-.29h0a23.46,23.46,0,0,1-3.33-.82l-.32-.11a23.58,23.58,0,0,1-.6-44.44h0a23.6,23.6,0,0,1,31.74,22.13Z"/><line class="cls-1" x1="338.94" y1="366.29" x2="333.65" y2="355.85"/><line class="cls-1" x1="349.31" y1="354.77" x2="341.44" y2="367.38"/><path class="cls-2" d="M338.94,355.09v35.07a.63.63,0,0,0,.38.51,2,2,0,0,0,1.76,0,.64.64,0,0,0,.36-.51V355.07"/><path class="cls-2" d="M317.9,323.21a18.19,18.19,0,0,0-8.61,15.47h0a18.27,18.27,0,0,0,11.25,16.84,18.36,18.36,0,0,0,11.66.78c.49-.13,1-.29,1.45-.46A17.5,17.5,0,0,0,336,354.8h0"/><path class="cls-3" d="M317.9,323.21a18.19,18.19,0,0,0-8.61,15.47h0a18.27,18.27,0,0,0,11.25,16.84,18.36,18.36,0,0,0,11.66.78c.49-.13,1-.29,1.45-.46A17.5,17.5,0,0,0,336,354.8h0"/><path class="cls-2" d="M348,353.7a12.82,12.82,0,1,0,15.45-20.43"/><path class="cls-3" d="M348,353.7a12.82,12.82,0,1,0,15.45-20.43"/><path class="cls-2" d="M363.52,331.55c0,.59,0,1.16-.06,1.72A23.57,23.57,0,0,1,348,353.7a23.08,23.08,0,0,1-6.57,1.37c-.49,0-1,.05-1.49.05-.34,0-.68,0-1,0a22.81,22.81,0,0,1-2.89-.29h0a23.6,23.6,0,0,1-3.34-.82l-.32-.11a23.57,23.57,0,0,1-.59-44.44h0a23.59,23.59,0,0,1,31.73,22.13Z"/><path class="cls-2" d="M363.52,331.55c0,.59,0,1.16-.06,1.72A23.57,23.57,0,0,1,348,353.7a23.08,23.08,0,0,1-6.57,1.37c-.49,0-1,.05-1.49.05-.34,0-.68,0-1,0a22.81,22.81,0,0,1-2.89-.29h0a23.6,23.6,0,0,1-3.34-.82l-.32-.11a23.57,23.57,0,0,1-.59-44.44h0a23.59,23.59,0,0,1,31.73,22.13Z"/><path id="freepik--percentage-box--inject-47" class="cls-1" d="M176.16,266a2.51,2.51,0,0,1-1.1-1.91v-8.05a.67.67,0,0,1,.33-.7.68.68,0,0,1,.77.06l3.38,1.92a2.45,2.45,0,0,1,1.1,1.92v8a.66.66,0,0,1-.32.71.68.68,0,0,1-.78-.06L176.16,266Z"/><path id="Shape-29" data-name="Shape" class="cls-2" d="M180.53,272.75a.22.22,0,0,1-.13,0l-2.35-1.34a.92.92,0,0,1-.42-.74v-9a.28.28,0,0,1,.29-.24h0a.27.27,0,0,1,.27.26v8.88a.27.27,0,0,0,.14.24l2.35,1.36a.32.32,0,0,1,.15.25h0a.3.3,0,0,1-.1.2.29.29,0,0,1-.2.07Z"/><line class="cls-1" x1="252.13" y1="312.1" x2="252.03" y2="312"/><line class="cls-1" x1="243" y1="307.37" x2="243" y2="307.36"/><line class="cls-1" x1="252.13" y1="312.1" x2="252.03" y2="312"/><line class="cls-1" x1="243" y1="307.37" x2="243" y2="307.36"/><path id="Shape-30" data-name="Shape" class="cls-2" d="M244.69,320.75h.08a2,2,0,0,0,.29-.4h0c.05,0-.05.09.05-.06s.16-.29.26-.44a7.7,7.7,0,0,0,1-3.41,3.55,3.55,0,0,0-.13-1h0A1.86,1.86,0,0,0,245,314h0"/><path class="cls-2" d="M240.86,309.07a17.29,17.29,0,0,1,1.6-1.35,3.42,3.42,0,0,1,.51-.33l0,0"/><path class="cls-2" d="M249.2,323l-1,1.6a20.22,20.22,0,0,1-2.86,3.21"/><path id="Shape-31" data-name="Shape" class="cls-2" d="M230.48,324.19,225,327.38a1.47,1.47,0,0,1-.74.18,1.51,1.51,0,0,1-.62-.2,1.12,1.12,0,0,1-.45-.44l-.1-.19h0a2.17,2.17,0,0,1-.07-.24.92.92,0,0,1,0-.33l.19-2.88,1.05-15.37h0l39.92-23h.05v19.92h0l-11.87,6.84h0"/><line class="cls-1" x1="233.68" y1="294.01" x2="233.67" y2="294.02"/><path id="Polygon-13" data-name="Polygon" class="cls-2" d="M260.61,276.39V249.3l-11.16,6.46-5.57,4.63v25.66l16.73-9.66Z"/><path id="Shape-32" data-name="Shape" class="cls-2" d="M254.36,302.59a1.23,1.23,0,0,1,.45-.88l6.33-3.65c.29-.17.53,0,.53.29V300a1.16,1.16,0,0,1-.53.9l-6.24,3.64c-.29.16-.54,0-.54-.31v-1.59Z"/><path id="Shape-33" data-name="Shape" class="cls-2" d="M223.37,327.35a.82.82,0,0,1-.25-.2.64.64,0,0,1-.22-.24.42.42,0,0,1-.09-.19h0a.61.61,0,0,1-.07-.24.91.91,0,0,1,0-.33l.21-2.88L224,307.92l.61-8.68h0l-.47-.14c-.86-.32-1.71-.62-2.59-1a.63.63,0,0,1-.29-.1h-.11c-1-.35-2-.72-2.94-1.1a2.17,2.17,0,0,1-.35-.15l-.21-.08-1-.4c-.43-.17-.94-.36-1.4-.56a2.39,2.39,0,0,1-.43-.2l-2.82-1.2-2.48-1.16c-1-.43-2-.94-2.87-1.38s-1.73-.88-2.58-1.32c-.44-.23-.9-.47-1.33-.71l-.5-.28-1.23-.65-.43-.26-.19-.11a6,6,0,0,1-.79-.43l-.46-.24-.09-.07-.8-.48h0q-3.69-2.2-7.17-4.59l-1.15-.8-1-.72-.95-.72c-.74-.54-1.55-1.18-2.17-1.68s-1.24-1-1.84-1.51c-1.21-1-2.38-2-3.54-3.06l-1.06-1h0l-1.82,26.47"/><path id="Shape-34" data-name="Shape" class="cls-2" d="M188,233.55l4,2.29,12.95,7.52,28.38,16.39-8.45,39.56a147.72,147.72,0,0,1-25.51-11.44,105,105,0,0,1-19.84-14.72Z"/><path id="Shape-35" data-name="Shape" class="cls-2" d="M220.37,252.31l-15.48-9-11.12-6.41L188,233.59l-8.1,38.15-.15.66-.17.81h0s.22.23.57.55l.2.19a3.3,3.3,0,0,1,.3.27c.38.34.77.7,1.15,1s.57.53.86.77c.48.42,1,.83,1.45,1.22a.2.2,0,0,0,.08.08c.58.49,1.18,1,1.77,1.44l.51.4a.2.2,0,0,0,.09.06c.42.33.85.67,1.27,1l.29.23c.09.08.19.14.28.21s.46.34.69.5a11.17,11.17,0,0,0,1,.73c.13.11.26.2.38.29s.45.31.66.47a.1.1,0,0,1,0,0c.2.13.4.28.6.39.44.32.86.61,1.3.9.89.59,1.77,1.17,2.66,1.73s1.67,1,2.52,1.53l.37.22c.17.1.34.21.53.3l0,0,.06,0a.81.81,0,0,0,.21.1l.45.27.27.16c.74.42,1.48.83,2.24,1.23,1,.55,2,1.08,3,1.59q2.93,1.5,5.91,2.85l1.24.55c.77.33,1.54.68,2.32,1l1.84.75a4,4,0,0,0,.52.21c1.33.53,2.65,1,4,1.53.91.33,1.79.65,2.69.95l.32.12.11,0,.32.1.17.07v0l1.48-6.94,6.94-32.61Z"/><path id="Shape-36" data-name="Shape" class="cls-2" d="M230.7,324.61c-1.94,1.44-6.72,4.69-10.71,4.32a67.63,67.63,0,0,1-23.21-8.19c-13.4-8-19.53-16.48-19.53-16.48-1.06-1.79-.62-6.28,0-5.23,0,0,.16.23.48.64a52.85,52.85,0,0,0,4.26,4.59h0l.08.08a78.62,78.62,0,0,0,14.69,11.16,66.87,66.87,0,0,0,12,5.43,64.94,64.94,0,0,0,11.16,2.74,9,9,0,0,0,3.23-.35h0a22.48,22.48,0,0,0,6.55-3.32"/><path id="Shape-37" data-name="Shape" class="cls-2" d="M216.7,306.85a4.35,4.35,0,0,1,3.08,4.56,3.42,3.42,0,0,1-.09.63h0a3.08,3.08,0,0,1-3.76,2.24,4.24,4.24,0,0,1-3.13-4.52,2.7,2.7,0,0,1,.06-.41h0a3.2,3.2,0,0,1,3.84-2.5Z"/><path id="Shape-38" data-name="Shape" class="cls-2" d="M182.69,287.41c-1.17-1.17-2.25-.57-2.39,1.3a8.09,8.09,0,0,0,1.59,5.58c1.06,1.16,2.15.58,2.39-1.34a7.43,7.43,0,0,0-1.59-5.54Z"/><path id="Shape-39" data-name="Shape" class="cls-2" d="M209.56,309.78a1.59,1.59,0,0,1,1.09,1.29v.8a.77.77,0,0,1-1.06.79A49.93,49.93,0,0,1,199,307.93a2.07,2.07,0,0,1-.95-1.59v-.8a.62.62,0,0,1,.12-.49.59.59,0,0,1,.8-.05,50.9,50.9,0,0,0,10.55,4.78Z"/><path id="Shape-40" data-name="Shape" class="cls-2" d="M186.56,297.22c0-.62.36-.85.8-.28a92,92,0,0,0,8,5.93,2.35,2.35,0,0,1,1,1.59v.8c0,.61-.47.85-1,.52a96.26,96.26,0,0,1-8-5.93,2.74,2.74,0,0,1-.8-1.83v-.8Z"/><path id="Polygon-14" data-name="Polygon" class="cls-2" d="M188,233.59l15.59-11.45,15.33-8.85,45.34,26.16-15.37,8.88-15.57,11.42L188,233.59Z"/><path id="Polygon-15" data-name="Polygon" class="cls-4" d="M188,233.59l15.59-11.45,15.33-8.85,45.34,26.16-15.37,8.88-15.57,11.42L188,233.59Z"/><path id="freepik--percentage-box--inject-47-2" class="cls-1" d="M231.86,297.7a2.39,2.39,0,0,1-1.11-1.9v-8a.67.67,0,0,1,.14-.53.71.71,0,0,1,1-.11l3.37,1.92a2.4,2.4,0,0,1,1.11,1.92v8a.69.69,0,0,1-1.11.65l-3.37-2Z"/><path id="Shape-41" data-name="Shape" class="cls-2" d="M232.84,302.79a.7.7,0,0,1-.45-.06l-3.69-2.12h0a.28.28,0,0,1-.08-.38.28.28,0,0,1,.36-.12l3.71,2.15a.26.26,0,0,0,.27,0,.23.23,0,0,0,.14-.23v-8.24a.3.3,0,0,1,.28-.28.28.28,0,0,1,.29.28V302a.89.89,0,0,1-.41.74.77.77,0,0,1-.42.1Z"/><path id="Shape-42" data-name="Shape" class="cls-2" d="M237.57,329.57h0l-5-2.87a4.63,4.63,0,0,1-1.91-2.08,1.17,1.17,0,0,1-.17-.31,10,10,0,0,1-.75-4,.89.89,0,0,1,0-.23c.07-6.05,3.92-13.07,8.71-15.82a5.75,5.75,0,0,1,3.37-1.1,5.89,5.89,0,0,1,2.52.58l4.78,2.81h0"/><path id="Shape-43" data-name="Shape" class="cls-2" d="M252.17,313.07c0-6.07-3.88-8.67-8.86-6a14.56,14.56,0,0,0-3.19,2.72h0a21.09,21.09,0,0,0-5.39,13.28c0,6,3.94,8.72,8.72,5.95a11.68,11.68,0,0,0,1.91-1.37h0a21,21,0,0,0,6.81-14.61Z"/><path id="Shape-44" data-name="Shape" class="cls-2" d="M243.47,310.83a13.21,13.21,0,0,0-5.58,10.57c0,4.1,2.51,5.88,5.58,4.1A13.16,13.16,0,0,0,249.05,315c0-4.12-2.51-5.89-5.58-4.12Z"/><path id="Shape-45" data-name="Shape" class="cls-2" d="M243.47,314.31a6.86,6.86,0,0,0-2.87,5.47c0,2.14,1.28,3,2.87,2.14a6.9,6.9,0,0,0,2.88-5.47c0-2.14-1.28-3.1-2.88-2.14Z"/><path id="Shape-46" data-name="Shape" class="cls-2" d="M338.29,262.07h0l.29-.15h0l11.83-6.87a9.92,9.92,0,0,0,2-1.53,3.19,3.19,0,0,0,.31-.33,1.65,1.65,0,0,0,.33-.37,6.76,6.76,0,0,0,.55-.74h0a7.15,7.15,0,0,0,.63-1.07,9.36,9.36,0,0,0,.46-1.14A5.31,5.31,0,0,0,355,249a3.24,3.24,0,0,0,.12-.62.2.2,0,0,0,0-.11v-.12h0a2.17,2.17,0,0,0,.09-.8v-54.8a9.65,9.65,0,0,0-4.78-8.33L314.7,163.62a9.63,9.63,0,0,0-9.63,0l-86.14,49.73,45.3,26.13h0v65.35l52.39-30.28"/><path id="Shape-47" data-name="Shape" class="cls-4" d="M338.29,262.07h0l.29-.15h0l11.83-6.87a9.92,9.92,0,0,0,2-1.53,3.19,3.19,0,0,0,.31-.33,1.65,1.65,0,0,0,.33-.37,6.76,6.76,0,0,0,.55-.74h0a7.15,7.15,0,0,0,.63-1.07,9.36,9.36,0,0,0,.46-1.14A5.31,5.31,0,0,0,355,249a3.24,3.24,0,0,0,.12-.62.2.2,0,0,0,0-.11v-.12h0a2.17,2.17,0,0,0,.09-.8v-54.8a9.65,9.65,0,0,0-4.78-8.33L314.7,163.62a9.63,9.63,0,0,0-9.63,0l-86.14,49.73,45.3,26.13h0v65.35l52.39-30.28"/><line class="cls-1" x1="329.12" y1="257.61" x2="329.11" y2="257.6"/><line class="cls-1" x1="329.12" y1="257.61" x2="329.11" y2="257.6"/><line class="cls-1" x1="328.73" y1="272.52" x2="328.73" y2="272.49"/><path class="cls-2" d="M330.76,271.1h.05a5.6,5.6,0,0,0,.36-.49l0-.05"/><path id="Shape-48" data-name="Shape" class="cls-2" d="M331.31,278a20.92,20.92,0,0,0,6.81-14.65v-1.21h0v-.3a10,10,0,0,0-.28-1.43,2.06,2.06,0,0,0-.14-.44,2.35,2.35,0,0,0-.17-.44c0-.14-.1-.27-.16-.41s-.12-.22-.17-.33a5.42,5.42,0,0,0-.66-.91,2.35,2.35,0,0,0-.3-.33,4.19,4.19,0,0,0-.6-.5c-.12-.07-.27-.17-.42-.24l-.49-.21a2.85,2.85,0,0,0-.5-.14,2.45,2.45,0,0,0-.53-.09,3.09,3.09,0,0,0-1,0,.77.77,0,0,0-.37,0h-.15a.86.86,0,0,0-.36.07,1.91,1.91,0,0,0-.47.12,1.6,1.6,0,0,0-.48.16,1.42,1.42,0,0,0-.48.19,2.5,2.5,0,0,0-.48.21h0a2.16,2.16,0,0,0-.48.24l-.34.22a10.13,10.13,0,0,0-1.39,1,7.66,7.66,0,0,0-.8.71,4.55,4.55,0,0,0-.6.64"/><line class="cls-1" x1="330.47" y1="253.92" x2="330.43" y2="253.92"/><path id="Shape-49" data-name="Shape" class="cls-2" d="M338.55,261.82h0L350.39,255a10.09,10.09,0,0,0,2-1.52c.1-.11.22-.22.32-.34s.22-.24.32-.36.38-.49.55-.74h0c.23-.35.44-.71.64-1.08a11.25,11.25,0,0,0,.45-1.14c.1-.28.21-.64.26-.85a2.2,2.2,0,0,0,.12-.62.24.24,0,0,0,0-.12v-.11h0a2.47,2.47,0,0,0,.09-.76V192.67a3.33,3.33,0,0,0-.45-1.66h0a3.29,3.29,0,0,0-4.49-1.2l-86,49.62h0v65.35h0l52.34-30.23"/><path id="Shape-50" data-name="Shape" class="cls-2" d="M338.51,262h0l11.88-6.87a9.64,9.64,0,0,0,4.78-8.3V232.45h0l-90.92,52.47h0v19.85h0l52.37-30.22"/><path id="Shape-51" data-name="Shape" class="cls-5" d="M338.51,262h0l11.88-6.87a9.64,9.64,0,0,0,4.78-8.3V232.45h0l-90.92,52.47h0v19.85h0l52.37-30.22"/><path id="Polygon-16" data-name="Polygon" class="cls-2" d="M268.49,244.76v27.06l35.28-20.37V224.39l-35.28,20.37Z"/><polyline id="Polygon-17" data-name="Polygon" class="cls-1" points="287.05 234.03 287.05 240.89 287.05 243.03 287.05 261.11"/><path id="Polygon-18" data-name="Polygon" class="cls-2" d="M311.59,219.88v27.06l35.28-20.37V199.51l-35.28,20.37Z"/><polyline id="Polygon-19" data-name="Polygon" class="cls-1" points="330.15 209.17 330.15 216.01 330.15 218.15 330.15 236.24"/><path class="cls-2" d="M335.25,256.84l0,0v0L330.5,254l-.07,0a2.45,2.45,0,0,0-.45-.17,5.54,5.54,0,0,0-2-.36,5.83,5.83,0,0,0-3.4,1.09c-4.78,2.78-8.72,9.94-8.72,16.07a9.89,9.89,0,0,0,.75,4v.06a5.09,5.09,0,0,0,2,2.39l4.64,2.67"/><path class="cls-2" d="M335.27,256.8a4.86,4.86,0,0,0-3-.42l-.38.07-.14,0-.36.09,0,0-.36.11-.19.07-.23.09-.31.13-.19.09-.21.1-.39.2-.1.06a2.2,2.2,0,0,0-.25.17.21.21,0,0,0-.1.06c-.21.14-.41.28-.6.43s-.46.36-.68.55a3.57,3.57,0,0,0-.37.31.33.33,0,0,0-.11.1,5.38,5.38,0,0,0-.49.47,5.62,5.62,0,0,0-.41.44l0,0a1.29,1.29,0,0,0-.16.17,21.07,21.07,0,0,0-5.41,13.23c0,3,1,5.17,2.54,6.26s3.81,1.12,6.23-.29a13,13,0,0,0,1.92-1.38,21,21,0,0,0,6.8-14.65C338.26,260,337.12,257.74,335.27,256.8Zm-4.49,14.3a7.21,7.21,0,0,1-1.19,1.08,2.61,2.61,0,0,1-.86.34c-1.17.22-2-.74-2-2.49a6.87,6.87,0,0,1,2.87-5.47,1.68,1.68,0,0,1,2.72,1,3.7,3.7,0,0,1,.16,1.16,6.8,6.8,0,0,1-1.27,3.86l0,.05A6,6,0,0,1,330.78,271.1Z"/><path class="cls-2" d="M329.59,261A13.21,13.21,0,0,0,324,271.57c0,4,2.51,5.88,5.58,4.12a13.19,13.19,0,0,0,5.58-10.56C335.17,261.11,332.66,259.26,329.59,261Zm1.61,9.53,0,.05a6,6,0,0,1-.39.49,7.21,7.21,0,0,1-1.19,1.08,2.61,2.61,0,0,1-.86.34c-1.17.22-2-.74-2-2.49a6.87,6.87,0,0,1,2.87-5.47,1.68,1.68,0,0,1,2.72,1,3.7,3.7,0,0,1,.16,1.16A6.8,6.8,0,0,1,331.2,270.56Z"/><line class="cls-1" x1="461.03" y1="391.06" x2="367.19" y2="337.24"/><polyline class="cls-2" points="309.49 341.32 211.41 401.49 211.4 401.49"/></g></g></svg>