<?xml version="1.0" encoding="utf-8"?>
<!-- Generator: Adobe Illustrator 24.3.0, SVG Export Plug-In . SVG Version: 6.00 Build 0)  -->
<svg version="1.1" id="Layer_1" xmlns="http://www.w3.org/2000/svg" xmlns:xlink="http://www.w3.org/1999/xlink" x="0px" y="0px"
	 viewBox="0 0 500 500" style="enable-background:new 0 0 500 500;" xml:space="preserve">
<style type="text/css">
	.st0{fill:none;stroke:#000000;stroke-linecap:round;stroke-linejoin:round;}
</style>
<path class="st0" d="M171.6,227.2c-10.9,10-17.3,26.6-17.3,48.6c0,53.2,37.6,118.1,84,144.9c20.9,12.1,40.1,14.4,54.8,8.3"/>
<path class="st0" d="M286.8,164.1L286.8,164.1 M341.4,94.2c9.9,1.2,19.6,4,28.6,8.3 M377.1,106c1.1,0.6,2.2,1.2,3.4,1.9
	c56.7,32.8,102.7,112.1,102.7,177.1c0,34.9-13.2,58.5-34.2,68"/>
<path class="st0" d="M286.8,164.1L286.8,164.1 M275.6,129.7c-2.9,5.6-5.2,11.5-6.6,17.6 M279.2,239.8L279.2,239.8 M314.7,276.3
	l0.2,0.4l0.4,0.6c0.5,0.8,1,1.5,1.5,2.3c0.4,0.6,0.8,1.1,1.1,1.7s0.8,1.1,1.2,1.7l0.1,0.2l0.4,0.5l0.2,0.3c0.5,0.8,1.1,1.5,1.7,2.3
	s1.1,1.4,1.6,2.1c0,0,0.1,0.1,0.1,0.1c0.5,0.7,1,1.4,1.6,2c0.3,0.4,0.7,0.9,1,1.3l0.9,1.1l1.8,2.2l1.5,1.8c0.1,0.1,0.1,0.1,0.2,0.2
	l0.2,0.2c0.6,0.7,1.2,1.3,1.8,2c0.3,0.4,0.6,0.7,0.9,1l0.9,1c0.3,0.3,0.6,0.6,0.9,1s0.6,0.7,1,1c0.1,0.1,0.3,0.3,0.4,0.4l0.7,0.7
	l0.8,0.8l0.8,0.8l1.1,1.1l0.8,0.8l0.8,0.8c0.3,0.3,0.7,0.7,1,1s0.6,0.6,1,0.9s0.8,0.8,1.2,1.1s0.6,0.5,0.9,0.8l1,0.9
	c0.2,0.1,0.3,0.3,0.5,0.4s0.4,0.3,0.5,0.5c0.1,0.1,0.1,0.1,0.2,0.2l0.1,0.1l0,0c0.1,0.1,0.2,0.2,0.4,0.3l0.6,0.5l0.2,0.2l0.7,0.6
	l0.3,0.3c0.5,0.5,1.1,0.9,1.6,1.3l0.6,0.5c0.5,0.4,0.9,0.8,1.4,1.1s0.8,0.6,1.1,0.9c0.1,0.1,0.3,0.2,0.5,0.4l0.3,0.2l0.2,0.1
	l0.1,0.1c0.5,0.4,1,0.8,1.5,1.1l0.9,0.6l0.4,0.3l0.6,0.4l0.1,0l1.3,0.9l1.3,0.9l0.8,0.5l0.6,0.4c0.2,0.1,0.4,0.2,0.5,0.3l0.2,0.1
	l0.4,0.3l0.5,0.3c1.3,0.8,2.5,1.6,3.8,2.3c27.2,15.7,51.4,14.8,66.7,0.7c10.9-10,17.3-26.5,17.3-48.6c0-48.8-31.7-107.5-72.8-137.5
	l-5.9-4.2 M288.6,157.4c0-0.1,0-0.1,0.1-0.2c0.1-0.4,0.2-0.7,0.4-1s0.1-0.4,0.2-0.6c0.1-0.2,0.1-0.4,0.2-0.6l0,0
	c0-0.1,0.1-0.2,0.1-0.3c0.1-0.3,0.2-0.6,0.3-0.9v-0.1c0-0.1,0.1-0.3,0.2-0.4c0,0,0-0.1,0-0.1v-0.1v-0.1V153c0-0.1,0.1-0.2,0.1-0.3
	v-0.1c0.1-0.3,0.3-0.6,0.4-0.9v-0.1c0,0,0-0.1,0-0.1c0.1-0.2,0.2-0.4,0.3-0.6s0.3-0.6,0.5-0.9c0.1-0.1,0.1-0.3,0.2-0.4l0.1-0.1
	c0.1-0.2,0.2-0.3,0.3-0.5c0-0.1,0.1-0.1,0.1-0.2l0.1-0.2c0.1-0.2,0.2-0.4,0.4-0.7s0.2-0.5,0.4-0.7s0.4-0.6,0.5-0.9s0.4-0.6,0.6-1
	s0.4-0.6,0.5-0.8s0.4-0.5,0.5-0.8c0.4-0.5,0.7-1,1.1-1.5l0,0l0,0V142 M327.7,317.8c0,0,0.1,0.1,0.1,0.1
	c12.5,13.4,26.3,24.8,40.7,33.2c32.6,18.8,61.7,18.2,80.5,1.8c13.9-12.1,22.2-32.7,22.2-60.4c0-60.7-40-133.8-91.4-169.9l-3.9-2.6"
	/>
<path class="st0" d="M326.8,268.8c14.6,22.3,33.3,41.5,53.7,53.3c20.9,12.1,40,14.4,54.8,8.3"/>
<line class="st0" x1="286.8" y1="164.1" x2="286.8" y2="164.1"/>
<path class="st0" d="M302.4,145.1c-1,2.4-1.9,4.9-2.7,7.4"/>
<path class="st0" d="M366.9,212.3c2.3,0.2,4.6,0.8,6.7,2c8,4.6,14.5,15.9,14.5,25.1c-0.1,6.7-5.3,12.2-12,12.6l0,0"/>
<polyline class="st0" points="266.9,56.9 271.3,53.7 341.4,94.2 364.8,107.7 "/>
<path class="st0" d="M370.5,111L370.5,111"/>
<polyline class="st0" points="361.2,111.3 266.9,56.9 266.9,124.7 275.6,129.7 282.5,133.7 296.7,141.9 302.4,145.1 308.2,148.5 "/>
<path class="st0" d="M358,238.7c2.5,4.6,6.1,8.5,10.6,11.3c2.2,1.4,4.9,2.1,7.5,1.9l0,0c4.2-0.5,7-4.2,7-10.2
	c0-9.2-6.5-20.4-14.5-25.1c-0.6-0.4-1.3-0.7-1.9-1"/>
<path class="st0" d="M366,223.2c0.9,0.2,1.8,0.5,2.6,1c4.4,2.6,8,8.7,8,13.8s-3.6,7.1-8,4.6c-3.2-2-5.6-5.1-6.9-8.6"/>
<path class="st0" d="M363.7,80.3L363.7,80.3c3.2,1.8,1.6,10-2.1,12.1c-2.2,1.2-4.6,1.8-7.1,1.8c-1.9,0.1-3.7-0.4-5.4-1.2l-79.3-45.8
	c-3.2-1.8-4.8-9.3-1.1-11.4"/>
<path class="st0" d="M349.1,87.2l-79.3-45.8c-3.2-1.8-2.8-5.1,0.9-7.2l0,0c3.7-2.1,9.4-2.4,12.6-0.5l79.3,45.8
	c3.2,1.8,2.8,5.1-0.9,7.2l0,0C358,88.8,352.3,89.1,349.1,87.2z"/>
<line class="st0" x1="70" y1="295" x2="59" y2="301.3"/>
<polyline class="st0" points="16.3,290.5 16.3,295.2 21.7,298.3 21.7,298.3 "/>
<polyline class="st0" points="48.5,307.4 42.9,310.6 42.8,310.5 42.8,310.5 "/>
<line class="st0" x1="40.5" y1="281.2" x2="40.5" y2="281.3"/>
<path class="st0" d="M43.1,280.3L43.1,280.3l-0.2,0.1c0,0,0,0,0,0"/>
<line class="st0" x1="124" y1="263.8" x2="84.8" y2="286.4"/>
<line class="st0" x1="166.5" y1="232.9" x2="166.4" y2="232.9"/>
<path class="st0" d="M160.7,242.6L160.7,242.6"/>
<line class="st0" x1="67.4" y1="291.8" x2="54.6" y2="299.1"/>
<polyline class="st0" points="40.7,304.5 42.9,305.9 48.7,302.5 "/>
<polyline class="st0" points="21,287.8 21,287.8 16.3,290.5 21.1,293.2 "/>
<polyline class="st0" points="61.3,264.5 61.3,264.5 108.8,237.1 "/>
<path class="st0" d="M171.1,227.5L171.1,227.5l0.2,0.1"/>
<path class="st0" d="M153.4,242.1L153.4,242.1"/>
<line class="st0" x1="124.5" y1="258.8" x2="82.3" y2="283.1"/>
<path class="st0" d="M126.8,245.6c-5.3-2.2-12.1-5.6-18-8.5c-4.6-2.3-8.6-4.4-10.7-5.6c-6.5-3.6-26.4-6.9-29.8-11.4
	s-1.9-12.7-0.6-15c0.4-0.8,3.3-0.8,6.9-0.6"/>
<path class="st0" d="M124.7,159c-24.9,15.4-42.3,26.4-44.9,27.7c-0.3,0.1-10.8,5.7-5.2,17.8c0.2,0.5,0.5,1,0.8,1.5
	c0,0,23.2,2.2,49.4,15.6"/>
<path class="st0" d="M285.2,158.9c-2.3-1.6-4.6-3.2-6.8-4.8c-1.1-0.8-2.2-1.6-3.3-2.4c-2-1.5-4.1-3-6.1-4.4
	c-32-21.4-68.2-25.7-68.2-25.7c-6.2-0.2-10.4,0.2-20.2,3.6c-2,1.2-4.1,2.3-6.3,3.7c-6.8,4.1-13.4,8.1-19.8,11.9"/>
<path class="st0" d="M136.5,151.7l-4.1,2.5"/>
<path class="st0" d="M159.3,245.9c24.5,21.1,41.9,40.7,66.2,35.6l0,0"/>
<line class="st0" x1="153.9" y1="241.3" x2="153.9" y2="241.3"/>
<path class="st0" d="M237.6,277.3L237.6,277.3l0.2-0.1"/>
<path class="st0" d="M241.9,175.5c8.8-3.2,16.8-6.2,24.3-9.1c4.1-1.6,8-3.1,11.8-4.6c2.5-1,5-2,7.3-3c0,0,0,0,0,0l3.4-1.4h0
	c0.1-0.1,0.2-0.1,0.4-0.2c3.7-1.6,7.3-3.1,10.7-4.7h0c2.9-1.3,5.8-2.7,8.5-4c0,0,0,0,0,0c8.2-4,16.1-8.5,23.7-13.5
	c3.9-2.6,7.7-5.3,11.4-8.2c3.3-2.5,6.5-5.2,9.8-8.1c2.6-2.3,5.3-4.7,7.9-7.3l0.2-0.2l0,0c1.2-1.2,2.4-2.3,3.6-3.6l0,0
	c1.7-1.7,3.4-3.4,5.1-5.2h0c0,0,0,0,0,0c0.7-0.7,1.4-1.4,2-2.1c1.7,0.2,5.3,2.1,5.2,3.8c0,0,0,0,0,0.1v0"/>
<line class="st0" x1="237.6" y1="221.3" x2="237.6" y2="221.3"/>
<line class="st0" x1="239" y1="206.9" x2="239" y2="206.9"/>
<path class="st0" d="M235.6,241.5v0.3c-0.3,2.7-0.5,5.3-0.8,8c-0.5,5.3-1,10.6-1.6,15.8c-0.5,4.7-0.9,9.4-1.3,14
	c-0.1,1.4-0.3,2.8-0.4,4.2l-0.1,1c-0.4,5-0.9,10-1.3,14.9"/>
<path class="st0" d="M240.8,245.3L240.8,245.3c0,0.1,0,0.2,0,0.4c-1,10.6-2.1,21.2-3.1,31.6c0,0.2,0,0.4-0.1,0.5
	c-0.2,1.8-0.3,3.5-0.5,5.3c-0.5,5.1-0.9,10.1-1.3,15.1c-0.1,1.8-0.3,3.5-0.4,5.3c17-4.6,32.1-8.6,45.7-13.1"/>
<path class="st0" d="M308.8,279.3c1.7-0.8,3.3-1.7,5-2.5l0.9-0.5c4.2-2.3,8.2-4.8,12.1-7.5c11.9-8.4,22.4-18.5,31.2-30.1
	c1.2-1.6,2.4-3.2,3.6-4.8c1.3-1.8,2.6-3.7,3.9-5.6c0.1-1.7,0.3-3.4,0.4-5.1c0.2-2.5,0.4-5,0.6-7.5c0.1-1.2,0.2-2.3,0.3-3.4
	c0.8-9.3,1.8-18.8,2.7-28.3c1.9-19.2,3.9-38.5,5.6-57.5l0.1-1.3c0.3-3.6,0.7-7.2,1-10.8c0.3-2.8,0.5-5.6,0.7-8.4
	c0-0.7,0.1-1.3,0.2-1.9c-0.4,0.4-0.9,0.9-1.3,1.3c-1.8,1.9-3.7,3.8-5.5,5.6l0,0c-18.3,18.3-34.5,30-56.4,40.9c-5,2.5-10.3,5-16,7.4
	c-2.4,1-4.9,2.1-7.5,3.2c-1.3,0.5-2.6,1.1-3.9,1.6l0,0c-2.9,1.2-5.9,2.3-9,3.6c-3.8,1.5-7.8,3-11.9,4.6c-5.9,2.2-12.2,4.6-18.9,7"/>
<line class="st0" x1="235.4" y1="303.5" x2="230.2" y2="299.8"/>
<polyline class="st0" points="244.1,210.1 247.1,179.2 243,176.5 241.9,175.5 238.9,206.9 "/>
<polyline class="st0" points="240.8,245.3 240.8,245.7 237.8,277.2 "/>
<path class="st0" d="M212.1,320.7L212.1,320.7c0-9.2,11.3-12.4,19.3-7.8S246,328.8,246,338c-0.1,6.7-5.3,12.2-11.9,12.6"/>
<path class="st0" d="M48.3,305.3c0,5.7,4,12.6,8.9,15.4s8.9,0.6,8.9-5.1s-4-12.6-8.9-15.4S48.3,299.6,48.3,305.3z"/>
<path class="st0" d="M28.4,268.4c0.4-0.4,0.7-0.8,1.1-1.1c0.9-0.8,6.7-3.9,7.8-4.5c6.2-3.5,14.6-3.1,23.9,1.8l0,0
	c0.5,0.3,1.1,0.6,1.6,0.9c2.4,1.4,4.6,2.9,6.7,4.6c4.8,3.8,9,8.2,12.7,13.1c0.8,1.1,1.6,2.2,2.4,3.3c8.8,12.7,14.5,28.1,14.5,41.7
	c0,9.4-2.7,16.5-7.2,20.8c-3.1,2.6-6.5,4.7-10.2,6.4h-0.1l0,0"/>
<path class="st0" d="M79.1,289.7c-0.8-1.1-1.6-2.2-2.4-3.3c-3.9-5.2-8.5-9.8-13.6-13.8c-1.8-1.4-3.8-2.7-5.8-3.8
	c-0.6-0.3-1.1-0.6-1.7-0.9c-8-4.2-15.3-5.1-21.2-3c-2.2,0.8-4.3,2-6,3.6c-4.4,4.1-7.2,10.7-7.4,19.4l0,0c0,0.3,0,0.6,0,0.9
	s0,0.5,0,0.7c0,1.2,0,2.5,0.1,3.8c0.1,1.7,0.3,3.4,0.6,5.1l0,0c3.4,21,18.1,43.7,35.6,53.9c9.4,5.4,17.9,6.3,24.4,3.3l0,0h0.1
	c1.4-0.7,2.8-1.5,3.9-2.6c4.9-4.2,7.9-11.6,7.9-21.4C93.6,317.8,87.9,302.4,79.1,289.7z M76.9,337.5c-4.3,4.6-11.5,5.1-19.7,0.4
	c-0.4-0.2-0.8-0.5-1.2-0.8s-0.8-0.5-1.1-0.8s-0.7-0.5-1.1-0.8l-0.3-0.2c-0.5-0.4-1.1-0.8-1.6-1.3l-1-0.8c-0.3-0.2-0.5-0.5-0.8-0.7
	l-0.7-0.6c-0.2-0.2-0.4-0.4-0.6-0.5c-0.7-0.7-1.3-1.4-2-2.1c-0.4-0.4-0.8-0.9-1.1-1.3c-0.3-0.4-0.6-0.8-0.9-1.1
	c-0.9-1.2-1.8-2.4-2.7-3.7l-0.4-0.5c-0.2-0.3-0.4-0.6-0.5-0.9c-0.1-0.1-0.1-0.2-0.2-0.3s-0.2-0.4-0.4-0.6c-0.3-0.5-0.5-0.9-0.8-1.4
	s-0.4-0.7-0.6-1l0,0c-0.2-0.4-0.4-0.8-0.6-1.2s-0.4-0.8-0.6-1.2s-0.4-0.8-0.6-1.2l-0.2-0.3c-0.1-0.1-0.1-0.2-0.2-0.3
	c-0.3-0.6-0.5-1.2-0.8-1.9c-0.1-0.4-0.3-0.7-0.4-1s-0.3-0.7-0.4-1.1s-0.2-0.6-0.3-0.9c-0.2-0.7-0.5-1.4-0.6-2.1
	c-0.1-0.5-0.3-1-0.4-1.5c-0.1-0.3-0.1-0.6-0.2-0.9s-0.2-0.8-0.3-1.2s-0.1-0.6-0.2-0.9c0-0.1,0-0.2-0.1-0.4c-0.1-0.4-0.1-0.8-0.2-1.2
	l0,0c0-0.1,0-0.2,0-0.4s-0.1-0.5-0.1-0.8c0,0,0-0.1,0-0.1c0-0.2,0-0.4,0-0.6c-0.1-0.9-0.1-1.8-0.1-2.7c0-0.4,0-0.8,0-1.2
	s0-1,0.1-1.5c0-0.3,0-0.6,0.1-0.9l0,0c0,0,0,0,0-0.1l0,0c0,0,0-0.1,0-0.1s0-0.4,0.1-0.5s0.1-0.4,0.1-0.6c0.1-0.4,0.2-0.8,0.3-1.2
	c0-0.1,0-0.2,0.1-0.3c0.1-0.3,0.1-0.5,0.2-0.8c0-0.1,0.1-0.2,0.1-0.3l0,0c0.2-0.5,0.3-1,0.5-1.5s0.3-0.7,0.5-1
	c0.2-0.4,0.4-0.8,0.7-1.2c0.1-0.2,0.2-0.3,0.3-0.4v-0.1c0.2-0.3,0.4-0.6,0.7-0.9c0.1-0.2,0.2-0.3,0.4-0.4l0.2-0.2
	c0.1-0.1,0.1-0.1,0.2-0.2L38,283c0.1-0.1,0.2-0.2,0.3-0.3c0.3-0.3,0.6-0.5,1-0.8c0,0,0.1-0.1,0.2-0.1l0.2-0.1l0.1-0.1l0,0l0.3-0.2
	l0.5-0.3c0.2-0.1,0.5-0.2,0.7-0.3l0.4-0.1c0.1-0.1,0.3-0.1,0.4-0.1l0.4-0.1c0.1,0,0.3-0.1,0.4-0.1l0.7-0.1l0,0
	c3.8-0.8,8.4,0.1,13.3,3c3.9,2.3,7.4,5.3,10.4,8.7c0.9,1,1.8,2.1,2.6,3.2c6.6,8.7,11,19.8,11,29.5C81.2,330.1,79.7,334.6,76.9,337.5
	z"/>
<path class="st0" d="M76.9,337.5c-3.9,1-8.8,0.2-14-2.9c-8.4-4.9-15.9-14.1-20.1-24.2h0c-0.8-2-1.5-3.9-2.1-5.9
	c-1.1-3.8-1.7-7.6-1.7-11.2c0-5.7,1.5-10.1,4.1-13h0c0,0,0,0,0,0"/>
<line class="st0" x1="237.6" y1="277.8" x2="237.6" y2="277.3"/>
<polyline class="st0" points="124.7,155.5 129.1,152.3 132.4,154.2 167.1,174.2 168.5,175 168.5,175 182.1,182.9 182.1,182.9 
	183.7,183.8 199.2,192.8 "/>
<line class="st0" x1="237.6" y1="221.3" x2="237.6" y2="221.3"/>
<line class="st0" x1="233.2" y1="240" x2="233.2" y2="239.8"/>
<polyline class="st0" points="133.4,228.3 128.8,225.6 124.7,223.3 124.7,221.6 124.7,207.9 124.7,159 124.7,155.5 127.7,157.2 
	165,178.7 168.5,180.7 178.1,186.3 178.4,186.5 178.5,186.5 181.8,188.4 188.9,192.5 188.9,192.5 "/>
<polyline class="st0" points="231.6,284.9 231.4,284.9 225.5,281.5 225.5,281.5 160.2,243.7 "/>
<path class="st0" d="M128.6,136.4c-3.7,2.1-2.1,9.6,1.1,11.4l6.9,4l72.4,41.8c1.7,0.9,3.6,1.3,5.5,1.2c2.5,0,4.9-0.6,7.1-1.8
	c3.7-2.1,5.3-10.3,2.1-12.1"/>
<path class="st0" d="M208.9,187.8L129.6,142c-3.2-1.9-2.8-5.1,0.9-7.2l0,0c3.7-2.1,9.4-2.4,12.6-0.5l79.3,45.8
	c3.2,1.9,2.8,5.1-0.9,7.2l0,0C217.8,189.4,212.1,189.7,208.9,187.8z"/>
<path class="st0" d="M157.9,204.7c1.5-1.3,3.1-2.5,4.7-3.6l1.3-0.8c1.8-1.1,3.7-2.2,5.7-3.1c1.3-0.6,2.7-1.2,4.1-1.7
	c0.6-0.2,1.3-0.4,2-0.6l0,0c1.8-0.5,3.6-1,5.5-1.4c2.6-0.5,5.2-0.8,7.8-0.9l0,0c3.4-0.2,6.9-0.1,10.3,0.3c0.8,0.1,1.5,0.2,2.3,0.3
	s1.3,0.2,1.9,0.3c2.7,0.4,5.5,1,8.2,1.8c2.1,0.6,4.2,1.2,6.4,2l1.3,0.5c0.8,0.3,1.6,0.6,2.5,0.9s1.9,0.8,2.9,1.2
	c0.8,0.3,1.6,0.7,2.4,1l0,0c3.1,1.4,6.1,2.9,9.3,4.7c0.6,0.4,1.3,0.7,2,1.1l0.6,0.3l0.1,0.1l0,0c1.7,1,3.4,2,5.1,3.1l0.1,0.1
	c12.8,8.4,24.5,18.4,34.9,29.6l0,0c2.9,3.1,5.7,6.3,8.5,9.6c6.6,7.9,12.6,16.3,18.1,25c1,1.6,2,3.2,3,4.9
	c7.4,12.3,13.7,25.2,18.9,38.6l0,0c8.5,22,13.3,44.6,13.3,65.7c0,34.9-13.2,58.5-34.2,68"/>
<path class="st0" d="M235.6,241.5L235.6,241.5 M235.6,241.5L235.6,241.5 M235.6,241.5L235.6,241.5 M235.6,241.5L235.6,241.5
	 M241.2,245.1c0,0-9.2-6-9.4-6.1l-0.1-0.1c-1.8-1.2-3.6-2.3-5.4-3.3l-1.1-0.6c-1-0.6-2-1.1-3-1.6c-10.7-5.6-20.9-8.6-30.2-9.2
	c-2.6-0.2-5.3-0.1-7.9,0.1l0,0c-0.7,0.1-1.4,0.1-2.1,0.2c-0.1,0-0.2,0-0.3,0c-0.5,0.1-1,0.2-1.5,0.2c-2.2,0.4-4.4,1-6.6,1.7
	c-0.7,0.2-1.4,0.5-2.1,0.8 M240.8,245.7L240.8,245.7 M231.9,239l-0.1-0.1c-1.8-1.2-3.6-2.3-5.4-3.3l-1.1-0.6c-1-0.6-2-1.1-3-1.6
	c-10.7-5.6-20.9-8.6-30.2-9.2c-2.6-0.2-5.3-0.1-7.9,0.1l0,0c-0.7,0.1-1.4,0.1-2.1,0.2c-0.1,0-0.2,0-0.3,0c-0.5,0.1-1,0.2-1.5,0.2
	c-2.2,0.4-4.4,1-6.6,1.7c-0.7,0.2-1.4,0.5-2.1,0.8l-0.6,0.2l0,0c-0.3,0.1-0.6,0.2-0.9,0.4L170,228c-0.4,0.2-0.9,0.4-1.3,0.6
	l-0.4,0.2c-0.2,0.1-0.3,0.2-0.4,0.2c-0.3,0.2-0.6,0.3-1,0.5h-0.1l-0.5,0.3l-0.2,0.1c-0.1,0-0.2,0.1-0.3,0.2l-0.8,0.5l-0.9,0.6
	l-0.6,0.4c-0.3,0.2-0.5,0.4-0.8,0.6l-0.6,0.4c-0.4,0.3-0.7,0.6-1.1,0.9l-0.4,0.3c-0.2,0.2-0.5,0.4-0.7,0.6l-0.7,0.7
	c-0.6,0.5-1.1,1-1.6,1.6l-0.1,0.1c-0.1,0.1-0.1,0.1-0.2,0.2c-0.1,0.1-0.2,0.2-0.3,0.3c-0.1,0.1-0.2,0.2-0.2,0.2
	c-0.2,0.2-0.4,0.4-0.5,0.6s-0.3,0.3-0.4,0.5l-0.3,0.3c0,0-0.1,0.1-0.1,0.1c-0.1,0.1-0.1,0.2-0.2,0.3l-0.2,0.2l-0.5,0.6
	c-0.1,0.1-0.1,0.2-0.2,0.2c-0.1,0.2-0.3,0.4-0.4,0.5l0,0l0,0l0,0l0,0l0,0l0,0l0,0l0,0c-0.1,0.2-0.3,0.3-0.4,0.5c0,0-0.1,0.1-0.1,0.2
	l0,0c-0.4,0.5-0.7,1.1-1.1,1.6c-0.3,0.5-0.6,1-0.9,1.4l-0.1,0.2c-0.2,0.3-0.3,0.6-0.5,0.9s-0.4,0.6-0.5,1s-0.4,0.7-0.6,1.1
	s-0.3,0.6-0.5,0.9c-0.3,0.7-0.6,1.4-1,2.1l-0.1,0.2l-0.3,0.8c-0.1,0.2-0.2,0.4-0.2,0.6l0,0c0,0,0,0.1-0.1,0.2
	c-0.5,1.1-0.9,2.4-1.3,3.6l-0.2,0.5c-0.1,0.5-0.3,0.9-0.4,1.4c-0.1,0.3-0.2,0.5-0.2,0.8c0,0.1-0.1,0.2-0.1,0.2c0,0,0,0.1,0,0.1
	c-0.1,0.3-0.1,0.5-0.2,0.8c0,0.1,0,0.1,0,0.2l-0.1,0.2l-0.1,0.2c0,0,0,0.1,0,0.1l0,0c-0.1,0.2-0.1,0.5-0.2,0.7c0,0.1,0,0.2-0.1,0.2
	c-0.1,0.4-0.2,0.8-0.3,1.2s-0.2,1-0.3,1.5c0,0.1,0,0.1,0,0.2c0,0.1,0,0.1,0,0.2c0,0.1-0.1,0.3-0.1,0.4c-0.1,0.4-0.1,0.8-0.2,1.2
	s-0.1,0.5-0.1,0.8c0,0,0,0.1,0,0.1v0.2c0,0.2-0.1,0.4-0.1,0.6s-0.1,0.4-0.1,0.6s-0.1,0.6-0.1,1c0,0.2,0,0.4-0.1,0.5
	c-0.1,0.7-0.2,1.3-0.2,2c0,0.3-0.1,0.6-0.1,0.9c-0.1,1.4-0.2,2.8-0.3,4.2v0.6c0,0.8-0.1,1.6-0.1,2.5s0,1.7,0,2.5
	c0,53.2,37.6,118.1,84,144.9c27.2,15.7,51.4,14.8,66.7,0.7c10.9-10,17.3-26.6,17.3-48.6c0-29.2-11.4-62-29.3-90.1c-1-1.5-2-3-3-4.5
	c-5-7.4-10.5-14.4-16.4-21c-6.4-7.1-13.4-13.7-20.9-19.6l0,0l0,0 M220.6,211c-3.1-1.6-6.1-3-9.1-4.2 M222.3,233.4c1,0.5,2,1.1,3,1.6
	l1.1,0.6c1.8,1,3.6,2.1,5.4,3.3 M222.3,233.4c1,0.5,2,1.1,3,1.6l1.1,0.6c1.8,1,3.6,2.1,5.4,3.3 M222.3,233.4c1,0.5,2,1.1,3,1.6
	l1.1,0.6c1.8,1,3.6,2.1,5.4,3.3 M295.7,285.1c-1-1.6-1.9-3.1-2.9-4.7c-5.3-8.2-11-16.1-17.2-23.6c-9.7-11.8-20.6-22.4-32.7-31.7
	l-0.1-0.1c-0.5-0.4-1.1-0.8-1.6-1.2c-1.2-0.9-2.3-1.7-3.5-2.5c0,0-0.1,0-0.1-0.1c-1.2-0.8-2.3-1.6-3.5-2.4l-0.8-0.5
	c-1.6-1.1-3.3-2.1-4.9-3.1l-0.5-0.3c-0.5-0.3-1-0.6-1.5-0.9c-2-1.1-3.9-2.2-5.8-3.2c-3.1-1.6-6.1-3-9.1-4.2l-0.4-0.1
	c-1.8-0.7-3.7-1.4-5.5-2c-1.2-0.4-2.5-0.8-3.7-1.2l0,0c-2.3-0.7-4.5-1.2-6.8-1.7l0,0c-0.8-0.2-1.6-0.3-2.4-0.5
	c-3.7-0.7-7.5-1.1-11.2-1.1c-2,0-4,0-6,0.2c-0.6,0.1-1.3,0.1-1.9,0.2c-1.1,0.1-2.2,0.3-3.3,0.5c-2,0.4-4,0.8-6,1.4
	c-0.2,0-0.4,0.1-0.5,0.1c-2,0.6-4,1.4-5.9,2.2c-3.8,1.7-7.4,4-10.7,6.6c-3.1,2.5-5.8,5.3-8.2,8.4c-1.8,2.3-3.4,4.7-4.8,7.2l-0.8,1.4
	c-2.9,5.5-5.1,11.3-6.6,17.3c-0.2,0.9-0.4,1.8-0.7,2.8c-0.8,3.4-1.3,6.9-1.7,10.4c-0.2,1.6-0.3,3.3-0.5,5c-0.2,2.9-0.3,5.9-0.3,8.9
	c0,65.1,46,144.4,102.7,177.1c32.6,18.8,61.7,18.2,80.5,1.8c13.9-12,22.2-32.7,22.2-60.4C329,356.9,316.2,318.5,295.7,285.1
	L295.7,285.1z"/>
<path class="st0" d="M211.9,323.6c0,9.2,6.5,20.4,14.5,25.1s14.5,0.9,14.5-8.3s-6.5-20.4-14.5-25.1S211.9,314.4,211.9,323.6z"/>
<path class="st0" d="M218.4,327.4c0,5.1,3.6,11.2,8,13.8s8,0.5,8-4.6s-3.6-11.2-8-13.8S218.4,322.3,218.4,327.4z"/>
</svg>
